<?xml version="1.0" encoding="utf-8"?>
<!-- Generator: $$$/GeneralStr/196=Adobe Illustrator 27.6.0, SVG Export Plug-In . SVG Version: 6.00 Build 0)  -->
<svg version="1.1" id="a" xmlns="http://www.w3.org/2000/svg" xmlns:xlink="http://www.w3.org/1999/xlink" x="0px" y="0px"
	 viewBox="0 0 294 502" style="enable-background:new 0 0 294 502;" xml:space="preserve">
<style type="text/css">
	.st0{fill:#C09264;}
	.st1{fill:#A06C40;}
	.st2{fill:#51B3E3;}
	.st3{fill:#057691;}
	.st4{clip-path:url(#SVGID_00000029751951934066784660000010762628313522751421_);}
	.st5{fill:#F6D213;}
	.st6{clip-path:url(#SVGID_00000106112619668016080710000000136915139812512396_);}
	.st7{fill:none;stroke:#D1AB10;stroke-width:3;stroke-miterlimit:10;}
	.st8{fill:#186E36;}
	.st9{clip-path:url(#SVGID_00000008865760037932765790000002899441825311088062_);}
	.st10{clip-path:url(#SVGID_00000117654900351787217740000003935841522930999699_);}
	.st11{clip-path:url(#SVGID_00000059268244986368341940000002411463741789169066_);}
	.st12{clip-path:url(#SVGID_00000022542476399727604230000006394206299422311834_);}
	.st13{clip-path:url(#SVGID_00000114779706496547094430000008403148064392955561_);}
	.st14{clip-path:url(#SVGID_00000034790539562918130290000007511981109769145730_);}
	.st15{clip-path:url(#SVGID_00000137836201066427069650000016461633889985739960_);}
	.st16{clip-path:url(#SVGID_00000164495235567327341930000001929748355033195945_);}
	.st17{clip-path:url(#SVGID_00000092457741158552638510000001017218457921928614_);}
	.st18{fill:#1B7EAA;}
	.st19{fill:#E5BC94;}
	.st20{fill:#FBDAC0;}
	.st21{fill:#341711;}
	.st22{fill:#A74A44;}
	.st23{fill:none;stroke:#643D21;stroke-width:2;stroke-linecap:round;stroke-linejoin:round;}
	.st24{fill:#846043;}
	.st25{fill:#84522C;}
	.st26{fill:none;stroke:#84522C;stroke-width:3;stroke-linecap:round;stroke-linejoin:round;}
	.st27{fill:none;stroke:#A06C40;stroke-width:3;stroke-linecap:round;stroke-miterlimit:10;}
	.st28{fill:none;stroke:#A06C40;stroke-width:3.052;stroke-linecap:round;stroke-miterlimit:10;}
	.st29{fill:url(#SVGID_00000116921330139380830430000000881975390331292055_);}
	.st30{opacity:0.8;fill:url(#SVGID_00000083074334567873948980000001675330253942494364_);enable-background:new    ;}
	.st31{opacity:0.8;fill:url(#SVGID_00000068651591886883389900000008532429223694013580_);enable-background:new    ;}
	.st32{fill:#E9485F;}
	.st33{fill:none;stroke:#DCDCDC;stroke-width:10;stroke-linecap:round;stroke-miterlimit:10;}
	.st34{fill:#BFBEBE;}
	.st35{fill:#5BB46F;}
	.st36{fill:#FFFFFF;}
</style>
<path class="st0" d="M265.9,319.4c0-0.5-1.2-14.4-5.1-20.5c-0.3-0.5-0.7-0.9-1.1-1.3c-0.4-2.5-0.9-4.9-1.6-7
	c-5.3-15.6-11.5-31.7-23.8-42.5c-9-7.9-20.7-12.4-32.5-14.5s-23.9-2-35.9-1.9c-4.9,0.1-9.9,0.1-14.7,1.1c-8.9,1.7-17,6.4-24.6,11.6
	c-12.1,8.2-23.2,18.1-31.8,29.9c-4.2,5.7-7.8,11.9-10.5,18.5c-0.1,0.2-0.2,0.4-0.2,0.7c-1.8,1.7-3.4,3.5-4.8,5.4
	c-2.2,6.2-6.1,21.9-5.9,22.4c0,0,0,0,0,0c-2.8,8.7,1.2,18.6,8.7,24.3c-1.4,4.1-1.3,8.6,0.1,12.7s4.5,8.2,8.2,10.4
	c-5.4,4-6.7,14-1.6,19.3c0.1,0.1,0.1,0.3,0.2,0.4c-0.6,2.6,1,5,3,6.5c1.2,10.5,3.5,21.3,6.4,31.7c0,0,0,0,0,0
	c1.1,7.4,12.3,39.7,23.2,55.9c0.1,0.2,0.2,0.3,0.3,0.4c0.5,0.8,0.9,1.6,1.4,2.4c-0.8,2.1-0.5,5.5-0.4,7.8c0,0.8,0.2,1.7,0.6,2.4
	c0.4,0.7,1.3,1.2,2.1,1.1c0.4-0.1,0.7-0.3,1.1-0.5c1.4-0.9,3.3-1.6,4.7-2.5c-0.4,2.4,2.4,4.2,4.8,3.8s4.1-2.3,5.7-4.1
	c1.5-1.7,3-3.4,4-5.4c0,0,0,0,0,0c0,0,0,0,0,0c0.4-0.7,0.7-1.5,0.9-2.3c0.7-2.1,0.6-3.4-0.3-6.5c-1.7-6.8-3.3-13.6-5-20.4
	c4.3-4.1,5.5-11.2,2.6-16.4c0,0-0.1,0-0.1,0c0,0,0,0,0,0c2.6-1.3,4.6-3.9,5.2-6.8c0.6-2.9,0-6.3-2-8.5c2.4-2,5-4.3,5.2-7.4
	c0.1-1.4-0.3-2.9-1.1-4c0-0.1,0-0.1,0-0.2c8.8,8.6,25.7,10.9,36.8,1.1c0.4,2.6,0.8,5.3,1.8,7.7c1.1,2.5,2.9,4.7,5.4,5.6
	c-2.9,3.9-2.6,9.9,0.8,13.5c0.2,0.3,0.5,0.5,0.6,0.8c0,0.1,0,0.1,0,0.2c-2.1,4.1-2.3,10.2,2.5,13.1c-0.8,5.2-2.6,15.5-3.7,21.5
	c-2.2,8.7,0.4,9.7,3.3,11.4c0,0,0,0,0,0c1.9,1.4,4.2,2.6,5.9,3.6c1.6,0.9,3.4,1.8,5.2,1.6s1.7-2.2,1.9-4c0.9,0.9,3.9,2.1,5.1,2.3
	s2.2-0.2,3-1.2c1-1.3,0.7-3.1,0.4-4.8c-0.4-1.8-0.8-3.5-1.2-5.4c0-0.1,0-0.2,0-0.2c5.4-10.8,10-22.5,16.4-32.8
	c5.1-9.2,6.2-14.5,7-18.8c0.3-1.4,0.6-2.9,0.9-4.4c0,0,0,0,0,0c0,0,0,0,0,0c0.5-2.9,1-5.9,1.5-8.8c1.1-6.8,2.5-13.9,3.7-20.8
	c0.5-1.6,0.7-3.3,1-5.2c0.1,0,0.1-0.1,0.2-0.1c1.5-0.6,2.6-1.8,3.5-3.2c3.7-5.1,4.4-13.3-0.5-16.9c0,0-0.1,0-0.1,0c0,0,0,0,0,0
	c10.6-5.5,11.9-16.4,9.3-23.3C269.5,341.3,271.5,326.4,265.9,319.4L265.9,319.4z"/>
<path class="st1" d="M252.6,371.5c-1.6,1-9.5-0.2-11.4-2.6c-1.9,7.1-12.4,17.4-25.1,11.4c-1.1,9.8-19.8,12.1-24.1,5.5
	c-7.9,12.4-27.9,10.9-34.7,0.2c-10.7,5-24.8,1.1-26.3-10.7c-7,6.6-24.1,4.5-28.4-5.9c-3.8,2.8-12.4-0.6-12.4-0.6
	c-5.5,4.1-6.8,14.3-1.4,19.5c-1.4,4.8,5.3,9.3,8,8.1c2.4,9.3,12,12.4,20.4,9.1c1.5,9,6.5,13.6,17.4,14c4.7,6.4,16.3,4,16.6-3.8
	c8.8,8.6,25.8,10.9,36.9,1c3,9.3,27.6,11.3,36-0.4c7.7,2,16.5-4.1,17.1-10.5c7.4-5.3,7.5-8.8,8.2-13.9
	C256.1,388.3,258.9,376.1,252.6,371.5L252.6,371.5z"/>
<path class="st1" d="M260.8,299c-5.4-7.2-13.1-12.6-21.4-16.5c-21.4-10.1-45.6-11.6-69.4-9.9c-23.9-1.7-48-0.3-69.4,9.9
	c-8.3,3.9-16,9.4-21.4,16.5c-2.2,6.2-6.1,21.9-5.9,22.4c44.2,43.3,152.8,44.7,192.6-1.9C265.8,318.9,264.7,305.1,260.8,299
	L260.8,299z"/>
<path class="st1" d="M146.5,479.3c-1.7-6.8-3.3-13.6-5-20.4c4.3-4.1,5.5-11.2,2.6-16.4c-0.5,0.3-6.2,2.6-11.5-2.7
	c-1.8,2.3-4.5,3.7-7.3,4.2s-5.7,0.2-8.5-0.6c-5.1-1.4-10.1-5.7-13.6-9.7c-2.1-2.3-4.9-7-4.9-7c1.1,7.4,12.3,39.7,23.2,55.9
	c3,4.6,18.6,1,18.8,0.9c1.8-0.4,5.4-0.2,5.5,4.5C147.5,484.2,147.6,483.3,146.5,479.3L146.5,479.3z"/>
<path class="st1" d="M210.4,439.3c-0.5,5.2-11.2,7.2-13.5,5.1c-2.2,4.1-2.4,10.4,2.5,13.3c-0.8,5.2-2.6,15.5-3.7,21.5
	c-2.2,8.7,0.4,9.7,3.3,11.4c-2.3-2.2-1.6-8,2.8-7.2c8.3,1.9,18,0.9,17.4-0.9c5.4-10.8,10-22.5,16.4-32.8c7-12.6,6.5-18,7.9-23.2
	C234.6,440.2,221.5,446.3,210.4,439.3L210.4,439.3z"/>
<path class="st2" d="M266.9,286.1c-5.4-30.3-15.2-58.9-23.4-88.5c-1.3-4.7-5.5-7.9-9.6-10.5c-5.5-3.6-13.7-6.9-21.9-10.1
	c-4.7-1.8-9.8-2.8-14.7-1.5c-10.5,2.7-44.3,2.7-54.7,0c-4.9-1.3-9.9-0.3-14.7,1.5c-8.2,3.2-16.4,6.6-21.9,10.1
	c-4.1,2.6-8.3,5.9-9.6,10.5c-8.2,29.6-18.1,58.3-23.4,88.5c-1.4,7.7-2.6,15.7-0.9,23.4c25.8,21.2,57.9,32.3,91.2,33.6
	c3.5-22.3,5.8-44.8,6.7-67.4c0.9,22.6,3.1,45.1,6.7,67.4c33.4-1.3,65.4-12.4,91.2-33.6C269.4,301.8,268.2,293.8,266.9,286.1
	L266.9,286.1z"/>
<path class="st3" d="M170.5,277.6v-57.7c0-0.3,0-2.5-0.6-2.5c-0.6,0-0.6,2.3-0.6,2.5v57.7c0,0.3,0,2.5,0.6,2.5
	C170.5,280.1,170.5,277.8,170.5,277.6L170.5,277.6z"/>
<g>
	<defs>
		<path id="SVGID_1_" d="M266.9,286.1c-5.4-30.3-15.2-58.9-23.4-88.5c-1.3-4.7-5.5-7.9-9.6-10.5c-5.5-3.6-13.7-6.9-21.9-10.1
			c-4.7-1.8-9.8-2.8-14.7-1.5c-10.5,2.7-44.3,2.7-54.7,0c-4.9-1.3-9.9-0.3-14.7,1.5c-8.2,3.2-16.4,6.6-21.9,10.1
			c-4.1,2.6-8.3,5.9-9.6,10.5c-8.2,29.6-18.1,58.3-23.4,88.5c-1.4,7.7-2.6,15.7-0.9,23.4c25.8,21.2,57.9,32.3,91.2,33.6
			c3.5-22.3,5.8-44.8,6.7-67.4c0.9,22.6,3.1,45.1,6.7,67.4c33.4-1.3,65.4-12.4,91.2-33.6C269.4,301.8,268.2,293.8,266.9,286.1
			L266.9,286.1z"/>
	</defs>
	<clipPath id="SVGID_00000162344474599922818880000012493633861081552264_">
		<use xlink:href="#SVGID_1_"  style="overflow:visible;"/>
	</clipPath>
	<g style="clip-path:url(#SVGID_00000162344474599922818880000012493633861081552264_);">
		<path class="st5" d="M210.3,268.2c-3.6-6-9.4-8.8-14.3-8.5c0,0-0.1,0-0.1,0c0,0-0.1,0-0.1,0c-4.9,0.3-10.3,3.8-13.2,10.2
			c-5.5,12.1-1.5,33.6,15.8,32.7C215.7,301.4,217.1,279.6,210.3,268.2L210.3,268.2z"/>
		<g>
			<defs>
				<path id="SVGID_00000170985495628952510050000005497963989755737015_" d="M210.3,268.2c-3.6-6-9.4-8.8-14.3-8.5c0,0-0.1,0-0.1,0
					c0,0-0.1,0-0.1,0c-4.9,0.3-10.3,3.8-13.2,10.2c-5.5,12.1-1.5,33.6,15.8,32.7C215.7,301.4,217.1,279.6,210.3,268.2L210.3,268.2z"
					/>
			</defs>
			<clipPath id="SVGID_00000173157396721931863570000003430196622279481776_">
				<use xlink:href="#SVGID_00000170985495628952510050000005497963989755737015_"  style="overflow:visible;"/>
			</clipPath>
			<g style="clip-path:url(#SVGID_00000173157396721931863570000003430196622279481776_);">
				<path class="st7" d="M219.3,277.7c3.3-3.2,6.5-6.7,9.5-10.4c3.7,0.4,7.4,0.5,11.1,0.3c-2.8,4.2-5.8,8.2-8.9,12
					C227.1,279.2,223.2,278.6,219.3,277.7L219.3,277.7z"/>
				<path class="st7" d="M209.2,286.8c3.5-2.8,6.9-5.8,10.1-9.1c3.9,0.9,7.8,1.5,11.6,1.8c-3.1,3.8-6.4,7.3-9.7,10.6
					C217.2,289.3,213.2,288.2,209.2,286.8L209.2,286.8z"/>
				<path class="st7" d="M187.6,300.6c3.7-1.8,7.4-3.9,11-6.2c4,2,8.1,3.7,12.2,5c-3.6,2.8-7.2,5.5-10.9,7.8
					C195.7,305.3,191.6,303.1,187.6,300.6z"/>
				<path class="st7" d="M198.6,294.4c3.6-2.3,7.2-4.9,10.6-7.7c4,1.4,8,2.6,12,3.4c-3.4,3.3-6.8,6.4-10.4,9.3
					C206.7,298.1,202.6,296.4,198.6,294.4z"/>
				<path class="st7" d="M196.2,268.7c3.4-2.2,6.8-4.7,10.1-7.4c3.8,1.6,7.6,2.8,11.3,3.8c-3.2,3.2-6.5,6.1-9.9,8.9
					C203.8,272.6,200,270.8,196.2,268.7L196.2,268.7z"/>
				<path class="st7" d="M185.8,274.7c3.5-1.7,7-3.7,10.4-6c3.8,2.1,7.7,3.9,11.5,5.4c-3.4,2.7-6.8,5.2-10.3,7.5
					C193.5,279.6,189.6,277.3,185.8,274.7L185.8,274.7z"/>
				<path class="st7" d="M164.7,282.1c3.5-0.7,7-1.7,10.5-3c3.7,3.1,7.5,5.9,11.4,8.5c-3.6,1.8-7.2,3.3-10.8,4.6
					C172,289.1,168.3,285.8,164.7,282.1L164.7,282.1z"/>
				<path class="st7" d="M175.3,279.2c3.5-1.2,7-2.7,10.5-4.5c3.8,2.6,7.7,4.9,11.6,6.9c-3.5,2.3-7.1,4.3-10.7,6.1
					C182.8,285.1,179,282.3,175.3,279.2z"/>
				<path class="st7" d="M186.7,287.6c-3.6,1.8-7.2,3.3-10.8,4.6c3.8,3.1,7.8,5.9,11.8,8.4c3.7-1.8,7.4-3.9,11-6.2
					C194.6,292.5,190.6,290.2,186.7,287.6z"/>
				<path class="st7" d="M197.3,281.6c-3.5,2.3-7.1,4.3-10.7,6.1c3.9,2.5,7.9,4.8,11.9,6.8c3.6-2.3,7.2-4.9,10.6-7.7
					C205.2,285.3,201.3,283.6,197.3,281.6L197.3,281.6z"/>
				<path class="st7" d="M217.6,265.2c-3.2,3.2-6.5,6.1-9.9,8.9c3.9,1.5,7.8,2.7,11.7,3.6c3.3-3.2,6.5-6.7,9.5-10.4
					C225.1,266.9,221.3,266.2,217.6,265.2L217.6,265.2z"/>
				<path class="st7" d="M207.7,274.1c-3.4,2.7-6.8,5.2-10.3,7.5c3.9,2,7.9,3.8,11.9,5.2c3.5-2.8,6.9-5.8,10.1-9.1
					C215.5,276.8,211.6,275.6,207.7,274.1L207.7,274.1z"/>
				<path class="st7" d="M164.5,269.1c-3.4,0.7-6.7,1.2-10,1.4c3.3,4.2,6.7,8.1,10.3,11.7c3.5-0.7,7-1.7,10.5-3
					C171.6,276.1,168,272.7,164.5,269.1L164.5,269.1z"/>
				<path class="st7" d="M174.7,266.1c-3.4,1.2-6.8,2.2-10.2,2.9c3.5,3.6,7,7,10.8,10.1c3.5-1.2,7-2.7,10.5-4.5
					C182,272.1,178.3,269.3,174.7,266.1z"/>
				<path class="st7" d="M195.1,255.9c-3.3,2.2-6.7,4.1-10.1,5.9c3.7,2.6,7.4,4.9,11.2,7c3.4-2.2,6.8-4.7,10.1-7.4
					C202.5,259.8,198.7,258,195.1,255.9L195.1,255.9z"/>
				<path class="st7" d="M185,261.7c-3.4,1.7-6.8,3.2-10.2,4.4c3.6,3.1,7.3,6,11.1,8.5c3.5-1.7,7-3.7,10.4-6
					C192.4,266.7,188.6,264.3,185,261.7L185,261.7z"/>
			</g>
		</g>
		<path class="st8" d="M202.7,256.8c3.7-2.4,6.8-3.9,6.8-3.9c-4.8-1.4-8.4,0.7-10.9,3.4c4-6.2,10-13.5,10-13.5
			c-4.5,1-8.8,4.7-11.1,7.3c0-2.1-1.8-11-2.9-11.8c-0.9,1-1.7,10-1.5,12.1c-2.6-2.3-7.3-5.5-11.9-6c0,0,6.8,6.6,11.5,12.2
			c-2.8-2.5-6.6-4.1-11.2-2.2c0,0,3.2,1.1,7.2,3.1c-2-0.2-4.2,0.2-6.4,1.8c3.8,0,7.4,0.6,10.7,1.9c0.7,0.9,1.8,1.5,3,1.4
			s2.3-0.8,2.8-1.7c3.1-1.6,6.6-2.6,10.4-3.1C206.9,256.4,204.7,256.3,202.7,256.8L202.7,256.8z"/>
		<path class="st5" d="M254.4,235.6c-3.6-6-9.4-8.8-14.3-8.5c0,0-0.1,0-0.1,0c0,0-0.1,0-0.1,0c-4.9,0.3-10.3,3.8-13.2,10.2
			c-5.5,12.1-1.5,33.6,15.8,32.7C259.8,268.8,261.2,247,254.4,235.6L254.4,235.6z"/>
		<g>
			<defs>
				<path id="SVGID_00000060718460612083448360000010204525339409550725_" d="M254.4,235.6c-3.6-6-9.4-8.8-14.3-8.5c0,0-0.1,0-0.1,0
					c0,0-0.1,0-0.1,0c-4.9,0.3-10.3,3.8-13.2,10.2c-5.5,12.1-1.5,33.6,15.8,32.7C259.8,268.8,261.2,247,254.4,235.6L254.4,235.6z"/>
			</defs>
			<clipPath id="SVGID_00000164490291240859268270000003843666077824439472_">
				<use xlink:href="#SVGID_00000060718460612083448360000010204525339409550725_"  style="overflow:visible;"/>
			</clipPath>
			<g style="clip-path:url(#SVGID_00000164490291240859268270000003843666077824439472_);">
				<path class="st7" d="M263.5,245.1c3.3-3.2,6.5-6.7,9.5-10.4c3.7,0.4,7.4,0.5,11.1,0.3c-2.8,4.2-5.8,8.2-8.9,12
					C271.2,246.6,267.3,246,263.5,245.1L263.5,245.1z"/>
				<path class="st7" d="M253.3,254.1c3.5-2.8,6.9-5.8,10.1-9.1c3.9,0.9,7.8,1.5,11.6,1.8c-3.1,3.8-6.4,7.3-9.7,10.6
					C261.3,256.7,257.3,255.6,253.3,254.1L253.3,254.1z"/>
				<path class="st7" d="M231.7,268c3.7-1.8,7.4-3.9,11-6.2c4,2,8.1,3.7,12.2,5c-3.6,2.8-7.2,5.5-10.9,7.8
					C239.9,272.7,235.8,270.5,231.7,268z"/>
				<path class="st7" d="M242.7,261.8c3.6-2.3,7.2-4.9,10.6-7.7c4,1.4,8,2.6,12,3.4c-3.4,3.3-6.8,6.4-10.4,9.3
					C250.8,265.4,246.7,263.8,242.7,261.8z"/>
				<path class="st7" d="M240.3,236.1c3.4-2.2,6.8-4.7,10.1-7.4c3.8,1.6,7.6,2.8,11.3,3.8c-3.2,3.2-6.5,6.1-9.9,8.9
					C248,240,244.1,238.2,240.3,236.1L240.3,236.1z"/>
				<path class="st7" d="M229.9,242.1c3.5-1.7,7-3.7,10.4-6c3.8,2.1,7.7,3.9,11.5,5.4c-3.4,2.7-6.8,5.2-10.3,7.5
					C237.6,247,233.7,244.7,229.9,242.1L229.9,242.1z"/>
				<path class="st7" d="M208.9,249.5c3.5-0.7,7-1.7,10.5-3c3.7,3.1,7.5,5.9,11.4,8.5c-3.6,1.8-7.2,3.3-10.8,4.6
					C216.2,256.5,212.4,253.2,208.9,249.5L208.9,249.5z"/>
				<path class="st7" d="M219.4,246.6c3.5-1.2,7-2.7,10.5-4.5c3.8,2.6,7.7,4.9,11.6,6.9c-3.5,2.3-7.1,4.3-10.7,6.1
					C226.9,252.5,223.1,249.7,219.4,246.6z"/>
				<path class="st7" d="M230.8,255c-3.6,1.8-7.2,3.3-10.8,4.6c3.8,3.1,7.8,5.9,11.8,8.4c3.7-1.8,7.4-3.9,11-6.2
					C238.7,259.8,234.7,257.6,230.8,255L230.8,255z"/>
				<path class="st7" d="M241.5,249c-3.5,2.3-7.1,4.3-10.7,6.1c3.9,2.5,7.9,4.8,11.9,6.8c3.6-2.3,7.2-4.9,10.6-7.7
					C249.4,252.7,245.4,251,241.5,249L241.5,249z"/>
				<path class="st7" d="M261.7,232.6c-3.2,3.2-6.5,6.1-9.9,8.9c3.9,1.5,7.8,2.7,11.7,3.6c3.3-3.2,6.5-6.7,9.5-10.4
					C269.2,234.3,265.5,233.6,261.7,232.6L261.7,232.6z"/>
				<path class="st7" d="M251.8,241.5c-3.4,2.7-6.8,5.2-10.3,7.5c3.9,2,7.9,3.8,11.9,5.2c3.5-2.8,6.9-5.8,10.1-9.1
					C259.6,244.2,255.7,243,251.8,241.5L251.8,241.5z"/>
				<path class="st7" d="M208.6,236.5c-3.4,0.7-6.7,1.2-10,1.4c3.3,4.2,6.7,8.1,10.3,11.7c3.5-0.7,7-1.7,10.5-3
					C215.7,243.5,212.1,240.1,208.6,236.5L208.6,236.5z"/>
				<path class="st7" d="M218.9,233.5c-3.4,1.2-6.8,2.2-10.2,2.9c3.5,3.6,7,7,10.8,10.1c3.5-1.2,7-2.7,10.5-4.5
					C226.1,239.5,222.4,236.6,218.9,233.5L218.9,233.5z"/>
				<path class="st7" d="M239.2,223.3c-3.3,2.2-6.7,4.1-10.1,5.9c3.7,2.6,7.4,4.9,11.2,7c3.4-2.2,6.8-4.7,10.1-7.4
					C246.6,227.2,242.9,225.4,239.2,223.3L239.2,223.3z"/>
				<path class="st7" d="M229.1,229.1c-3.4,1.7-6.8,3.2-10.2,4.4c3.6,3.1,7.3,6,11.1,8.5c3.5-1.7,7-3.7,10.4-6
					C236.5,234.1,232.8,231.7,229.1,229.1L229.1,229.1z"/>
			</g>
		</g>
		<path class="st8" d="M246.8,224.1c3.7-2.4,6.8-3.9,6.8-3.9c-4.8-1.4-8.4,0.7-10.9,3.4c4-6.2,10-13.5,10-13.5
			c-4.5,1-8.8,4.7-11.1,7.3c0-2.1-1.8-11-2.9-11.8c-0.9,1-1.7,10-1.5,12.1c-2.6-2.3-7.3-5.5-11.9-6c0,0,6.8,6.6,11.5,12.2
			c-2.8-2.5-6.6-4.1-11.2-2.2c0,0,3.2,1.1,7.2,3.1c-2-0.2-4.2,0.2-6.4,1.8c3.8,0,7.4,0.6,10.7,1.9c0.7,0.9,1.8,1.5,3,1.4
			s2.3-0.8,2.8-1.7c3.1-1.6,6.6-2.6,10.4-3.1C251.1,223.8,248.8,223.7,246.8,224.1L246.8,224.1z"/>
		<path class="st5" d="M214.7,354.1c-3.6-6-9.4-8.8-14.3-8.5c0,0-0.1,0-0.1,0c0,0-0.1,0-0.1,0c-4.9,0.3-10.3,3.8-13.2,10.2
			c-5.5,12.1-1.5,33.6,15.8,32.7C220.2,387.3,221.5,365.4,214.7,354.1L214.7,354.1z"/>
		<path class="st8" d="M207.2,342.6c3.7-2.4,6.8-3.9,6.8-3.9c-4.8-1.4-8.4,0.7-10.9,3.4c4-6.2,10-13.5,10-13.5
			c-4.5,1-8.8,4.7-11.1,7.3c0-2.1-1.8-11-2.9-11.8c-0.9,1-1.7,10-1.5,12.1c-2.6-2.3-7.3-5.5-11.9-6c0,0,6.8,6.6,11.5,12.2
			c-2.8-2.5-6.6-4.1-11.2-2.2c0,0,3.2,1.1,7.2,3c-2-0.2-4.2,0.2-6.4,1.8c3.8,0,7.4,0.6,10.7,1.9c0.7,0.9,1.8,1.5,3,1.4
			s2.3-0.8,2.8-1.7c3.1-1.6,6.6-2.6,10.4-3.1C211.4,342.3,209.2,342.1,207.2,342.6L207.2,342.6z"/>
		<g>
			<defs>
				<path id="SVGID_00000146480154268744475260000017416130582829779612_" d="M214.7,354.1c-3.6-6-9.4-8.8-14.3-8.5c0,0-0.1,0-0.1,0
					c0,0-0.1,0-0.1,0c-4.9,0.3-10.3,3.8-13.2,10.2c-5.5,12.1-1.5,33.6,15.8,32.7C220.2,387.3,221.5,365.4,214.7,354.1L214.7,354.1z"
					/>
			</defs>
			<clipPath id="SVGID_00000085935466807857102800000004945444143785394053_">
				<use xlink:href="#SVGID_00000146480154268744475260000017416130582829779612_"  style="overflow:visible;"/>
			</clipPath>
			<g style="clip-path:url(#SVGID_00000085935466807857102800000004945444143785394053_);">
				<path class="st7" d="M222.8,363.5c3.3-3.2,6.5-6.7,9.5-10.4c3.7,0.4,7.4,0.5,11.1,0.3c-2.8,4.2-5.8,8.2-8.9,12
					C230.6,365.1,226.7,364.5,222.8,363.5L222.8,363.5z"/>
				<path class="st7" d="M212.6,372.6c3.5-2.8,6.9-5.8,10.1-9.1c3.9,0.9,7.8,1.5,11.6,1.8c-3.1,3.8-6.4,7.3-9.7,10.6
					C220.6,375.2,216.6,374,212.6,372.6L212.6,372.6z"/>
				<path class="st7" d="M191,386.4c3.7-1.8,7.4-3.9,11-6.2c4,2,8.1,3.7,12.2,5c-3.6,2.8-7.2,5.5-10.9,7.8
					C199.2,391.2,195.1,389,191,386.4z"/>
				<path class="st7" d="M202,380.3c3.6-2.3,7.2-4.9,10.6-7.7c4,1.4,8,2.6,12,3.4c-3.4,3.3-6.8,6.4-10.4,9.3
					C210.1,383.9,206.1,382.2,202,380.3z"/>
				<path class="st7" d="M199.6,354.6c3.4-2.2,6.8-4.7,10.1-7.4c3.8,1.6,7.6,2.8,11.3,3.8c-3.2,3.2-6.5,6.1-9.9,8.9
					C207.3,358.4,203.4,356.6,199.6,354.6L199.6,354.6z"/>
				<path class="st7" d="M189.2,360.5c3.5-1.7,7-3.7,10.4-6c3.8,2.1,7.7,3.9,11.5,5.4c-3.4,2.7-6.8,5.2-10.3,7.5
					C196.9,365.4,193,363.1,189.2,360.5L189.2,360.5z"/>
				<path class="st7" d="M168.2,368c3.5-0.7,7-1.7,10.5-3c3.7,3.1,7.5,5.9,11.4,8.5c-3.6,1.8-7.2,3.3-10.8,4.6
					C175.5,375,171.8,371.6,168.2,368L168.2,368z"/>
				<path class="st7" d="M178.7,365c3.5-1.2,7-2.7,10.5-4.5c3.8,2.6,7.7,4.9,11.6,6.9c-3.5,2.3-7.1,4.3-10.7,6.1
					C186.2,371,182.4,368.1,178.7,365z"/>
				<path class="st7" d="M190.1,373.5c-3.6,1.8-7.2,3.3-10.8,4.6c3.8,3.1,7.8,5.9,11.8,8.4c3.7-1.8,7.4-3.9,11-6.2
					C198,378.3,194,376,190.1,373.5L190.1,373.5z"/>
				<path class="st7" d="M200.8,367.4c-3.5,2.3-7.1,4.3-10.7,6.1c3.9,2.5,7.9,4.8,11.9,6.8c3.6-2.3,7.2-4.9,10.6-7.7
					C208.7,371.2,204.7,369.4,200.8,367.4z"/>
				<path class="st7" d="M221,351.1c-3.2,3.2-6.5,6.1-9.9,8.9c3.9,1.5,7.8,2.7,11.7,3.6c3.3-3.2,6.5-6.7,9.5-10.4
					C228.6,352.8,224.8,352,221,351.1L221,351.1z"/>
				<path class="st7" d="M211.1,359.9c-3.4,2.7-6.8,5.2-10.3,7.5c3.9,2,7.9,3.8,11.9,5.2c3.5-2.8,6.9-5.8,10.1-9.1
					C218.9,362.6,215,361.4,211.1,359.9z"/>
				<path class="st7" d="M168,354.9c-3.4,0.7-6.7,1.2-10,1.4c3.3,4.2,6.7,8.1,10.3,11.7c3.5-0.7,7-1.7,10.5-3
					C175,361.9,171.4,358.6,168,354.9L168,354.9z"/>
				<path class="st7" d="M178.2,352c-3.4,1.2-6.8,2.2-10.2,2.9c3.5,3.6,7,7,10.8,10.1c3.5-1.2,7-2.7,10.5-4.5
					C185.5,358,181.8,355.1,178.2,352z"/>
				<path class="st7" d="M198.5,341.7c-3.3,2.2-6.7,4.1-10.1,5.9c3.7,2.6,7.4,4.9,11.2,7c3.4-2.2,6.8-4.7,10.1-7.4
					C205.9,345.7,202.2,343.8,198.5,341.7L198.5,341.7z"/>
				<path class="st7" d="M188.4,347.6c-3.4,1.7-6.8,3.2-10.2,4.4c3.6,3.1,7.3,6,11.1,8.5c3.5-1.7,7-3.7,10.4-6
					C195.8,352.5,192.1,350.2,188.4,347.6L188.4,347.6z"/>
			</g>
		</g>
		<path class="st5" d="M258.8,311.5c-3.6-6-9.4-8.8-14.3-8.5c0,0-0.1,0-0.1,0c0,0-0.1,0-0.1,0c-4.9,0.3-10.3,3.8-13.2,10.2
			c-5.5,12.1-1.5,33.6,15.8,32.7C264.3,344.7,265.7,322.8,258.8,311.5L258.8,311.5z"/>
		<g>
			<defs>
				<path id="SVGID_00000166646041187485196490000011334126692459868041_" d="M258.8,311.5c-3.6-6-9.4-8.8-14.3-8.5c0,0-0.1,0-0.1,0
					c0,0-0.1,0-0.1,0c-4.9,0.3-10.3,3.8-13.2,10.2c-5.5,12.1-1.5,33.6,15.8,32.7C264.3,344.7,265.7,322.8,258.8,311.5L258.8,311.5z"
					/>
			</defs>
			<clipPath id="SVGID_00000067951597708896689610000010776907703430841763_">
				<use xlink:href="#SVGID_00000166646041187485196490000011334126692459868041_"  style="overflow:visible;"/>
			</clipPath>
			<g style="clip-path:url(#SVGID_00000067951597708896689610000010776907703430841763_);">
				<path class="st7" d="M266.9,320.9c3.3-3.2,6.5-6.7,9.5-10.4c3.7,0.4,7.4,0.5,11.1,0.3c-2.8,4.2-5.8,8.2-8.9,12
					C274.7,322.5,270.8,321.9,266.9,320.9L266.9,320.9z"/>
				<path class="st7" d="M256.8,330c3.5-2.8,6.9-5.8,10.1-9.1c3.9,0.9,7.8,1.5,11.6,1.8c-3.1,3.8-6.4,7.3-9.7,10.6
					C264.8,332.6,260.8,331.4,256.8,330L256.8,330z"/>
				<path class="st7" d="M235.2,343.8c3.7-1.8,7.4-3.9,11-6.2c4,2,8.1,3.7,12.2,5c-3.6,2.8-7.2,5.5-10.9,7.8
					C243.3,348.6,239.2,346.3,235.2,343.8L235.2,343.8z"/>
				<path class="st7" d="M246.1,337.6c3.6-2.3,7.2-4.9,10.6-7.7c4,1.4,8,2.6,12,3.4c-3.4,3.3-6.8,6.4-10.4,9.3
					C254.3,341.3,250.2,339.6,246.1,337.6z"/>
				<path class="st7" d="M243.7,312c3.4-2.2,6.8-4.7,10.1-7.4c3.8,1.6,7.6,2.8,11.3,3.8c-3.2,3.2-6.5,6.1-9.9,8.9
					C251.4,315.8,247.6,314,243.7,312L243.7,312z"/>
				<path class="st7" d="M233.4,317.9c3.5-1.7,7-3.7,10.4-6c3.8,2.1,7.7,3.9,11.5,5.4c-3.4,2.7-6.8,5.2-10.3,7.5
					C241,322.8,237.2,320.5,233.4,317.9L233.4,317.9z"/>
				<path class="st7" d="M212.3,325.4c3.5-0.7,7-1.7,10.5-3c3.7,3.1,7.5,5.9,11.4,8.5c-3.6,1.8-7.2,3.3-10.8,4.6
					C219.6,332.4,215.9,329,212.3,325.4z"/>
				<path class="st7" d="M222.8,322.4c3.5-1.2,7-2.7,10.5-4.5c3.8,2.6,7.7,4.9,11.6,6.9c-3.5,2.3-7.1,4.3-10.7,6.1
					C230.4,328.4,226.5,325.5,222.8,322.4z"/>
				<path class="st7" d="M234.2,330.9c-3.6,1.8-7.2,3.3-10.8,4.6c3.8,3.1,7.8,5.9,11.8,8.4c3.7-1.8,7.4-3.9,11-6.2
					C242.1,335.7,238.1,333.4,234.2,330.9L234.2,330.9z"/>
				<path class="st7" d="M244.9,324.8c-3.5,2.3-7.1,4.3-10.7,6.1c3.9,2.5,7.9,4.8,11.9,6.8c3.6-2.3,7.2-4.9,10.6-7.7
					C252.8,328.6,248.8,326.8,244.9,324.8L244.9,324.8z"/>
				<path class="st7" d="M265.1,308.4c-3.2,3.2-6.5,6.1-9.9,8.9c3.9,1.5,7.8,2.7,11.7,3.6c3.3-3.2,6.5-6.7,9.5-10.4
					C272.7,310.1,268.9,309.4,265.1,308.4L265.1,308.4z"/>
				<path class="st7" d="M255.3,317.3c-3.4,2.7-6.8,5.2-10.3,7.5c3.9,2,7.9,3.8,11.9,5.2c3.5-2.8,6.9-5.8,10.1-9.1
					C263,320,259.1,318.8,255.3,317.3z"/>
				<path class="st7" d="M212.1,312.3c-3.4,0.7-6.7,1.2-10,1.4c3.3,4.2,6.7,8.1,10.3,11.7c3.5-0.7,7-1.7,10.5-3
					C219.1,319.3,215.5,316,212.1,312.3L212.1,312.3z"/>
				<path class="st7" d="M222.3,309.4c-3.4,1.2-6.8,2.2-10.2,2.9c3.5,3.6,7,7,10.8,10.1c3.5-1.2,7-2.7,10.5-4.5
					C229.6,315.4,225.9,312.5,222.3,309.4z"/>
				<path class="st7" d="M242.6,299.1c-3.3,2.2-6.7,4.1-10.1,5.9c3.7,2.6,7.4,4.9,11.2,7c3.4-2.2,6.8-4.7,10.1-7.4
					C250,303.1,246.3,301.2,242.6,299.1L242.6,299.1z"/>
				<path class="st7" d="M232.5,305c-3.4,1.7-6.8,3.2-10.2,4.4c3.6,3.1,7.3,6,11.1,8.5c3.5-1.7,7-3.7,10.4-6
					C239.9,309.9,236.2,307.6,232.5,305L232.5,305z"/>
			</g>
		</g>
		<path class="st8" d="M251.3,300c3.7-2.4,6.8-3.9,6.8-3.9c-4.8-1.4-8.4,0.7-10.9,3.4c4-6.2,10-13.5,10-13.5
			c-4.5,1-8.8,4.7-11.1,7.3c0-2.1-1.8-11-2.9-11.8c-0.9,1-1.7,10-1.5,12.1c-2.6-2.3-7.3-5.5-11.9-6c0,0,6.8,6.6,11.5,12.2
			c-2.8-2.5-6.6-4.1-11.2-2.2c0,0,3.2,1.1,7.2,3c-2-0.2-4.2,0.2-6.4,1.8c3.8,0,7.4,0.6,10.7,1.9c0.7,0.9,1.8,1.5,3,1.4
			s2.3-0.8,2.8-1.7c3.1-1.6,6.6-2.6,10.4-3.1C255.5,299.7,253.3,299.5,251.3,300L251.3,300z"/>
		<path class="st5" d="M250,159.8c-3.6-6-9.4-8.8-14.3-8.5c0,0-0.1,0-0.1,0c0,0-0.1,0-0.1,0c-4.9,0.3-10.3,3.8-13.2,10.2
			c-5.5,12.1-1.5,33.6,15.8,32.7C255.4,193,256.8,171.1,250,159.8L250,159.8z"/>
		<path class="st8" d="M242.4,148.3c3.7-2.4,6.8-3.9,6.8-3.9c-4.8-1.4-8.4,0.7-10.9,3.4c4-6.2,10-13.5,10-13.5
			c-4.5,1-8.8,4.7-11.1,7.3c0-2.1-1.8-11-2.9-11.8c-0.9,1-1.7,10-1.5,12.1c-2.6-2.3-7.3-5.5-11.9-6c0,0,6.8,6.6,11.5,12.2
			c-2.8-2.5-6.6-4.1-11.2-2.2c0,0,3.2,1.1,7.2,3.1c-2-0.2-4.2,0.2-6.4,1.8c3.8,0,7.4,0.6,10.7,1.9c0.7,0.9,1.8,1.5,3,1.4
			s2.3-0.8,2.8-1.7c3.1-1.6,6.6-2.6,10.4-3.1C246.6,148,244.4,147.8,242.4,148.3L242.4,148.3z"/>
		<g>
			<defs>
				<path id="SVGID_00000129196860748708711070000003102271321130855565_" d="M250,159.8c-3.6-6-9.4-8.8-14.3-8.5c0,0-0.1,0-0.1,0
					c0,0-0.1,0-0.1,0c-4.9,0.3-10.3,3.8-13.2,10.2c-5.5,12.1-1.5,33.6,15.8,32.7C255.4,193,256.8,171.1,250,159.8L250,159.8z"/>
			</defs>
			<clipPath id="SVGID_00000025429483866514711310000003828140050169942179_">
				<use xlink:href="#SVGID_00000129196860748708711070000003102271321130855565_"  style="overflow:visible;"/>
			</clipPath>
			<g style="clip-path:url(#SVGID_00000025429483866514711310000003828140050169942179_);">
				<path class="st7" d="M258,169.2c3.3-3.2,6.5-6.7,9.5-10.4c3.7,0.4,7.4,0.5,11.1,0.3c-2.8,4.2-5.8,8.2-8.9,12
					C265.8,170.8,261.9,170.1,258,169.2L258,169.2z"/>
				<path class="st7" d="M247.9,178.3c3.5-2.8,6.9-5.8,10.1-9.1c3.9,0.9,7.8,1.5,11.6,1.8c-3.1,3.8-6.4,7.3-9.7,10.6
					C255.9,180.9,251.9,179.7,247.9,178.3L247.9,178.3z"/>
				<path class="st7" d="M226.3,192.1c3.7-1.8,7.4-3.9,11-6.2c4,2,8.1,3.7,12.2,5c-3.6,2.8-7.2,5.5-10.9,7.8
					C234.4,196.9,230.3,194.6,226.3,192.1L226.3,192.1z"/>
				<path class="st7" d="M237.2,185.9c3.6-2.3,7.2-4.9,10.6-7.7c4,1.4,8,2.6,12,3.4c-3.4,3.3-6.8,6.4-10.4,9.3
					C245.4,189.6,241.3,187.9,237.2,185.9z"/>
				<path class="st7" d="M234.9,160.3c3.4-2.2,6.8-4.7,10.1-7.4c3.8,1.6,7.6,2.8,11.3,3.8c-3.2,3.2-6.5,6.1-9.9,8.9
					C242.5,164.1,238.7,162.3,234.9,160.3L234.9,160.3z"/>
				<path class="st7" d="M224.5,166.2c3.5-1.7,7-3.7,10.4-6c3.8,2.1,7.7,3.9,11.5,5.4c-3.4,2.7-6.8,5.2-10.3,7.5
					C232.1,171.1,228.3,168.8,224.5,166.2L224.5,166.2z"/>
				<path class="st7" d="M203.4,173.7c3.5-0.7,7-1.7,10.5-3c3.7,3.1,7.5,5.9,11.4,8.5c-3.6,1.8-7.2,3.3-10.8,4.6
					C210.7,180.7,207,177.3,203.4,173.7z"/>
				<path class="st7" d="M213.9,170.7c3.5-1.2,7-2.7,10.5-4.5c3.8,2.6,7.7,4.9,11.6,6.9c-3.5,2.3-7.1,4.3-10.7,6.1
					C221.5,176.6,217.7,173.8,213.9,170.7z"/>
				<path class="st7" d="M225.3,179.2c-3.6,1.8-7.2,3.3-10.8,4.6c3.8,3.1,7.8,5.9,11.8,8.4c3.7-1.8,7.4-3.9,11-6.2
					C233.2,184,229.3,181.7,225.3,179.2z"/>
				<path class="st7" d="M236,173.1c-3.5,2.3-7.1,4.3-10.7,6.1c3.9,2.5,7.9,4.8,11.9,6.8c3.6-2.3,7.2-4.9,10.6-7.7
					C243.9,176.9,239.9,175.1,236,173.1L236,173.1z"/>
				<path class="st7" d="M256.2,156.7c-3.2,3.2-6.5,6.1-9.9,8.9c3.9,1.5,7.8,2.7,11.7,3.6c3.3-3.2,6.5-6.7,9.5-10.4
					C263.8,158.4,260,157.7,256.2,156.7L256.2,156.7z"/>
				<path class="st7" d="M246.4,165.6c-3.4,2.7-6.8,5.2-10.3,7.5c3.9,2,7.9,3.8,11.9,5.2c3.5-2.8,6.9-5.8,10.1-9.1
					C254.1,168.3,250.2,167.1,246.4,165.6L246.4,165.6z"/>
				<path class="st7" d="M203.2,160.6c-3.4,0.7-6.7,1.2-10,1.4c3.3,4.2,6.7,8.1,10.3,11.7c3.5-0.7,7-1.7,10.5-3
					C210.2,167.6,206.6,164.2,203.2,160.6L203.2,160.6z"/>
				<path class="st7" d="M213.4,157.7c-3.4,1.2-6.8,2.2-10.2,2.9c3.5,3.6,7,7,10.8,10.1c3.5-1.2,7-2.7,10.5-4.5
					C220.7,163.6,217,160.8,213.4,157.7L213.4,157.7z"/>
				<path class="st7" d="M233.7,147.4c-3.3,2.2-6.7,4.1-10.1,5.9c3.7,2.6,7.4,4.9,11.2,7c3.4-2.2,6.8-4.7,10.1-7.4
					C241.2,151.3,237.4,149.5,233.7,147.4L233.7,147.4z"/>
				<path class="st7" d="M223.6,153.3c-3.4,1.7-6.8,3.2-10.2,4.4c3.6,3.1,7.3,6,11.1,8.5c3.5-1.7,7-3.7,10.4-6
					C231.1,158.2,227.3,155.9,223.6,153.3L223.6,153.3z"/>
			</g>
		</g>
		<path class="st5" d="M133.4,268.2c3.6-6,9.4-8.8,14.3-8.5c0,0,0.1,0,0.1,0c0,0,0.1,0,0.1,0c4.9,0.3,10.3,3.8,13.2,10.2
			c5.5,12.1,1.5,33.6-15.8,32.7C128,301.4,126.6,279.6,133.4,268.2L133.4,268.2z"/>
		<g>
			<defs>
				<path id="SVGID_00000178901661544106006950000014091961815383551364_" d="M133.4,268.2c3.6-6,9.4-8.8,14.3-8.5c0,0,0.1,0,0.1,0
					c0,0,0.1,0,0.1,0c4.9,0.3,10.3,3.8,13.2,10.2c5.5,12.1,1.5,33.6-15.8,32.7C128,301.4,126.6,279.6,133.4,268.2L133.4,268.2z"/>
			</defs>
			<clipPath id="SVGID_00000017496761083339203220000010116042174536754081_">
				<use xlink:href="#SVGID_00000178901661544106006950000014091961815383551364_"  style="overflow:visible;"/>
			</clipPath>
			<g style="clip-path:url(#SVGID_00000017496761083339203220000010116042174536754081_);">
				<path class="st7" d="M124.4,277.8c-3.3-3.2-6.5-6.6-9.6-10.3c-3.7,0.4-7.4,0.5-11,0.2c2.9,4.1,5.9,8.1,9,11.8
					C116.7,279.3,120.5,278.7,124.4,277.8L124.4,277.8z"/>
				<path class="st7" d="M134.6,286.8c-3.5-2.8-6.9-5.8-10.2-9c-3.9,0.9-7.8,1.5-11.6,1.8c3.1,3.7,6.4,7.3,9.8,10.6
					C126.6,289.3,130.6,288.2,134.6,286.8z"/>
				<path class="st7" d="M156.3,300.6c-3.7-1.8-7.4-3.9-11-6.2c-4,2-8.1,3.6-12.2,5c3.6,2.9,7.2,5.5,10.9,7.9
					C148.1,305.3,152.2,303.1,156.3,300.6L156.3,300.6z"/>
				<path class="st7" d="M145.3,294.4c-3.6-2.3-7.2-4.9-10.7-7.6c-4,1.4-8,2.6-12,3.4c3.4,3.3,6.9,6.4,10.4,9.2
					C137.1,298,141.2,296.4,145.3,294.4L145.3,294.4z"/>
				<path class="st7" d="M147.5,268.7c-3.4-2.2-6.8-4.6-10.1-7.2c-3.8,1.6-7.6,2.9-11.3,3.9c3.2,3.1,6.5,6,9.9,8.7
					C139.9,272.6,143.7,270.8,147.5,268.7z"/>
				<path class="st7" d="M157.9,274.6c-3.5-1.7-7-3.7-10.4-5.9c-3.8,2.1-7.6,3.9-11.5,5.4c3.4,2.7,6.9,5.2,10.4,7.4
					C150.3,279.6,154.2,277.2,157.9,274.6L157.9,274.6z"/>
				<path class="st7" d="M179.1,282.1c-3.5-0.8-7-1.8-10.6-3c-3.7,3.1-7.5,6-11.4,8.5c3.6,1.8,7.2,3.3,10.9,4.6
					C171.8,289.2,175.5,285.8,179.1,282.1L179.1,282.1z"/>
				<path class="st7" d="M168.5,279.1c-3.5-1.3-7.1-2.8-10.6-4.5c-3.8,2.6-7.6,4.9-11.5,7c3.5,2.3,7.1,4.3,10.7,6.1
					C161,285.1,164.8,282.2,168.5,279.1z"/>
				<path class="st7" d="M157.1,287.6c3.6,1.8,7.2,3.3,10.9,4.6c-3.8,3.1-7.8,5.9-11.8,8.4c-3.7-1.8-7.4-3.9-11-6.2
					C149.3,292.5,153.2,290.2,157.1,287.6L157.1,287.6z"/>
				<path class="st7" d="M146.4,281.6c3.5,2.3,7.1,4.3,10.7,6.1c-3.9,2.6-7.9,4.8-11.9,6.8c-3.6-2.3-7.2-4.9-10.7-7.6
					C138.5,285.3,142.5,283.6,146.4,281.6L146.4,281.6z"/>
				<path class="st7" d="M126.1,265.4c3.2,3.1,6.5,6,9.9,8.7c-3.9,1.5-7.8,2.7-11.7,3.6c-3.3-3.2-6.5-6.6-9.6-10.3
					C118.5,267.1,122.3,266.4,126.1,265.4L126.1,265.4z"/>
				<path class="st7" d="M136,274.1c3.4,2.7,6.9,5.2,10.4,7.4c-3.9,2-7.9,3.8-11.9,5.2c-3.5-2.8-6.9-5.8-10.2-9
					C128.3,276.9,132.2,275.7,136,274.1L136,274.1z"/>
				<path class="st7" d="M179.2,268.9c3.4,0.7,6.8,1.2,10.1,1.4c-3.2,4.2-6.6,8.1-10.2,11.8c-3.5-0.8-7-1.8-10.6-3
					C172.2,276,175.7,272.6,179.2,268.9z"/>
				<path class="st7" d="M168.9,265.9c3.4,1.2,6.8,2.2,10.2,2.9c-3.4,3.7-7,7.1-10.7,10.2c-3.5-1.3-7.1-2.8-10.6-4.5
					C161.7,272,165.4,269.1,168.9,265.9L168.9,265.9z"/>
				<path class="st7" d="M148.6,255.8c3.3,2.1,6.7,4.1,10.1,5.7c-3.6,2.7-7.4,5.1-11.2,7.2c-3.4-2.2-6.8-4.6-10.1-7.2
					C141.2,259.9,144.9,258,148.6,255.8L148.6,255.8z"/>
				<path class="st7" d="M158.7,261.6c3.4,1.7,6.8,3.1,10.2,4.4c-3.6,3.2-7.2,6.1-11,8.7c-3.5-1.7-7-3.7-10.4-5.9
					C151.3,266.6,155,264.2,158.7,261.6L158.7,261.6z"/>
			</g>
		</g>
		<path class="st8" d="M141,256.8c-3.7-2.4-6.8-3.9-6.8-3.9c4.8-1.4,8.4,0.7,10.9,3.4c-4-6.2-10-13.5-10-13.5
			c4.5,1,8.8,4.7,11.1,7.3c0-2.1,1.8-11,2.9-11.8c0.9,1,1.7,10,1.5,12.1c2.6-2.3,7.3-5.5,11.9-6c0,0-6.8,6.6-11.5,12.2
			c2.8-2.5,6.6-4.1,11.2-2.2c0,0-3.2,1.1-7.2,3.1c2-0.2,4.2,0.2,6.4,1.8c-3.8,0-7.4,0.6-10.7,1.9c-0.7,0.9-1.8,1.5-3,1.4
			s-2.3-0.8-2.8-1.7c-3.1-1.6-6.6-2.6-10.4-3.1C136.8,256.4,139,256.3,141,256.8L141,256.8z"/>
		<path class="st5" d="M89.3,238.6c3.6-6,9.4-8.8,14.3-8.5c0,0,0.1,0,0.1,0c0,0,0.1,0,0.1,0c4.9,0.3,10.3,3.8,13.2,10.2
			c5.5,12.1,1.5,33.6-15.8,32.7C83.8,271.8,82.5,250,89.3,238.6L89.3,238.6z"/>
		<g>
			<defs>
				<path id="SVGID_00000067236460738256212680000015889329878228719550_" d="M89.3,238.6c3.6-6,9.4-8.8,14.3-8.5c0,0,0.1,0,0.1,0
					c0,0,0.1,0,0.1,0c4.9,0.3,10.3,3.8,13.2,10.2c5.5,12.1,1.5,33.6-15.8,32.7C83.8,271.8,82.5,250,89.3,238.6L89.3,238.6z"/>
			</defs>
			<clipPath id="SVGID_00000013188098878833483290000013380279932713951921_">
				<use xlink:href="#SVGID_00000067236460738256212680000015889329878228719550_"  style="overflow:visible;"/>
			</clipPath>
			<g style="clip-path:url(#SVGID_00000013188098878833483290000013380279932713951921_);">
				<path class="st7" d="M80.3,248.2c-3.3-3.2-6.5-6.6-9.6-10.3c-3.7,0.4-7.4,0.5-11,0.2c2.9,4.1,5.9,8.1,9,11.8
					C72.5,249.7,76.4,249.1,80.3,248.2L80.3,248.2z"/>
				<path class="st7" d="M90.5,257.2c-3.5-2.8-6.9-5.8-10.2-9c-3.9,0.9-7.8,1.5-11.6,1.8c3.1,3.7,6.4,7.3,9.8,10.6
					C82.5,259.7,86.5,258.6,90.5,257.2L90.5,257.2z"/>
				<path class="st7" d="M112.1,271c-3.7-1.8-7.4-3.9-11-6.2c-4,2-8.1,3.6-12.2,5c3.6,2.9,7.2,5.5,10.9,7.9
					C104,275.7,108.1,273.5,112.1,271L112.1,271z"/>
				<path class="st7" d="M101.1,264.8c-3.6-2.3-7.2-4.9-10.7-7.6c-4,1.4-8,2.6-12,3.4c3.4,3.3,6.9,6.4,10.4,9.2
					C93,268.4,97.1,266.8,101.1,264.8L101.1,264.8z"/>
				<path class="st7" d="M103.4,239.1c-3.4-2.2-6.8-4.6-10.1-7.2c-3.8,1.6-7.6,2.9-11.3,3.9c3.2,3.1,6.5,6,9.9,8.7
					C95.8,243,99.6,241.2,103.4,239.1z"/>
				<path class="st7" d="M113.8,245c-3.5-1.7-7-3.7-10.4-5.9c-3.8,2.1-7.6,3.9-11.5,5.4c3.4,2.7,6.9,5.2,10.4,7.4
					C106.2,249.9,110,247.6,113.8,245L113.8,245z"/>
				<path class="st7" d="M134.9,252.5c-3.5-0.8-7-1.8-10.6-3c-3.7,3.1-7.5,6-11.4,8.5c3.6,1.8,7.2,3.3,10.9,4.6
					C127.7,259.6,131.4,256.2,134.9,252.5L134.9,252.5z"/>
				<path class="st7" d="M124.4,249.5c-3.5-1.3-7.1-2.8-10.6-4.5c-3.8,2.6-7.6,4.9-11.5,7c3.5,2.3,7.1,4.3,10.7,6.1
					C116.9,255.5,120.7,252.6,124.4,249.5z"/>
				<path class="st7" d="M113,258c3.6,1.8,7.2,3.3,10.9,4.6c-3.8,3.1-7.8,5.9-11.8,8.4c-3.7-1.8-7.4-3.9-11-6.2
					C105.1,262.8,109.1,260.6,113,258L113,258z"/>
				<path class="st7" d="M102.3,252c3.5,2.3,7.1,4.3,10.7,6.1c-3.9,2.6-7.9,4.8-11.9,6.8c-3.6-2.3-7.2-4.9-10.7-7.6
					C94.4,255.7,98.4,254,102.3,252L102.3,252z"/>
				<path class="st7" d="M82,235.8c3.2,3.1,6.5,6,9.9,8.7c-3.9,1.5-7.8,2.7-11.7,3.6c-3.3-3.2-6.5-6.6-9.6-10.3
					C74.4,237.5,78.2,236.8,82,235.8z"/>
				<path class="st7" d="M91.9,244.5c3.4,2.7,6.9,5.2,10.4,7.4c-3.9,2-7.9,3.8-11.9,5.2c-3.5-2.8-6.9-5.8-10.2-9
					C84.1,247.3,88,246.1,91.9,244.5z"/>
				<path class="st7" d="M135,239.3c3.4,0.7,6.8,1.2,10.1,1.4c-3.2,4.2-6.6,8.1-10.2,11.8c-3.5-0.8-7-1.8-10.6-3
					C128.1,246.4,131.6,242.9,135,239.3z"/>
				<path class="st7" d="M124.8,236.3c3.4,1.2,6.8,2.2,10.2,2.9c-3.4,3.7-7,7.1-10.7,10.2c-3.5-1.3-7.1-2.8-10.6-4.5
					C117.6,242.4,121.2,239.5,124.8,236.3z"/>
				<path class="st7" d="M104.5,226.2c3.3,2.1,6.7,4.1,10.1,5.7c-3.6,2.7-7.4,5.1-11.2,7.2c-3.4-2.2-6.8-4.6-10.1-7.2
					C97.1,230.3,100.8,228.4,104.5,226.2z"/>
				<path class="st7" d="M114.6,232c3.4,1.7,6.8,3.1,10.2,4.4c-3.6,3.2-7.2,6.1-11,8.7c-3.5-1.7-7-3.7-10.4-5.9
					C107.2,237,110.9,234.6,114.6,232L114.6,232z"/>
			</g>
		</g>
		<path class="st8" d="M96.8,227.1c-3.7-2.4-6.8-3.9-6.8-3.9c4.8-1.4,8.4,0.7,10.9,3.4c-4-6.2-10-13.5-10-13.5
			c4.5,1,8.8,4.7,11.1,7.3c0-2.1,1.8-11,2.9-11.8c0.9,1,1.7,10,1.5,12.1c2.6-2.3,7.3-5.5,11.9-6c0,0-6.8,6.6-11.5,12.2
			c2.8-2.5,6.6-4.1,11.2-2.2c0,0-3.2,1.1-7.2,3.1c2-0.2,4.2,0.2,6.4,1.8c-3.8,0-7.4,0.6-10.7,1.9c-0.7,0.9-1.8,1.5-3,1.4
			s-2.3-0.8-2.8-1.7c-3.1-1.6-6.6-2.6-10.4-3.1C92.6,226.8,94.9,226.7,96.8,227.1L96.8,227.1z"/>
		<path class="st5" d="M129,354.1c3.6-6,9.4-8.8,14.3-8.5c0,0,0.1,0,0.1,0c0,0,0.1,0,0.1,0c4.9,0.3,10.3,3.8,13.2,10.2
			c5.5,12.1,1.5,33.6-15.8,32.7C123.5,387.3,122.1,365.4,129,354.1L129,354.1z"/>
		<path class="st8" d="M136.5,342.6c-3.7-2.4-6.8-3.9-6.8-3.9c4.8-1.4,8.4,0.7,10.9,3.4c-4-6.2-10-13.5-10-13.5
			c4.5,1,8.8,4.7,11.1,7.3c0-2.1,1.8-11,2.9-11.8c0.9,1,1.7,10,1.5,12.1c2.6-2.3,7.3-5.5,11.9-6c0,0-6.8,6.6-11.5,12.2
			c2.8-2.5,6.6-4.1,11.2-2.2c0,0-3.2,1.1-7.2,3c2-0.2,4.2,0.2,6.4,1.8c-3.8,0-7.4,0.6-10.7,1.9c-0.7,0.9-1.8,1.5-3,1.4
			s-2.3-0.8-2.8-1.7c-3.1-1.6-6.6-2.6-10.4-3.1C132.3,342.3,134.5,342.1,136.5,342.6L136.5,342.6z"/>
		<g>
			<defs>
				<path id="SVGID_00000026153188271174602270000009754798177431220630_" d="M129,354.1c3.6-6,9.4-8.8,14.3-8.5c0,0,0.1,0,0.1,0
					c0,0,0.1,0,0.1,0c4.9,0.3,10.3,3.8,13.2,10.2c5.5,12.1,1.5,33.6-15.8,32.7C123.5,387.3,122.1,365.4,129,354.1L129,354.1z"/>
			</defs>
			<clipPath id="SVGID_00000049905336477169812730000007331915545292723900_">
				<use xlink:href="#SVGID_00000026153188271174602270000009754798177431220630_"  style="overflow:visible;"/>
			</clipPath>
			<g style="clip-path:url(#SVGID_00000049905336477169812730000007331915545292723900_);">
				<path class="st7" d="M121,363.6c-3.3-3.2-6.5-6.6-9.6-10.3c-3.7,0.4-7.4,0.5-11,0.2c2.9,4.1,5.9,8.1,9,11.8
					C113.2,365.1,117.1,364.5,121,363.6L121,363.6z"/>
				<path class="st7" d="M131.1,372.6c-3.5-2.8-6.9-5.8-10.2-9c-3.9,0.9-7.8,1.5-11.6,1.8c3.1,3.7,6.4,7.3,9.8,10.6
					C123.2,375.2,127.2,374.1,131.1,372.6z"/>
				<path class="st7" d="M152.8,386.5c-3.7-1.8-7.4-3.9-11-6.2c-4,2-8.1,3.6-12.2,5c3.6,2.9,7.2,5.5,10.9,7.9
					C144.7,391.2,148.8,389,152.8,386.5L152.8,386.5z"/>
				<path class="st7" d="M141.8,380.3c-3.6-2.3-7.2-4.9-10.7-7.6c-4,1.4-8,2.6-12,3.4c3.4,3.3,6.9,6.4,10.4,9.2
					C133.7,383.9,137.8,382.2,141.8,380.3L141.8,380.3z"/>
				<path class="st7" d="M144.1,354.6c-3.4-2.2-6.8-4.6-10.1-7.2c-3.8,1.6-7.6,2.9-11.3,3.9c3.2,3.1,6.5,6,9.9,8.7
					C136.4,358.5,140.3,356.7,144.1,354.6z"/>
				<path class="st7" d="M154.5,360.5c-3.5-1.7-7-3.7-10.4-5.9c-3.8,2.1-7.6,3.9-11.5,5.4c3.4,2.7,6.9,5.2,10.4,7.4
					C146.9,365.4,150.7,363.1,154.5,360.5L154.5,360.5z"/>
				<path class="st7" d="M175.6,368c-3.5-0.8-7-1.8-10.6-3c-3.7,3.1-7.5,6-11.4,8.5c3.6,1.8,7.2,3.3,10.9,4.6
					C168.4,375,172.1,371.6,175.6,368L175.6,368z"/>
				<path class="st7" d="M165,365c-3.5-1.3-7.1-2.8-10.6-4.5c-3.8,2.6-7.6,4.9-11.5,7c3.5,2.3,7.1,4.3,10.7,6.1
					C157.5,370.9,161.4,368.1,165,365z"/>
				<path class="st7" d="M153.7,373.5c3.6,1.8,7.2,3.3,10.9,4.6c-3.8,3.1-7.8,5.9-11.8,8.4c-3.7-1.8-7.4-3.9-11-6.2
					C145.8,378.3,149.8,376,153.7,373.5L153.7,373.5z"/>
				<path class="st7" d="M143,367.4c3.5,2.3,7.1,4.3,10.7,6.1c-3.9,2.6-7.9,4.8-11.9,6.8c-3.6-2.3-7.2-4.9-10.7-7.6
					C135.1,371.2,139.1,369.5,143,367.4L143,367.4z"/>
				<path class="st7" d="M122.7,351.3c3.2,3.1,6.5,6,9.9,8.7c-3.9,1.5-7.8,2.7-11.7,3.6c-3.3-3.2-6.5-6.6-9.6-10.3
					C115.1,353,118.9,352.3,122.7,351.3z"/>
				<path class="st7" d="M132.6,360c3.4,2.7,6.9,5.2,10.4,7.4c-3.9,2-7.9,3.8-11.9,5.2c-3.5-2.8-6.9-5.8-10.2-9
					C124.8,362.7,128.7,361.5,132.6,360L132.6,360z"/>
				<path class="st7" d="M175.7,354.7c3.4,0.7,6.8,1.2,10.1,1.4c-3.2,4.2-6.6,8.1-10.2,11.8c-3.5-0.8-7-1.8-10.6-3
					C168.7,361.8,172.3,358.4,175.7,354.7z"/>
				<path class="st7" d="M165.5,351.8c3.4,1.2,6.8,2.2,10.2,2.9c-3.4,3.7-7,7.1-10.7,10.2c-3.5-1.3-7.1-2.8-10.6-4.5
					C158.2,357.9,161.9,355,165.5,351.8L165.5,351.8z"/>
				<path class="st7" d="M145.1,341.7c3.3,2.1,6.7,4,10.1,5.7c-3.6,2.7-7.4,5.1-11.2,7.2c-3.4-2.2-6.8-4.6-10.1-7.2
					C137.7,345.7,141.5,343.8,145.1,341.7z"/>
				<path class="st7" d="M155.2,347.4c3.4,1.7,6.8,3.1,10.2,4.4c-3.6,3.2-7.2,6.1-11,8.7c-3.5-1.7-7-3.7-10.4-5.9
					C147.9,352.5,151.6,350.1,155.2,347.4L155.2,347.4z"/>
			</g>
		</g>
		<path class="st5" d="M84.8,311.5c3.6-6,9.4-8.8,14.3-8.5c0,0,0.1,0,0.1,0c0,0,0.1,0,0.1,0c4.9,0.3,10.3,3.8,13.2,10.2
			c5.5,12.1,1.5,33.6-15.8,32.7C79.4,344.7,78,322.8,84.8,311.5L84.8,311.5z"/>
		<g>
			<defs>
				<path id="SVGID_00000097495298058825385250000015125678323894304655_" d="M84.8,311.5c3.6-6,9.4-8.8,14.3-8.5c0,0,0.1,0,0.1,0
					c0,0,0.1,0,0.1,0c4.9,0.3,10.3,3.8,13.2,10.2c5.5,12.1,1.5,33.6-15.8,32.7C79.4,344.7,78,322.8,84.8,311.5L84.8,311.5z"/>
			</defs>
			<clipPath id="SVGID_00000169560119695598300400000011372763774244929982_">
				<use xlink:href="#SVGID_00000097495298058825385250000015125678323894304655_"  style="overflow:visible;"/>
			</clipPath>
			<g style="clip-path:url(#SVGID_00000169560119695598300400000011372763774244929982_);">
				<path class="st7" d="M76.8,321c-3.3-3.2-6.5-6.6-9.6-10.3c-3.7,0.4-7.4,0.5-11,0.2c2.9,4.1,5.9,8.1,9,11.8
					C69.1,322.5,73,321.9,76.8,321L76.8,321z"/>
				<path class="st7" d="M87,330c-3.5-2.8-6.9-5.8-10.2-9c-3.9,0.9-7.8,1.5-11.6,1.8c3.1,3.7,6.4,7.3,9.8,10.6
					C79,332.6,83,331.4,87,330z"/>
				<path class="st7" d="M108.7,343.9c-3.7-1.8-7.4-3.9-11-6.2c-4,2-8.1,3.6-12.2,5c3.6,2.9,7.2,5.5,10.9,7.9
					C100.6,348.6,104.7,346.4,108.7,343.9z"/>
				<path class="st7" d="M97.7,337.6c-3.6-2.3-7.2-4.9-10.7-7.6c-4,1.4-8,2.6-12,3.4c3.4,3.3,6.9,6.4,10.4,9.2
					C89.6,341.3,93.7,339.6,97.7,337.6L97.7,337.6z"/>
				<path class="st7" d="M100,312c-3.4-2.2-6.8-4.6-10.1-7.2c-3.8,1.6-7.6,2.9-11.3,3.9c3.2,3.1,6.5,6,9.9,8.7
					C92.3,315.9,96.2,314.1,100,312z"/>
				<path class="st7" d="M110.4,317.9c-3.5-1.7-7-3.7-10.4-5.9c-3.8,2.1-7.6,3.9-11.5,5.4c3.4,2.7,6.9,5.2,10.4,7.4
					C102.7,322.8,106.6,320.5,110.4,317.9L110.4,317.9z"/>
				<path class="st7" d="M131.5,325.4c-3.5-0.8-7-1.8-10.6-3c-3.7,3.1-7.5,6-11.4,8.5c3.6,1.8,7.2,3.3,10.9,4.6
					C124.2,332.4,127.9,329,131.5,325.4L131.5,325.4z"/>
				<path class="st7" d="M120.9,322.3c-3.5-1.3-7.1-2.8-10.6-4.5c-3.8,2.6-7.6,4.9-11.5,7c3.5,2.3,7.1,4.3,10.7,6.1
					C113.4,328.3,117.2,325.5,120.9,322.3z"/>
				<path class="st7" d="M109.6,330.9c3.6,1.8,7.2,3.3,10.9,4.6c-3.8,3.1-7.8,5.9-11.8,8.4c-3.7-1.8-7.4-3.9-11-6.2
					C101.7,335.7,105.7,333.4,109.6,330.9L109.6,330.9z"/>
				<path class="st7" d="M98.9,324.8c3.5,2.3,7.1,4.3,10.7,6.1c-3.9,2.6-7.9,4.8-11.9,6.8c-3.6-2.3-7.2-4.9-10.7-7.6
					C91,328.6,94.9,326.9,98.9,324.8L98.9,324.8z"/>
				<path class="st7" d="M78.5,308.6c3.2,3.1,6.5,6,9.9,8.7c-3.9,1.5-7.8,2.7-11.7,3.6c-3.3-3.2-6.5-6.6-9.6-10.3
					C71,310.4,74.8,309.7,78.5,308.6z"/>
				<path class="st7" d="M88.5,317.4c3.4,2.7,6.9,5.2,10.4,7.4c-3.9,2-7.9,3.8-11.9,5.2c-3.5-2.8-6.9-5.8-10.2-9
					C80.7,320.1,84.6,318.9,88.5,317.4z"/>
				<path class="st7" d="M131.6,312.1c3.4,0.7,6.8,1.2,10.1,1.4c-3.2,4.2-6.6,8.1-10.2,11.8c-3.5-0.8-7-1.8-10.6-3
					C124.6,319.2,128.2,315.8,131.6,312.1z"/>
				<path class="st7" d="M121.4,309.2c3.4,1.2,6.8,2.2,10.2,2.9c-3.4,3.7-7,7.1-10.7,10.2c-3.5-1.3-7.1-2.8-10.6-4.5
					C114.1,315.2,117.8,312.3,121.4,309.2z"/>
				<path class="st7" d="M101,299.1c3.3,2.1,6.7,4,10.1,5.7c-3.6,2.7-7.4,5.1-11.2,7.2c-3.4-2.2-6.8-4.6-10.1-7.2
					C93.6,303.1,97.3,301.2,101,299.1z"/>
				<path class="st7" d="M111.1,304.8c3.4,1.7,6.8,3.1,10.2,4.4c-3.6,3.2-7.2,6.1-11,8.7c-3.5-1.7-7-3.7-10.4-5.9
					C103.7,309.9,107.5,307.5,111.1,304.8L111.1,304.8z"/>
			</g>
		</g>
		<path class="st8" d="M92.4,300c-3.7-2.4-6.8-3.9-6.8-3.9c4.8-1.4,8.4,0.7,10.9,3.4c-4-6.2-10-13.5-10-13.5c4.5,1,8.8,4.7,11.1,7.3
			c0-2.1,1.8-11,2.9-11.8c0.9,1,1.7,10,1.5,12.1c2.6-2.3,7.3-5.5,11.9-6c0,0-6.8,6.6-11.5,12.2c2.8-2.5,6.6-4.1,11.2-2.2
			c0,0-3.2,1.1-7.2,3c2-0.2,4.2,0.2,6.4,1.8c-3.8,0-7.4,0.6-10.7,1.9c-0.7,0.9-1.8,1.5-3,1.4s-2.3-0.8-2.8-1.7
			c-3.1-1.6-6.6-2.6-10.4-3.1C88.2,299.7,90.4,299.5,92.4,300L92.4,300z"/>
		<path class="st5" d="M93.7,159.8c3.6-6,9.4-8.8,14.3-8.5c0,0,0.1,0,0.1,0c0,0,0.1,0,0.1,0c4.9,0.3,10.3,3.8,13.2,10.2
			c5.5,12.1,1.5,33.6-15.8,32.7C88.3,193,86.9,171.1,93.7,159.8L93.7,159.8z"/>
		<path class="st8" d="M101.3,148.3c-3.7-2.4-6.8-3.9-6.8-3.9c4.8-1.4,8.4,0.7,10.9,3.4c-4-6.2-10-13.5-10-13.5
			c4.5,1,8.8,4.7,11.1,7.3c0-2.1,1.8-11,2.9-11.8c0.9,1,1.7,10,1.5,12.1c2.6-2.3,7.3-5.5,11.9-6c0,0-6.8,6.6-11.5,12.2
			c2.8-2.5,6.6-4.1,11.2-2.2c0,0-3.2,1.1-7.2,3.1c2-0.2,4.2,0.2,6.4,1.8c-3.8,0-7.4,0.6-10.7,1.9c-0.7,0.9-1.8,1.5-3,1.4
			s-2.3-0.8-2.8-1.7c-3.1-1.6-6.6-2.6-10.4-3.1C97.1,148,99.3,147.8,101.3,148.3L101.3,148.3z"/>
		<g>
			<defs>
				<path id="SVGID_00000060720103510336329910000001974072705869623725_" d="M93.7,159.8c3.6-6,9.4-8.8,14.3-8.5c0,0,0.1,0,0.1,0
					c0,0,0.1,0,0.1,0c4.9,0.3,10.3,3.8,13.2,10.2c5.5,12.1,1.5,33.6-15.8,32.7C88.3,193,86.9,171.1,93.7,159.8L93.7,159.8z"/>
			</defs>
			<clipPath id="SVGID_00000155103978666321319240000016211420049542217919_">
				<use xlink:href="#SVGID_00000060720103510336329910000001974072705869623725_"  style="overflow:visible;"/>
			</clipPath>
			<g style="clip-path:url(#SVGID_00000155103978666321319240000016211420049542217919_);">
				<path class="st7" d="M85.7,169.3c-3.3-3.2-6.5-6.6-9.6-10.3c-3.7,0.4-7.4,0.5-11,0.2c2.9,4.1,5.9,8.1,9,11.8
					C78,170.8,81.8,170.2,85.7,169.3L85.7,169.3z"/>
				<path class="st7" d="M95.9,178.3c-3.5-2.8-6.9-5.8-10.2-9c-3.9,0.9-7.8,1.5-11.6,1.8c3.1,3.7,6.4,7.3,9.8,10.6
					C87.9,180.9,91.9,179.7,95.9,178.3z"/>
				<path class="st7" d="M117.6,192.2c-3.7-1.8-7.4-3.9-11-6.2c-4,2-8.1,3.6-12.2,5c3.6,2.9,7.2,5.5,10.9,7.9
					C109.5,196.9,113.6,194.7,117.6,192.2z"/>
				<path class="st7" d="M106.6,185.9c-3.6-2.3-7.2-4.9-10.7-7.6c-4,1.4-8,2.6-12,3.4c3.4,3.3,6.9,6.4,10.4,9.2
					C98.5,189.6,102.5,187.9,106.6,185.9L106.6,185.9z"/>
				<path class="st7" d="M108.8,160.3c-3.4-2.2-6.8-4.6-10.1-7.2c-3.8,1.6-7.6,2.9-11.3,3.9c3.2,3.1,6.5,6,9.9,8.7
					C101.2,164.2,105,162.4,108.8,160.3z"/>
				<path class="st7" d="M119.2,166.2c-3.5-1.7-7-3.7-10.4-5.9c-3.8,2.1-7.6,3.9-11.5,5.4c3.4,2.7,6.9,5.2,10.4,7.4
					C111.6,171.1,115.5,168.8,119.2,166.2L119.2,166.2z"/>
				<path class="st7" d="M140.4,173.7c-3.5-0.8-7-1.8-10.6-3c-3.7,3.1-7.5,6-11.4,8.5c3.6,1.8,7.2,3.3,10.9,4.6
					C133.1,180.7,136.8,177.3,140.4,173.7L140.4,173.7z"/>
				<path class="st7" d="M129.8,170.6c-3.5-1.3-7.1-2.8-10.6-4.5c-3.8,2.6-7.6,4.9-11.5,7c3.5,2.3,7.1,4.3,10.7,6.1
					C122.3,176.6,126.1,173.8,129.8,170.6z"/>
				<path class="st7" d="M118.4,179.2c3.6,1.8,7.2,3.3,10.9,4.6c-3.8,3.1-7.8,5.9-11.8,8.4c-3.7-1.8-7.4-3.9-11-6.2
					C110.6,184,114.6,181.7,118.4,179.2L118.4,179.2z"/>
				<path class="st7" d="M107.7,173.1c3.5,2.3,7.1,4.3,10.7,6.1c-3.9,2.6-7.9,4.8-11.9,6.8c-3.6-2.3-7.2-4.9-10.7-7.6
					C99.9,176.9,103.8,175.1,107.7,173.1L107.7,173.1z"/>
				<path class="st7" d="M87.4,156.9c3.2,3.1,6.5,6,9.9,8.7c-3.9,1.5-7.8,2.7-11.7,3.6c-3.3-3.2-6.5-6.6-9.6-10.3
					C79.9,158.7,83.6,157.9,87.4,156.9z"/>
				<path class="st7" d="M97.4,165.7c3.4,2.7,6.9,5.2,10.4,7.4c-3.9,2-7.9,3.8-11.9,5.2c-3.5-2.8-6.9-5.8-10.2-9
					C89.6,168.4,93.5,167.2,97.4,165.7L97.4,165.7z"/>
				<path class="st7" d="M140.5,160.4c3.4,0.7,6.8,1.2,10.1,1.4c-3.2,4.2-6.6,8.1-10.2,11.8c-3.5-0.8-7-1.8-10.6-3
					C133.5,167.5,137.1,164.1,140.5,160.4z"/>
				<path class="st7" d="M130.2,157.5c3.4,1.2,6.8,2.2,10.2,2.9c-3.4,3.7-7,7.1-10.7,10.2c-3.5-1.3-7.1-2.8-10.6-4.5
					C123,163.5,126.7,160.6,130.2,157.5L130.2,157.5z"/>
				<path class="st7" d="M109.9,147.4c3.3,2.1,6.7,4.1,10.1,5.7c-3.6,2.7-7.4,5.1-11.2,7.2c-3.4-2.2-6.8-4.6-10.1-7.2
					C102.5,151.4,106.2,149.5,109.9,147.4z"/>
				<path class="st7" d="M120,153.1c3.4,1.7,6.8,3.1,10.2,4.4c-3.6,3.2-7.2,6.1-11,8.7c-3.5-1.7-7-3.7-10.4-5.9
					C112.6,158.2,116.4,155.8,120,153.1L120,153.1z"/>
			</g>
		</g>
	</g>
</g>
<path class="st18" d="M217.7,175.6c3.3,2.5,5,6.5,6,10.5c2,8,1.4,16.4-0.5,24.4s-5.2,15.6-8.7,23.1c-3.1-0.5-5.9-2-8.5-3.7
	c-1.8-1.2-3.5-2.6-5.3-3.8c-5.3-3.6-13.8-8.5-20.2-8.2c-3.3-4-0.2-7.1,2.6-11.4s7.2-7.3,10.7-11.1c3.6-3.9,6.4-8.5,9.9-12.5
	S211.6,169.9,217.7,175.6L217.7,175.6z"/>
<path class="st18" d="M127.3,175.6c-3.3,2.5-5,6.5-6,10.5c-2,8-1.4,16.4,0.5,24.4c2,8,5.2,15.6,8.7,23.1c3.1-0.5,5.9-2,8.5-3.7
	c1.8-1.2,3.5-2.6,5.3-3.8c5.3-3.6,13.8-8.5,20.2-8.2c3.3-4,0.2-7.1-2.6-11.4c-2.9-4.3-7.2-7.3-10.7-11.1c-3.6-3.9-6.4-8.5-9.9-12.5
	S133.4,169.9,127.3,175.6L127.3,175.6z"/>
<path class="st18" d="M242.3,195c6.8,22.5,13.8,47.5,20.4,71.2c7-1.4,22-0.8,24.6-7.4c4.9-12.1,2.1-16.8-1-22.5
	c-0.9-1.7-2.1-3.3-3.3-4.8C271,217.6,257.6,205.2,242.3,195L242.3,195z"/>
<path class="st18" d="M97.6,195c-6.8,22.5-16.3,55.2-22.9,79c-7-1.4-10.6-0.1-14.9-5.8c-2.3-3.1-6.1-13.8-6.9-19.3
	c-0.9-6.3,1.9-15.1,6.1-19.8C70.5,216.1,83.2,204.6,97.6,195L97.6,195z"/>
<path class="st0" d="M235.5,91c2.4-5.4-1.3-9.4-3.8-9.9c3.5-5.5-2.9-19.5-8.4-21.5c1.8-6.1,1.3-12.5-0.6-17.4
	c2.5-3.5,0.8-12.4-2.4-14.6c2.8-3.2,2.8-11.9-0.3-15.6c1.6-4.8-5.1-13.6-9.6-11.8c-4.7,1.1-7.7,32.3-7.7,32.3
	c-3.1-3.3-8.9-3.5-10.6-0.9c-5.5-10.2-16.4-5.6-16.6-5.9c-2.4-4.9-10.5-3.8-12.5,0.5c-5.4-2.4-12.4,1.3-12.1,6.5
	c-5.6-2.3-10.3,0.2-12.7,3.5c-0.8-12-5.1-28.6-7.3-32.4c-4.1-6.8-7.3-3.3-9.4,2.9c-1.4,3.7-1.7,8,0.5,11.4
	c-4.4,2.3-4.6,13.2-1.3,16.3c-6.1,8.3-2.4,24.9-1.3,25.2c-8.8,5.8-9.3,16.4-9.3,21.5c-3.1-0.5-9,7.7-6,14.5
	c-9.5,8.3-6.2,28.3,2.5,31.9c-6.7,9.9-3.7,24.4,8.7,27.8c-1.3,9,6.8,15,14.9,14.1c-0.2,1,0,2.1,0.4,3.1c-9.5,9.6-1,18.4,4.1,19
	c0.1,0.2,0.2,0.3,0.2,0.5c-3,5.7,1.2,12.6,7.5,12.9c2.3,9.2,11,7.3,13.6,7.3c0.2,0.1,0.4,0.2,0.5,0.4c0.1,0,0.2-0.1,0.2-0.1
	c6.5,9.5,27.9,10.5,32.5-1.7c0-0.1,0.3,0,0.3,0c8.6,5.4,20.7-1.9,16.1-12.6c0,0,0-0.1,0-0.1c0,0,0,0,0,0c10.4-2,10.3-12,8.3-15
	c9.6-8.4,4.2-16.8,4.2-16.9c0,0,0.1,0,0.1,0c13.9-2.8,15.3-14.4,12.3-20.1c11.2-3.2,10.6-18.1,6.2-23.1c3.8-4.6,6.1-10.5,6.4-16.4
	C243.5,100.5,238.8,92.4,235.5,91L235.5,91z"/>
<path class="st19" d="M214.2,95.8c-7.3-21-16.8-22.4-43.8-22.4c-23.2,1.3-36.4,1.4-43.8,22.4c-5.1,15.4-0.7,35.3,10,48.8
	c7.8,9.6,20.6,18.3,33.3,18.7c0.2,0,0.3,0,0.5,0c0.2,0,0.3,0,0.5,0c12.7-0.4,25.5-9.1,33.3-18.7C214.9,131.1,219.3,111.2,214.2,95.8
	L214.2,95.8z"/>
<path class="st20" d="M195.7,114.5l0-0.2c-1.5-12.8-13.3-20.4-25.2-20.1c-11.9-0.2-23.7,7.3-25.2,20.1l0,0.2
	c-0.9,6.5-0.4,12.9,3.6,18c0.3,9.2,10.6,16.5,20.8,16.5c0.3,0,0.6,0,0.9,0c0.3,0,0.6,0,0.9,0c10.2,0,20.4-7.3,20.8-16.5
	C196.1,127.4,196.6,121,195.7,114.5L195.7,114.5z"/>
<path class="st21" d="M204,493.3c0.3,2.2,1.5,4.2,3.3,5.4c0.3,0.2,0.5,0.3,0.8,0.4c0.3,0,0.6-0.1,0.8-0.2c0.9-0.4,1.6-1.1,2-1.9
	c0.3-0.7,0.4-1.4,0.6-2.2c0.3-1.8,0.5-3.8-0.3-5.4C208.5,483.8,203.5,489.2,204,493.3L204,493.3z"/>
<path class="st21" d="M213.5,492.9c0.9,2.2,3.1,3.8,5.4,4c0.3,0,0.5,0,0.7-0.1c0.2-0.1,0.3-0.2,0.5-0.4c1.4-1.7,1.2-4.2,0.7-6.3
	c-0.4-1.7-1-3.4-2.4-4.4C214.1,482.5,212.2,490,213.5,492.9z"/>
<path class="st21" d="M138.4,495.5c-0.3,2.2-1.5,4.2-3.3,5.4c-0.3,0.2-0.5,0.3-0.8,0.4c-0.3,0-0.6-0.1-0.8-0.2
	c-0.9-0.4-1.6-1.1-2-1.9c-0.3-0.7-0.4-1.4-0.6-2.2c-0.3-1.8-0.5-3.8,0.3-5.4C134,485.9,138.9,491.3,138.4,495.5L138.4,495.5z"/>
<path class="st21" d="M127.7,494.9c-0.9,2.2-3.1,3.8-5.4,4c-0.3,0-0.5,0-0.7-0.1c-0.2-0.1-0.3-0.2-0.5-0.4c-1.4-1.7-1.2-4.2-0.7-6.3
	c0.4-1.7,1-3.4,2.4-4.4C127.1,484.5,129,492,127.7,494.9z"/>
<path class="st1" d="M218.1,166.2c-1.8,0.1-2.7-0.6-2.7-0.6c-0.1,3.3-6.8,9-12.2,6.1c-2.1,6.2-15.6,9.5-20.8,1.4
	c-4.6,12.1-22,11.6-27.1,0c-6.3,8-21.4,4.9-22.7-6c-0.8,1.6-1.2,1.7-2.6,2.3c-0.2,1,0,2.1,0.4,3.1c-9.8,9.9-0.5,19,4.5,19.2
	c-3.4,5.8,0.8,13,7.3,13.3c2.7,10.7,14.2,6.3,14.3,7.5c6.5,9.6,28.2,10.6,32.6-1.9c8.9,5.5,21.2-1.8,16.4-12.5
	c10.5-1.9,10.3-12,8.3-15.1C223.7,174.7,218.1,166.2,218.1,166.2L218.1,166.2z"/>
<path class="st1" d="M123,106.3c4.9-0.1,5.7-17.3,3.4-19.8c4.4,0.8,7.3-1.2,8.6-3.5c3.2,0.7,10.1-3.6,10.5-6.9c6.3,11.3,22,7,24-0.4
	c3,9.1,18.9,10.2,22.9-1.7c1.1,6.9,11.6,10.9,19.2,8.2c-2.8,5.6,0.1,11.5,3.3,13.2c-1,0.9-1.1,7.6,1.8,10.8
	c8,0.8,15.3-14.8,7.5-20.8c5.9-6,2.6-15.7-1.9-18.5c-2,2.7-6.9,3.7-8.2-1.8c-3.5,5.8-19.9,6.1-21.9,0.9c-3.8,8.2-19.1,9.3-23.3,2.5
	c-4.8,7.7-19,5.5-23.1-2.5c-4.5,4.6-16.5,4.7-20-1.1c0.6-0.6-1.4,5.6-5.4,2.1c-5.2,2.9-4.5,12.4-2.7,14.6
	C109.9,88.9,111.9,105.9,123,106.3L123,106.3z"/>
<path class="st1" d="M212.8,48.8c2-0.2,3.1-2.4,3.5-4.3c1.3-6.2-1.7-12.4-1.7-18.7c0-3.4,0.3-7.8-0.7-11.2c-1.2-4.3-1.9,1.2-2.4,2.9
	c-2,6.8-3.3,13.9-3.8,21c-0.2,2.6-0.2,5.4,1,7.7C209.6,47.6,211.1,49,212.8,48.8L212.8,48.8z"/>
<path class="st1" d="M127.5,48.8c-2-0.2-3.4-5.8-3.7-7.8c-0.8-5.9,1.6-8.9,1.6-15.2c0-3.4-0.1-7.9,0.9-11.2c1.2-4.3,1.9,1.2,2.4,2.9
	c2,6.8,3.4,11.2,3.9,18.3c0.2,2.6-0.3,7.3-1.5,9.7C130.3,46.9,129.2,49,127.5,48.8L127.5,48.8z"/>
<path class="st22" d="M170.7,128.5l-5.9,3.1c2,2.6,3.9,2.8,5.9,2.8s3.9-0.2,5.9-2.8L170.7,128.5z"/>
<path class="st23" d="M170.7,123.5v5.8c-2.2,0.1-6.8,3.3-9.8,3.3s-4.9-2.9-4.9-5.4"/>
<path class="st23" d="M170.7,123.5v5.8c2.2,0.1,6.8,3.3,9.8,3.3s4.9-2.9,4.9-5.4"/>
<path class="st24" d="M170.7,99.9c-6.2,0-9.2,9.5-10.1,16.5l10.1,7l10.1-7C180,109.5,177,99.9,170.7,99.9z"/>
<path class="st21" d="M179.9,115c-0.8-0.3-1.7,0.3-2.4,0.7c-2.1,1.3-4.3,2.4-6.7,2.4c-2.4,0-4.6-1.1-6.7-2.4c-0.8-0.5-1.6-1-2.4-0.7
	c-1,0.4-1.2,1.9-0.6,2.8c0.6,0.9,4.1,4.5,5,5.1c2.3,1.8,7.3,1.8,9.6,0c0.9-0.7,4.4-4.2,5-5.1S180.9,115.3,179.9,115L179.9,115z"/>
<path class="st25" d="M129.1,81.4c-4.1-6.3-3.6-15.7,2.3-20.7c1.2-1-0.5-2.8-1.8-1.8c-6.8,5.7-7.4,16.6-2.7,23.7
	C127.8,84,130,82.7,129.1,81.4L129.1,81.4L129.1,81.4z"/>
<path class="st25" d="M145.2,65.6c-1.1,1.6-1.7,3.3-1.9,5.2c-0.1,1.7,0.2,3.5,0.7,5.1c0.2,0.6,0.9,1.1,1.5,0.9
	c0.6-0.2,1.1-0.9,0.9-1.5c-0.5-1.5-0.8-2.8-0.7-4.3c0.1-1.4,0.7-2.9,1.5-4.1c0.4-0.6,0.1-1.4-0.4-1.7
	C146.3,64.8,145.5,65.1,145.2,65.6L145.2,65.6L145.2,65.6z"/>
<path class="st25" d="M167.9,68.7c0.2,2.1,0.4,4.2,0.5,6.3l0.1,0.9c0.1,0.7,0.5,1.3,1.2,1.2c0.6,0,1.3-0.6,1.2-1.2
	c-0.2-2.1-0.4-4.2-0.5-6.3l-0.1-0.9c-0.1-0.7-0.5-1.3-1.2-1.2C168.5,67.5,167.8,68,167.9,68.7L167.9,68.7z"/>
<path class="st25" d="M190.3,63.3c0,0.1,0.1,0.2,0.1,0.2c0.1,0.1,0.1,0.2,0.1,0.3c0,0.1,0.2,0.4,0.1,0.1c0.3,0.8,0.6,1.7,0.9,2.6
	c0.6,2.2,0.9,4.6,0.2,6.9c-0.5,1.5,2,2.2,2.4,0.7c1.2-3.9,0.2-8.5-1.7-12.1C191.7,60.7,189.5,61.9,190.3,63.3L190.3,63.3L190.3,63.3
	z"/>
<path class="st25" d="M206.9,59.1c2,1.2,4,3.3,5.3,5.5c3.2,5.3,2.3,11.3-0.7,16.6c-0.8,1.4,1.4,2.7,2.2,1.3
	c2.7-4.7,4.1-10.2,2.3-15.5c-1.1-3.3-3.2-6.3-5.9-8.5c-0.6-0.5-1.3-1-2-1.5C206.8,56.1,205.6,58.3,206.9,59.1L206.9,59.1L206.9,59.1
	z"/>
<path class="st1" d="M162.9,41.4c2.3-1.3,4.9-2.5,7.6-2.7s5.2,0.8,7.3,2.5c0.5,0.4,1.3,0.5,1.8,0c0.4-0.4,0.5-1.3,0-1.8
	c-2.5-2.1-5.5-3.4-8.8-3.3c-3.3,0.1-6.3,1.5-9.1,3.1C160.2,40,161.5,42.2,162.9,41.4C162.9,41.4,162.9,41.4,162.9,41.4z"/>
<path class="st1" d="M189.4,44.6c2-0.1,3.9-0.1,5.8,0.6c0.6,0.2,1.3,0.6,2,1.1c0.1,0.1-0.1-0.1,0.1,0.1c0.1,0.1,0.2,0.1,0.2,0.2
	c0.1,0.1,0.3,0.3,0.4,0.4c0.1,0.1,0.3,0.3,0.4,0.5c0.1,0.1-0.1-0.1,0.1,0.1c0.1,0.1,0.1,0.2,0.2,0.3c0.4,0.6,1.1,0.8,1.7,0.4
	c0.6-0.3,0.8-1.1,0.4-1.7c-1.1-1.7-2.7-2.9-4.6-3.6c-2.1-0.8-4.5-0.9-6.7-0.8c-0.7,0-1.2,0.5-1.2,1.2
	C188.1,44,188.7,44.7,189.4,44.6L189.4,44.6L189.4,44.6z"/>
<path class="st1" d="M141.3,47.5c1.2-0.9,2.6-1.6,4-2.2c2.5-1.1,5.5-1.9,8.3-1.3c0.7,0.1,1.3-0.2,1.5-0.9c0.2-0.6-0.2-1.4-0.9-1.5
	c-3.3-0.7-6.7,0.1-9.8,1.4c-1.6,0.7-3.1,1.5-4.5,2.5c-0.5,0.4-0.8,1.1-0.4,1.7C139.9,47.6,140.7,47.9,141.3,47.5L141.3,47.5
	L141.3,47.5z"/>
<path class="st25" d="M212.8,48.9c2-0.2,3.1-2.4,3.5-4.3c0.5-2.6,0.3-5.1-0.1-7.7c0-0.2-0.1-0.4-0.1-0.6c-0.8-3.6-3.4-0.2-4-3.8
	c-0.5-2.6-2.4-2.5-3.4-2.2c-0.4,2.7-0.7,5.5-0.9,8.2c-0.2,2.6-0.2,5.4,1,7.7C209.5,47.8,211.1,49.1,212.8,48.9L212.8,48.9z"/>
<path class="st25" d="M132.3,32c-0.2-0.2-0.4-0.4-0.7-0.5c-2.3-0.4-3.3,6.7-5.1,5.9c-1-0.4-2,0.5-2.8,1.4c-0.1,0.9-0.2,1.9-0.1,2.8
	c0.1,1.4,0.4,2.9,1,4.2c0.6,1.3,1.6,3,2.9,3.1c1.4,0.1,2.6-1.6,3.3-2.9c2.2-4,2-8.8,1.5-13.3C132.3,32.5,132.3,32.3,132.3,32
	L132.3,32z"/>
<path class="st1" d="M220.7,109.6c0.1,0.3,0.3,0.6,0.4,0.9c-0.1-0.2,0.1,0.2,0.1,0.3c0.1,0.2,0.1,0.3,0.2,0.5
	c0.3,0.8,0.5,1.6,0.6,2.4c0.3,1.8,0.2,3.8-0.2,5.6c-0.1,0.7,0.2,1.4,0.9,1.5c0.6,0.2,1.4-0.2,1.5-0.9c0.8-3.9,0.4-7.9-1.4-11.5
	c-0.3-0.6-1.2-0.8-1.7-0.4C220.6,108.3,220.4,109,220.7,109.6L220.7,109.6z"/>
<path class="st1" d="M218.3,139.9c1.7-0.8,3.2-2,4.2-3.6c1.3-2,1.5-4.5,1.4-6.9c-0.1-0.7-0.5-1.2-1.2-1.2c-0.6,0-1.3,0.6-1.2,1.2
	c0.1,0.6,0.1,1.2,0,1.8c0,0.6-0.1,0.9-0.2,1.4c-0.1,0.5-0.2,0.9-0.4,1.4c-0.1,0.3,0.1-0.2,0,0.1c0,0.1-0.1,0.2-0.1,0.3
	c-0.1,0.2-0.2,0.4-0.3,0.6c-0.1,0.2-0.2,0.3-0.4,0.5c0.1-0.2,0,0-0.1,0.1s-0.1,0.2-0.2,0.2c-0.3,0.3-0.6,0.6-0.9,0.8
	c-0.2,0.2,0.2-0.1-0.1,0c-0.1,0.1-0.2,0.1-0.2,0.2c-0.1,0.1-0.3,0.2-0.5,0.3c-0.3,0.2-0.7,0.4-1.1,0.6c-0.6,0.3-0.8,1.2-0.4,1.7
	C216.9,140.1,217.7,140.2,218.3,139.9L218.3,139.9L218.3,139.9z"/>
<path class="st1" d="M117.5,114.2c-0.9,3.1-1.4,6.6-0.1,9.6c1.2,2.7,3.6,4.3,6.2,5.2l-0.9-1.5c-0.9,6-0.2,12.7,6,15.4
	c1.5,0.6,2.7-1.5,1.3-2.2c-2.1-0.9-3.8-2.5-4.5-4.7c-0.8-2.5-0.7-5.3-0.3-7.9c0.1-0.7-0.2-1.3-0.9-1.5c-2-0.7-3.9-2-4.7-4
	c-1-2.5-0.4-5.3,0.3-7.8C120.3,113.3,117.9,112.6,117.5,114.2L117.5,114.2L117.5,114.2z"/>
<path class="st25" d="M131.9,169.8C132.1,170,131.8,169.7,131.9,169.8l1.3-1.9l0,0c0.2,0.1,0.4,0.2,0.6,0.3c-0.2-0.2,0.2,0.3,0,0
	c-0.1-0.2-0.2-0.4-0.4-0.5c-0.2-0.3-0.3-0.5-0.5-0.8c-0.1-0.2-0.2-0.3-0.3-0.5c0-0.1-0.1-0.3,0-0.1c0-0.1-0.1-0.2-0.1-0.3
	c-0.1-0.4-0.3-0.8-0.4-1.2c0-0.1-0.1-0.3-0.1-0.4c0,0-0.1-0.4,0-0.2c0,0.1,0-0.2,0-0.2c0-0.1,0-0.3,0-0.4c0-1,0.1-1.9,0.5-2.7
	c0.3-0.6,0.2-1.3-0.4-1.7c-0.5-0.3-1.4-0.2-1.7,0.4c-1.1,2.3-1.1,4.8-0.2,7.1c0.3,0.8,0.7,1.6,1.1,2.3c0.3,0.5,0.6,1,1.2,1.3
	c0.4,0.2,1-0.1,1.3-0.4c0.3-0.4,0.3-0.9,0.1-1.4c-0.1-0.1-0.2-0.3-0.3-0.4c-0.4-0.5-1.3-0.4-1.8,0
	C131.4,168.6,131.5,169.3,131.9,169.8L131.9,169.8L131.9,169.8z"/>
<path class="st25" d="M156.7,174.1c-0.1-0.2-0.2-0.3-0.3-0.5c-0.1-0.2-0.2-0.3-0.3-0.5c-0.1-0.1-0.1-0.2-0.2-0.3
	c0-0.1,0-0.1-0.1-0.2c0,0-0.1-0.3,0-0.1c0.1,0.2,0,0,0-0.1c0-0.1-0.1-0.1-0.1-0.2c-0.1-0.1-0.1-0.3-0.1-0.4
	c-0.1-0.3-0.2-0.6-0.3-0.9c0-0.1-0.1-0.3-0.1-0.4c0-0.2,0-0.4-0.1-0.6c0.1,0.1,0,0.2,0,0c0-0.1,0-0.2,0-0.2c0-0.2,0-0.4,0-0.6
	c0-0.7-0.6-1.3-1.2-1.2c-0.7,0-1.2,0.5-1.2,1.2c0,2.2,0.8,4.4,1.9,6.3c0.3,0.6,1.1,0.8,1.7,0.4C156.8,175.4,157.1,174.7,156.7,174.1
	L156.7,174.1L156.7,174.1z"/>
<path class="st25" d="M182.1,170.3c0,0.7,0,1.4-0.1,2c0,0.1,0,0.1,0,0.2c0,0.3,0-0.2,0-0.1c0,0.1,0,0.2-0.1,0.3
	c0,0.2-0.1,0.4-0.1,0.6c-0.2,0.6-0.4,1.2-0.7,1.8s0.3,1.4,0.9,1.5c0.7,0.2,1.3-0.2,1.5-0.9c0.2-0.6,0.5-1.2,0.7-1.9
	c0.3-1.2,0.4-2.5,0.4-3.8c0-0.7-0.6-1.3-1.2-1.2C182.6,169.1,182.1,169.6,182.1,170.3L182.1,170.3z"/>
<path class="st25" d="M201.2,167.4c0.2,0.3,0.3,0.5,0.5,0.8c0.1,0.1,0.1,0.3,0.2,0.4c0.1,0.2-0.1-0.2,0,0c0,0.1,0,0.1,0.1,0.2
	c0.1,0.2,0.2,0.5,0.2,0.8c0,0.1,0,0.1,0,0.2c0,0,0,0.2,0,0.1c0-0.2,0,0,0,0.1c0,0.1,0,0.2,0,0.2c0,0.3,0,0.5,0,0.8
	c0,0.1-0.1,0.4,0,0.2c0,0.1,0,0.3-0.1,0.4c-0.1,0.6-0.3,1.3-0.5,1.9c-0.2,0.6,0.2,1.4,0.9,1.5c0.7,0.2,1.3-0.2,1.5-0.9
	c0.4-1.3,0.8-2.7,0.7-4c-0.1-1.4-0.6-2.7-1.4-3.9c-0.4-0.6-1.1-0.8-1.7-0.4C201.1,166.1,200.8,166.8,201.2,167.4L201.2,167.4
	L201.2,167.4z"/>
<path class="st25" d="M215.3,159.1c0,0.1,0.2,0.4,0.1,0.2c0.1,0.1,0.1,0.3,0.2,0.4c0.1,0.3,0.2,0.6,0.2,0.8c0,0.1,0.1,0.5,0,0.2
	c0,0.2,0,0.3,0,0.5c0,0.3,0,0.6,0,0.9c0,0.1-0.1,0.5,0,0.3c0,0.2-0.1,0.3-0.1,0.5c-0.1,0.4-0.2,0.7-0.3,1.1c-0.3,0.8-0.6,1.5-1,2.2
	c-0.3,0.6-0.1,1.4,0.4,1.7c0.6,0.3,1.4,0.1,1.7-0.4c0.9-1.7,1.6-3.4,1.7-5.3c0.1-1.5-0.2-3-0.9-4.3c-0.3-0.6-1.2-0.8-1.7-0.4
	C215.2,157.7,215,158.5,215.3,159.1L215.3,159.1L215.3,159.1z"/>
<path class="st25" d="M190.8,210.7c-0.4-2.5-0.8-5-1.2-7.6l-0.2-1.1c-0.1-0.7-0.9-1-1.5-0.9c-0.7,0.2-1,0.9-0.9,1.5
	c0.4,2.5,0.8,5,1.2,7.6l0.2,1.1c0.1,0.7,0.9,1,1.5,0.9C190.6,212,190.9,211.3,190.8,210.7L190.8,210.7z"/>
<path class="st25" d="M157.8,211.7c0.1-1.7,0.4-3.4,0.9-5c0.5-1.7,1.2-3.3,1.7-5c0.5-1.5-1.9-2.2-2.4-0.7c-0.5,1.7-1.2,3.4-1.8,5.1
	c-0.6,1.8-0.9,3.7-1,5.5c0,0.7,0.6,1.2,1.2,1.2C157.3,213,157.8,212.4,157.8,211.7L157.8,211.7L157.8,211.7z"/>
<path class="st25" d="M201.7,192.3c0.3,0.1,0.5,0.3,0.8,0.4c0.1,0,0.3,0.3,0.4,0.3c0,0-0.2-0.2,0,0c0.1,0,0.1,0.1,0.1,0.1
	c0.2,0.2,0.4,0.4,0.6,0.6c0.1,0.1,0.1,0.1,0.1,0.2c0.2,0.2-0.2-0.2,0,0c0.1,0.1,0.2,0.2,0.2,0.4c0.2,0.2,0.3,0.5,0.4,0.8
	c0,0.1,0.1,0.1,0.1,0.2c0.1,0.3-0.1-0.3,0,0c0.1,0.1,0.1,0.3,0.2,0.4c0.2,0.6,0.4,1.3,0.5,2c0.1,0.6,1,1.1,1.5,0.9
	c0.7-0.2,1-0.8,0.9-1.5c-0.2-1.4-0.6-2.8-1.4-4.1c-0.8-1.2-1.8-2.2-3.1-2.8c-0.6-0.3-1.4-0.2-1.7,0.4
	C200.9,191.2,201,192,201.7,192.3L201.7,192.3L201.7,192.3z"/>
<path class="st25" d="M136.5,192.2c0.1-0.2,0.1-0.3,0.2-0.5c0.1-0.2-0.1,0.1,0,0c0-0.1,0.1-0.1,0.1-0.2c0.1-0.3,0.3-0.6,0.5-0.9
	c0.2-0.3,0.4-0.6,0.6-0.9c0.2-0.2-0.1,0.2,0,0c0.1-0.1,0.1-0.1,0.2-0.2c0.1-0.1,0.2-0.3,0.3-0.4c0.4-0.5,0.9-0.9,1.4-1.3
	c0.1-0.1,0.1-0.1,0,0c0.1,0,0.1-0.1,0.2-0.1c0.1-0.1,0.2-0.2,0.4-0.2c0.2-0.1,0.5-0.3,0.7-0.4c0.6-0.3,0.8-1.2,0.4-1.7
	c-0.4-0.6-1.1-0.8-1.7-0.4c-1.2,0.6-2.3,1.6-3.2,2.6c-1.1,1.2-2,2.6-2.5,4.2c-0.2,0.6,0.2,1.4,0.9,1.5
	C135.6,193.3,136.3,192.9,136.5,192.2L136.5,192.2L136.5,192.2z"/>
<path class="st26" d="M102.1,361.3c-1.5,3.1-0.7,6.2,0.8,9.4"/>
<path class="st27" d="M87.7,336.6c-2.8,2.5-4.6,4.9-5.9,8.5"/>
<path class="st26" d="M130.4,368.3c0,2.6,0.4,5.3,1.3,7.7"/>
<path class="st26" d="M157.5,386.3c-1.1-2.3-1.1-5.2,0-7.5"/>
<path class="st26" d="M192.1,387.6c2.2-2.5,2.7-6.2,1.5-9.2"/>
<path class="st26" d="M216.6,380.9c1.1-3.1,1.1-6.1-0.4-8.7"/>
<path class="st26" d="M239.7,360c2.7,2.1,3.6,6.3,2,9.3"/>
<path class="st28" d="M255,339.1c3.2,1.4,6.3,4.3,6.3,9.1"/>
<path class="st26" d="M140.8,405.7c2.7,4,6.1,7.4,10.2,9.8"/>
<path class="st26" d="M140.8,405.7c2.7,4,6.1,7.4,10.2,9.8"/>
<path class="st26" d="M198.6,406.4c-2.7,4-6.1,7.4-10.2,9.8"/>
<linearGradient id="SVGID_00000129195388557483845790000009635731786199735999_" gradientUnits="userSpaceOnUse" x1="170.7435" y1="379.89" x2="170.7435" y2="418.5175" gradientTransform="matrix(1 0 0 -1 0 502)">
	<stop  offset="0" style="stop-color:#6F1B21"/>
	<stop  offset="1" style="stop-color:#391F19"/>
</linearGradient>
<path style="fill:url(#SVGID_00000129195388557483845790000009635731786199735999_);" d="M217.8,87.5c-2.1-2.8-6-4.6-9.6-3.9
	c-1.5,0.3-2.9,1-4.2,1.8c-2.3,1.5-5.2,3.4-6.1,5.9c-0.9-2.4-3.8-4.4-6.1-5.9c-1.3-0.8-2.7-1.5-4.2-1.8c-3.6-0.7-7.5,1.1-9.6,3.9
	c-1.2,1.6-1.9,3.4-2.1,5.3c-1.1-0.4-2.2-0.6-3.2-0.7c-2.2-0.2-2.7,0-4.3,0c-1,0-2.1,0.2-3.2,0.6c-0.3-1.8-1-3.6-2.1-5.1
	c-2.1-2.8-6-4.6-9.6-3.9c-1.5,0.3-2.9,1-4.2,1.8c-2.3,1.5-5.2,3.4-6.1,5.9c-0.9-2.4-3.8-4.4-6.1-5.9c-1.3-0.8-2.7-1.5-4.2-1.8
	c-3.6-0.7-7.5,1.1-9.6,3.9c-2.1,2.8-2.7,6.5-2.1,9.9s2.1,6.6,3.9,9.6c3.9,6.7,9.6,12.9,17.4,15.1h1.3c7.8-2.2,13.5-8.4,17.4-15.1
	c1.1-1.9,2.2-4,2.9-6c2.4-0.5,4.9-0.9,5.9-1c0.1,0,0.3,0,0.5,0c1.7,0,4,0.3,6.2,0.8c0.7,2.2,1.8,4.2,3,6.2
	c3.9,6.7,9.6,12.9,17.4,15.1h1.3c7.8-2.2,13.5-8.4,17.4-15.1c1.8-3,3.3-6.2,3.9-9.6S220,90.3,217.8,87.5L217.8,87.5z"/>
<linearGradient id="SVGID_00000075148585021390162070000012966651761995482801_" gradientUnits="userSpaceOnUse" x1="198.537" y1="406.694" x2="218.817" y2="406.694" gradientTransform="matrix(1 0 0 -1 0 502)">
	<stop  offset="0" style="stop-color:#8E232E"/>
	<stop  offset="1" style="stop-color:#A36050"/>
</linearGradient>
<circle style="opacity:0.8;fill:url(#SVGID_00000075148585021390162070000012966651761995482801_);enable-background:new    ;" cx="208.7" cy="95.3" r="10.1"/>
<linearGradient id="SVGID_00000106127547329869050240000014706674538753811868_" gradientUnits="userSpaceOnUse" x1="144.324" y1="406.694" x2="164.604" y2="406.694" gradientTransform="matrix(1 0 0 -1 0 502)">
	<stop  offset="0" style="stop-color:#8E232E"/>
	<stop  offset="1" style="stop-color:#A36050"/>
</linearGradient>
<circle style="opacity:0.8;fill:url(#SVGID_00000106127547329869050240000014706674538753811868_);enable-background:new    ;" cx="154.5" cy="95.3" r="10.1"/>
<path class="st32" d="M219.4,86.3c-2.7-3.6-7.4-5.5-11.6-4.6c-1.6,0.3-3.1,1-4.8,2.1c-1.7,1.1-3.6,2.4-5,3.9c-1.4-1.5-3.2-2.8-5-3.9
	c-1.7-1.1-3.3-1.8-4.8-2.1c-4.2-0.8-8.9,1-11.6,4.6c-0.8,1.1-1.4,2.2-1.9,3.5l-8,0l-0.1,0.1c-0.5-1.3-1.1-2.5-1.9-3.6
	c-2.7-3.6-7.4-5.5-11.6-4.6c-1.6,0.3-3.1,1-4.8,2.1c-1.7,1.1-3.6,2.4-5,3.9c-1.4-1.5-3.2-2.8-5-3.9c-1.7-1.1-3.3-1.8-4.8-2.1
	c-4.2-0.8-8.9,1-11.6,4.6c-2.3,3.1-3.2,7.1-2.5,11.4c0.6,4,2.5,7.6,4.1,10.3c3.4,5.8,9.5,13.4,18.6,16c0.2,0.1,0.4,0.1,0.6,0.1h1.3
	c0.2,0,0.4,0,0.6-0.1c9.1-2.6,15.1-10.1,18.6-16c1.2-2,2-3.7,2.7-5.3c1.3-0.3,2.9-0.5,4.5-0.7l0.4,0c1.4,0,3.1,0.2,4.7,0.6
	c0.7,1.7,1.6,3.5,2.8,5.5c3.4,5.8,9.5,13.4,18.6,16c0.2,0.1,0.4,0.1,0.6,0.1h1.3c0.2,0,0.4,0,0.6-0.1c9.1-2.6,15.1-10.1,18.6-16
	c1.6-2.7,3.5-6.3,4.1-10.3C222.6,93.4,221.7,89.4,219.4,86.3L219.4,86.3z M143.8,120.1h-0.7c-7.7-2.3-12.9-8.9-16-14.1
	c-1.4-2.4-3.1-5.5-3.6-8.9c-0.5-3.2,0.1-6.2,1.8-8.4c1.8-2.4,4.9-3.6,7.6-3.1c2.6,0.5,5.4,2.5,7.2,4.4c1,1,1.6,3.3,3.4,3.3
	c1.5,0,2.2-2.1,3.1-3c1.2-1.3,2.6-2.2,4.1-3.2c1.3-0.8,2.4-1.3,3.5-1.5c2.1-0.4,4.1,0.2,5.7,1.4c1.5,1.1,3.3,2.7,3.6,4.6
	c0,0.2-0.9,8.7-0.9,8.7c-0.6,1.7-1.5,3.5-2.8,5.7C156.7,111.2,151.5,117.8,143.8,120.1L143.8,120.1z M218,97.1
	c-0.5,3.4-2.2,6.5-3.6,8.9c-3,5.2-8.3,11.8-16,14.1h-0.7c-7.7-2.3-12.9-8.9-16-14.1c-1.3-2.2-2.1-4-2.8-5.7l-0.5-8.7
	c0.3-1.1,0.8-2,1.4-2.9c1.8-2.4,4.9-3.6,7.6-3.1c1.7,0.3,3.2,1.3,4.6,2.2c1.1,0.7,2.2,1.7,3.1,2.7c0.8,0.9,1.4,2.8,2.9,2.8
	c1.5,0,2.2-2,3-2.9c1.2-1.4,2.6-2.3,4.1-3.2c1.3-0.8,2.4-1.3,3.5-1.5c2.7-0.5,5.8,0.7,7.6,3.1C217.9,90.9,218.5,93.9,218,97.1
	L218,97.1z"/>
<line class="st33" x1="57.2" y1="136.1" x2="145.7" y2="335.4"/>
<path class="st34" d="M79,197.1c4.1-0.8,6.8-2.3,9.1-4L62.9,136l-9.1,4C53.7,140,79,197.1,79,197.1z"/>
<path class="st34" d="M131.6,291.5l4.9,11.1c-2.3,1.8-5.1,3.3-9.1,4l-7.4-16.7L131.6,291.5L131.6,291.5z"/>
<g id="Sign">
  <animateTransform
      attributeName="transform"
      begin="0s"
      dur="5s"
      type="rotate"
      from="360 57.5 137.6"
      to="0 57.5 137.6"
      repeatCount="indefinite" />
	<circle class="st35" cx="57.5" cy="137.6" r="57.5"/>
	<g id="p">
		<path class="st36" d="M42.5,112.2c-14.2,8.5-18.9,26.9-10.4,41.1l-4.3,2.6c-1.3,0.8-1.1,1.7,0.3,2.1l6,1.5l6,1.5
			c1.5,0.4,2.9-0.5,3.3-2l1.5-6l1.5-6c0.4-1.4-0.4-2-1.7-1.2l-4.5,2.7c-5.8-9.6-2.6-22.2,7.1-28c4.8-2.9,10.4-3.6,15.4-2.3l2.3-9.3
			C57.8,107,49.7,107.9,42.5,112.2L42.5,112.2z"/>
		<path class="st36" d="M72.4,163c14.2-8.5,18.9-26.9,10.4-41.1l4.3-2.6c1.3-0.8,1.2-1.7-0.3-2.1l-6-1.5l-6-1.5
			c-1.5-0.4-3,0.5-3.3,2l-1.5,6l-1.5,6c-0.4,1.5,0.4,2,1.7,1.2l4.4-2.7c5.8,9.6,2.6,22.2-7,28c-4.8,2.9-10.4,3.6-15.4,2.3l-2.3,9.3
			C57.2,168.3,65.3,167.3,72.4,163L72.4,163z"/>
	</g>
</g>
<path class="st0" d="M238.6,314.6c-0.1-2.2-0.2-4.7,0.5-6.8c5.7-15.3,15.2-48.8,14.9-60.5c0.6-18,32.1-21.4,35.1,8.1
	c0.1,0.9,3.4,13.8,4,17c0.5,2.5-1.7,5.8-3.3,7.7c-1.9,2.2-4.8,3-7.3,4.5c0.7,3.2-0.1,6.5-1.9,9.2s-4.7,4.8-7.9,5.4
	c0.7,1.8-0.6,3.8-2,5.2c-1.5,1.4-3.1,2.6-5,3.4c-0.1,0.1-0.6,0-0.4,0.1c0.4,0.2-3.1,5.1-7.1,5.4c0.1,1.1-0.9,2-1.9,2.5
	c-2.3,1.4-4.9,2.4-7.6,2.7c-3,0.4-6,0.9-8.6-0.8c-0.4-0.2-0.7-0.5-1-0.8C238.7,316.3,238.6,315.4,238.6,314.6L238.6,314.6z"/>
<path class="st21" d="M242.3,312.3c-0.1,0.4-0.5,1-0.8,1.2c-1.8,1.8-3.8,3.5-6,4.8c-0.4,0.3-1,0.5-1.4,0.2c-0.3-0.2-0.3-0.7-0.3-1
	c0-1.1,0-2.3,0.4-3.4c0.6-1.6,4-7.8,5.8-8.1C241.4,308.4,241.1,310.4,242.3,312.3L242.3,312.3z"/>
<path class="st21" d="M239.6,312.3c0.6-0.9,1.3-1.8,2.1-2.5s1.9-1.1,3-0.9c1.2,0.2,2.1,1.2,2.5,2.3s0.2,2.4-0.2,3.5
	c-1,2.8-6.6,7.9-9.9,7.5C231.7,321.5,238.4,314,239.6,312.3L239.6,312.3z"/>
<path class="st25" d="M279.3,280.1c0.1,0.1,0.3,0.3,0.4,0.4c0.1,0.1,0.1,0.2,0.2,0.2c0.1,0.1-0.2-0.3-0.1-0.1c0,0,0,0.1,0.1,0.1
	c0.2,0.3,0.4,0.7,0.6,1c0.1,0.1-0.1-0.3-0.1-0.1c0,0,0,0.1,0.1,0.1c0,0.1,0.1,0.2,0.1,0.3c0.1,0.2,0.1,0.4,0.2,0.6
	c0.1,0.5,0.2,1,0.3,1.4c0.1,0.6,0.9,1.1,1.5,0.9c0.7-0.2,1-0.8,0.9-1.5c-0.4-1.9-1-3.8-2.5-5.2c-0.5-0.4-1.3-0.5-1.8,0
	C278.8,278.8,278.8,279.6,279.3,280.1L279.3,280.1L279.3,280.1z"/>
<path class="st25" d="M269.4,298.5c0.1,0,0.2,0.1,0.3,0.1L269.4,298.5c0.9,0.4,1.7,0.9,2.4,1.4c0.2,0.2,0.7,0.2,1,0.1
	c0.3-0.1,0.6-0.3,0.7-0.6c0.2-0.3,0.2-0.6,0.1-1l-0.1-0.3c-0.1-0.2-0.3-0.3-0.4-0.4c-0.9-0.7-1.9-1.3-3-1.7c-0.3-0.1-0.7,0-1,0.1
	s-0.5,0.4-0.6,0.7c-0.1,0.3-0.1,0.7,0.1,1C268.8,298.2,269,298.4,269.4,298.5L269.4,298.5L269.4,298.5z"/>
<path class="st0" d="M132.3,293.5c-0.9-2-1.9-4.3-3.6-5.8c-12.1-11.1-35.8-36.5-40.8-47.1c-8.7-15.7-38.3-4.5-27.6,23.2
	c0.3,0.9,3.3,13.8,4.2,16.9c0.7,2.4,4.1,4.4,6.4,5.3c2.6,1.1,5.6,0.5,8.5,0.7c0.9,3.2,3.1,5.7,5.9,7.3c2.9,1.6,6.4,2.1,9.6,1.2
	c0.2,1.9,2.2,3.1,4.1,3.7c1.9,0.6,4,0.8,6,0.8c0.2,0,0.5-0.3,0.4-0.2c-0.3,0.3,5.1,3.1,8.8,1.6c0.4,1,1.7,1.3,2.8,1.4
	c2.7,0.2,5.5-0.1,8-1c2.9-1,5.7-2,7.3-4.6c0.2-0.4,0.4-0.7,0.5-1.2C132.9,295.1,132.6,294.3,132.3,293.5L132.3,293.5z"/>
<path class="st21" d="M127.9,293.2c0.2,0.3,0.9,0.6,1.3,0.7c2.5,0.8,5,1.3,7.6,1.6c0.5,0,1.2,0,1.4-0.5c0.1-0.3,0-0.7-0.2-1.1
	c-0.5-1-1.1-2-1.9-2.8c-1.2-1.2-7.1-5.1-8.8-4.6C126.9,289.3,128.1,291,127.9,293.2L127.9,293.2z"/>
<path class="st21" d="M130.3,291.9c-1-0.5-1.9-1-3-1.2s-2.2-0.1-3.1,0.6c-0.9,0.7-1.3,2-1.1,3.2s0.9,2.2,1.7,3c2.2,2,9.5,4,12.2,2.2
	C141.5,296.6,132.1,292.9,130.3,291.9L130.3,291.9z"/>
<path class="st25" d="M77.7,280.1c-0.7,1.9-0.3,3.9,0.2,5.8c0.2,0.6,0.9,1.1,1.5,0.9c0.6-0.2,1.1-0.9,0.9-1.5
	c-0.1-0.5-0.3-0.9-0.4-1.4c0-0.1-0.1-0.7-0.1-0.7c0,0.2,0,0.2,0,0.1c0-0.1,0-0.1,0-0.2c0-0.1,0-0.2,0-0.3c0-0.2,0-0.4,0-0.6
	c0-0.1,0-0.2,0-0.3c0,0,0-0.4,0-0.1c0,0.2,0-0.1,0-0.1c0-0.1,0-0.2,0.1-0.3c0.1-0.2,0.1-0.4,0.2-0.6c0.2-0.6-0.2-1.4-0.9-1.5
	C78.5,279,77.9,279.4,77.7,280.1L77.7,280.1L77.7,280.1z"/>
<path class="st25" d="M95.6,290.9c-0.8,0.8-1.4,1.8-1.9,2.8c-0.2,0.3-0.2,0.6-0.1,1c0.1,0.3,0.3,0.6,0.6,0.7c0.3,0.2,0.6,0.2,1,0.1
	c0.3-0.1,0.6-0.3,0.7-0.6c0.4-0.7,0.8-1.4,1.3-2.1l-0.2,0.3c0.1-0.2,0.3-0.4,0.4-0.5c0.2-0.2,0.4-0.6,0.4-0.9c0-0.3-0.1-0.7-0.4-0.9
	c-0.2-0.2-0.6-0.4-0.9-0.4C96.1,290.5,95.8,290.6,95.6,290.9L95.6,290.9L95.6,290.9z"/>
</svg>
