<?xml version="1.0" encoding="UTF-8"?><svg id="a" xmlns="http://www.w3.org/2000/svg" xmlns:xlink="http://www.w3.org/1999/xlink" viewBox="0 0 294 502"><defs><style>.p{clip-path:url(#j);}.p,.q,.r,.s,.t,.u,.v,.w,.x,.y,.z,.aa,.ab,.ac,.ad,.ae,.af,.ag{fill:none;}.ah{fill:url(#m);}.q{stroke:#643d21;stroke-width:2px;}.q,.t,.u,.y,.z{stroke-linecap:round;}.q,.z{stroke-linejoin:round;}.ai{fill:#1b7eaa;}.r{clip-path:url(#l);}.s{clip-path:url(#e);}.t,.u,.y,.af{stroke-miterlimit:10;}.t,.y{stroke:#a06c40;}.t,.z,.af{stroke-width:3px;}.aj{fill:#a06c40;}.u{stroke:#dcdcdc;stroke-width:10px;}.ak{fill:url(#o);}.ak,.al{opacity:.8;}.al{fill:url(#n);}.am{fill:#74681c;}.v{clip-path:url(#i);}.w{clip-path:url(#c);}.an{fill:#341711;}.x{clip-path:url(#b);}.ao{fill:#057691;}.y{stroke-width:3.052px;}.ap{fill:#c09264;}.aq{fill:#a74a44;}.ar{fill:#f6d213;}.z{stroke:#84522c;}.aa{clip-path:url(#k);}.as{fill:#fbdac0;}.ab{clip-path:url(#f);}.at{fill:#51b3e3;}.ac{clip-path:url(#d);}.ae{clip-path:url(#h);}.au{fill:#ffe806;}.av{fill:#bfbebe;}.aw{fill:#846043;}.af{stroke:#d1ab10;}.ag{clip-path:url(#g);}.ax{fill:#186e36;}.ay{fill:#84522c;}.az{fill:#e5bc94;}.ba{fill:#e9485f;}</style><clipPath id="b"><path class="ad" d="m267.33,286.082c-5.351-30.259-15.239-58.922-23.418-88.541-1.292-4.678-5.474-7.902-9.551-10.534-5.505-3.554-13.725-6.925-21.919-10.12-4.732-1.845-9.757-2.759-14.678-1.505-10.476,2.67-44.269,2.67-54.745,0-4.921-1.254-9.946-.34-14.678,1.505-8.194,3.195-16.414,6.566-21.919,10.12-4.077,2.632-8.26,5.857-9.551,10.534-8.179,29.62-18.066,58.283-23.418,88.541-1.366,7.722-2.569,15.682-.949,23.355,25.788,21.203,57.853,32.294,91.212,33.634,3.54-22.311,5.756-44.829,6.677-67.401.92,22.571,3.137,45.09,6.677,67.401,33.359-1.34,65.424-12.431,91.212-33.634,1.62-7.673.417-15.633-.949-23.355Z"/></clipPath><clipPath id="c"><path class="ad" d="m210.733,268.233c-3.597-5.969-9.405-8.833-14.27-8.547-.038.002-.077.009-.115.011-.038.002-.078,0-.116.002-4.864.285-10.299,3.808-13.174,10.155-5.461,12.057-1.527,33.594,15.799,32.667,17.316-1.103,18.708-22.952,11.876-34.289Z"/></clipPath><clipPath id="d"><path class="ad" d="m254.857,235.623c-3.597-5.969-9.405-8.833-14.27-8.547-.038.002-.077.009-.115.011-.038.002-.078,0-.116.002-4.864.285-10.299,3.808-13.174,10.155-5.461,12.057-1.527,33.594,15.799,32.667,17.316-1.103,18.708-22.952,11.876-34.289Z"/></clipPath><clipPath id="e"><path class="ad" d="m215.177,354.086c-3.597-5.969-9.405-8.833-14.27-8.547-.038.002-.077.009-.115.011-.038.002-.078,0-.116.002-4.864.285-10.299,3.808-13.174,10.155-5.461,12.057-1.527,33.594,15.799,32.667,17.316-1.103,18.708-22.952,11.876-34.289Z"/></clipPath><clipPath id="f"><path class="ad" d="m259.301,311.476c-3.597-5.969-9.405-8.833-14.27-8.547-.038.002-.077.009-.115.011-.038.002-.078,0-.116.002-4.864.285-10.299,3.808-13.174,10.155-5.461,12.057-1.527,33.594,15.799,32.667,17.316-1.103,18.708-22.952,11.876-34.289Z"/></clipPath><clipPath id="g"><path class="ad" d="m250.412,159.77c-3.597-5.969-9.405-8.833-14.27-8.547-.038.002-.077.009-.115.011-.038.002-.078,0-.116.002-4.864.285-10.299,3.808-13.174,10.155-5.461,12.057-1.527,33.594,15.799,32.667,17.316-1.103,18.708-22.952,11.876-34.289Z"/></clipPath><clipPath id="h"><path class="ad" d="m133.874,268.233c3.597-5.969,9.405-8.833,14.27-8.547.038.002.077.009.115.011.038.002.078,0,.116.002,4.864.285,10.299,3.808,13.174,10.155,5.461,12.057,1.527,33.594-15.799,32.667-17.316-1.103-18.708-22.952-11.876-34.289Z"/></clipPath><clipPath id="i"><path class="ad" d="m89.75,238.623c3.597-5.969,9.405-8.833,14.27-8.547.038.002.077.009.115.011.038.002.078,0,.116.002,4.864.285,10.299,3.808,13.174,10.155,5.461,12.057,1.527,33.594-15.799,32.667-17.316-1.103-18.708-22.952-11.876-34.289Z"/></clipPath><clipPath id="j"><path class="ad" d="m129.43,354.086c3.597-5.969,9.405-8.833,14.27-8.547.038.002.077.009.115.011.038.002.078,0,.116.002,4.864.285,10.299,3.808,13.174,10.155,5.461,12.057,1.527,33.594-15.799,32.667-17.316-1.103-18.708-22.952-11.876-34.289Z"/></clipPath><clipPath id="k"><path class="ad" d="m85.306,311.476c3.597-5.969,9.405-8.833,14.27-8.547.038.002.077.009.115.011.038.002.078,0,.116.002,4.864.285,10.299,3.808,13.174,10.155,5.461,12.057,1.527,33.594-15.799,32.667-17.316-1.103-18.708-22.952-11.876-34.289Z"/></clipPath><clipPath id="l"><path class="ad" d="m94.195,159.77c3.597-5.969,9.405-8.833,14.27-8.547.038.002.077.009.115.011.038.002.078,0,.116.002,4.864.285,10.299,3.808,13.174,10.155,5.461,12.057,1.527,33.594-15.799,32.667-17.316-1.103-18.708-22.952-11.876-34.289Z"/></clipPath><linearGradient id="m" x1="171.202" y1="122.11" x2="171.202" y2="83.482" gradientUnits="userSpaceOnUse"><stop offset="0" stop-color="#6f1b21"/><stop offset="1" stop-color="#391f19"/></linearGradient><linearGradient id="n" x1="198.997" y1="95.306" x2="219.277" y2="95.306" gradientUnits="userSpaceOnUse"><stop offset="0" stop-color="#8e232e"/><stop offset="1" stop-color="#a36050"/></linearGradient><linearGradient id="o" x1="144.784" x2="165.064" xlink:href="#n"/></defs><path class="ap" d="m266.332,319.41c-.033-.524-1.188-14.358-5.108-20.451-.344-.458-.724-.889-1.087-1.333-.42-2.503-.909-4.88-1.617-6.959-5.297-15.562-11.482-31.656-23.836-42.502-9.025-7.923-20.688-12.356-32.511-14.464-11.823-2.108-23.914-2.036-35.922-1.902-4.924.055-9.879.123-14.711,1.068-8.941,1.749-17.034,6.415-24.559,11.552-12.052,8.227-23.199,18.095-31.844,29.909-4.201,5.741-7.791,11.947-10.463,18.547-.089.22-.163.444-.248.665-1.759,1.688-3.394,3.486-4.847,5.418-2.207,6.171-6.067,21.916-5.851,22.399.002.002.003.003.005.005-2.807,8.73,1.194,18.64,8.671,24.255-1.388,4.082-1.338,8.638.14,12.689,1.478,4.051,4.475,8.187,8.166,10.416-5.376,4.049-6.734,13.976-1.569,19.307.06.136.117.273.181.407-.631,2.569.969,5.022,3.01,6.548,1.216,10.548,3.526,21.305,6.382,31.735-.001-.002-.008-.013-.008-.013,1.106,7.419,12.291,39.715,23.18,55.938.101.155.219.299.348.436.475.802.934,1.606,1.421,2.407-.815,2.149-.527,5.548-.411,7.844.042.836.157,1.699.596,2.411.439.713,1.275,1.238,2.098,1.084.393-.074.742-.289,1.081-.5,1.397-.869,3.262-1.636,4.659-2.505-.431,2.361,2.449,4.233,4.807,3.785,2.358-.448,4.141-2.329,5.743-4.116,1.487-1.658,3.012-3.44,4.043-5.394,0,.002,0,.004,0,.006.006-.014.011-.026.017-.041.391-.747.713-1.518.928-2.318.734-2.14.614-3.398-.273-6.47-1.711-6.762-3.291-13.633-5.002-20.395,4.338-4.068,5.451-11.166,2.567-16.366-.019.01-.06.029-.094.045-.008-.015-.014-.031-.022-.045,2.65-1.294,4.634-3.874,5.204-6.768.57-2.893-.002-6.303-1.962-8.506,2.393-1.996,4.968-4.324,5.247-7.427.128-1.418-.29-2.868-1.125-4.021.003-.055.012-.107.014-.162,8.791,8.618,25.712,10.904,36.776,1.091.381,2.616.778,5.264,1.83,7.689,1.064,2.452,2.896,4.689,5.391,5.646-2.901,3.945-2.555,9.939.782,13.523.242.26.503.518.63.849.021.055.022.113.035.169-2.074,4.074-2.292,10.25,2.54,13.123-.78,5.214-2.589,15.549-3.722,21.518-2.25,8.732.417,9.704,3.313,11.432-.003-.003-.006-.007-.009-.01,1.941,1.396,4.158,2.579,5.878,3.579,1.592.925,3.36,1.772,5.192,1.586,1.832-.186,1.741-2.166,1.852-3.999.872.9,3.882,2.064,5.116,2.287,1.234.223,2.182-.206,2.956-1.192,1.017-1.296.743-3.146.418-4.761-.368-1.832-.81-3.545-1.183-5.369.016-.078.019-.157-.007-.238,5.371-10.846,10.002-22.522,16.362-32.819,5.117-9.189,6.203-14.532,6.963-18.787.319-1.443.611-2.895.881-4.352.004-.014.007-.029.011-.043-.001.002-.002.003-.003.005.541-2.925,1.004-5.867,1.456-8.785,1.059-6.835,2.523-13.879,3.747-20.8.509-1.642.699-3.326.992-5.221.069-.036.131-.087.199-.125,1.509-.551,2.623-1.768,3.473-3.203,3.685-5.08,4.369-13.327-.545-16.897-.024.015-.063.024-.09.038-.009-.013-.018-.025-.027-.038,10.61-5.539,11.943-16.361,9.277-23.257,7.667-6.993,9.749-21.872,4.076-28.857Z"/><path class="aj" d="m253.096,371.524c-1.618.972-9.474-.221-11.396-2.584-1.889,7.138-12.444,17.396-25.117,11.389-1.135,9.835-19.809,12.092-24.124,5.461-7.898,12.37-27.946,10.906-34.698.177-10.741,5.047-24.764,1.146-26.283-10.731-6.963,6.556-24.074,4.481-28.37-5.926-3.815,2.778-12.399-.588-12.399-.588-5.453,4.107-6.787,14.272-1.356,19.543-1.371,4.822,5.268,9.327,8.014,8.083,2.444,9.347,12,12.426,20.412,9.074,1.477,8.963,6.531,13.63,17.395,13.994,4.749,6.413,16.267,4.007,16.598-3.787,8.818,8.645,25.818,10.921,36.88,1.003,3.049,9.308,27.557,11.308,36.027-.447,7.688,1.978,16.493-4.08,17.052-10.526,7.415-5.274,7.454-8.839,8.24-13.91,6.576-3.475,9.397-15.67,3.126-20.225Z"/><path class="aj" d="m261.224,298.959c-5.387-7.162-13.117-12.624-21.39-16.547-21.406-10.15-45.555-11.562-69.433-9.883-23.878-1.679-48.027-.267-69.433,9.883-8.273,3.923-16.003,9.385-21.39,16.547-2.207,6.171-6.067,21.916-5.851,22.399,44.203,43.257,152.753,44.704,192.605-1.949-.033-.524-1.188-14.358-5.108-20.451Z"/><path class="aj" d="m146.943,479.274c-1.711-6.762-3.291-13.633-5.002-20.395,4.338-4.068,5.451-11.166,2.567-16.366-.475.261-6.198,2.65-11.49-2.721-1.765,2.258-4.471,3.675-7.289,4.196s-5.744.196-8.503-.578c-5.135-1.44-10.06-5.737-13.637-9.691-2.111-2.333-4.883-7.012-4.883-7.012,1.106,7.419,12.291,39.715,23.18,55.938,2.981,4.574,18.624.997,18.836.915,1.76-.448,5.446-.175,5.548,4.544,1.685-3.893,1.838-4.792.673-8.829Z"/><path class="aj" d="m210.816,439.3c-.505,5.196-11.171,7.196-13.519,5.126-2.152,4.07-2.44,10.38,2.459,13.292-.78,5.214-2.589,15.549-3.722,21.518-2.25,8.732.417,9.704,3.313,11.432-2.258-2.228-1.647-8.006,2.817-7.244,8.342,1.904,17.958.886,17.398-.874,5.371-10.846,10.002-22.522,16.362-32.819,6.999-12.57,6.46-17.953,7.854-23.182-8.688,13.668-21.799,19.779-32.961,12.75Z"/><path class="at" d="m267.33,286.082c-5.351-30.259-15.239-58.922-23.418-88.541-1.292-4.678-5.474-7.902-9.551-10.534-5.505-3.554-13.725-6.925-21.919-10.12-4.732-1.845-9.757-2.759-14.678-1.505-10.476,2.67-44.269,2.67-54.745,0-4.921-1.254-9.946-.34-14.678,1.505-8.194,3.195-16.414,6.566-21.919,10.12-4.077,2.632-8.26,5.857-9.551,10.534-8.179,29.62-18.066,58.283-23.418,88.541-1.366,7.722-2.569,15.682-.949,23.355,25.788,21.203,57.853,32.294,91.212,33.634,3.54-22.311,5.756-44.829,6.677-67.401.92,22.571,3.137,45.09,6.677,67.401,33.359-1.34,65.424-12.431,91.212-33.634,1.62-7.673.417-15.633-.949-23.355Z"/><path class="ao" d="m170.941,277.59v-57.744c0-.347.036-2.5-.55-2.5-.571,0-.55,2.274-.55,2.5v57.744c0,.347-.036,2.5.55,2.5.571,0,.55-2.274.55-2.5h0Z"/><g class="x"><path class="ar" d="m210.733,268.233c-3.597-5.969-9.405-8.833-14.27-8.547-.038.002-.077.009-.115.011-.038.002-.078,0-.116.002-4.864.285-10.299,3.808-13.174,10.155-5.461,12.057-1.527,33.594,15.799,32.667,17.316-1.103,18.708-22.952,11.876-34.289Z"/><g class="w"><path class="af" d="m219.792,277.697c3.279-3.247,6.452-6.719,9.495-10.402,3.737.402,7.433.501,11.051.285-2.83,4.195-5.816,8.183-8.936,11.952-3.835-.303-7.717-.919-11.609-1.834Z"/><path class="af" d="m209.658,286.756c3.469-2.789,6.855-5.812,10.135-9.06,3.892.916,7.774,1.531,11.609,1.834-3.12,3.769-6.373,7.319-9.737,10.639-3.999-.832-8.013-1.974-12.006-3.414Z"/><path class="af" d="m188.064,300.584c3.694-1.806,7.358-3.869,10.966-6.177,4.039,1.973,8.13,3.651,12.237,5.022-3.559,2.849-7.204,5.457-10.908,7.814-4.158-1.92-8.268-4.144-12.295-6.659Z"/><path class="af" d="m199.03,294.407c3.608-2.308,7.159-4.862,10.628-7.651,3.994,1.439,8.008,2.581,12.006,3.414-3.364,3.32-6.838,6.41-10.397,9.259-4.107-1.371-8.198-3.05-12.237-5.022Z"/><path class="af" d="m196.64,268.731c3.416-2.223,6.779-4.68,10.065-7.36,3.766,1.562,7.557,2.845,11.342,3.837-3.193,3.18-6.491,6.143-9.868,8.877-3.88-1.501-7.737-3.29-11.539-5.355Z"/><path class="af" d="m186.261,274.688c3.495-1.745,6.964-3.735,10.38-5.958,3.802,2.065,7.659,3.854,11.539,5.355-3.377,2.734-6.835,5.239-10.346,7.505-3.921-2.019-7.789-4.324-11.572-6.902Z"/><path class="af" d="m165.195,282.14c3.489-.725,7.008-1.715,10.528-2.961,3.708,3.101,7.531,5.931,11.436,8.478-3.594,1.776-7.217,3.301-10.838,4.565-3.833-3.085-7.551-6.449-11.126-10.083Z"/><path class="af" d="m175.723,279.179c3.52-1.245,7.042-2.746,10.537-4.491,3.783,2.578,7.651,4.883,11.572,6.902-3.512,2.266-7.079,4.292-10.673,6.067-3.906-2.547-7.728-5.377-11.436-8.478Z"/><path class="af" d="m187.127,287.636c-3.594,1.774-7.216,3.298-10.838,4.56,3.832,3.086,7.778,5.892,11.806,8.407,3.694-1.807,7.358-3.871,10.966-6.181-4.04-1.971-8.028-4.237-11.934-6.786Z"/><path class="af" d="m197.8,281.574c-3.512,2.264-7.078,4.289-10.673,6.063,3.905,2.549,7.894,4.815,11.934,6.786,3.608-2.31,7.159-4.865,10.628-7.655-3.994-1.438-7.968-3.173-11.888-5.194Z"/><path class="af" d="m218.016,265.2c-3.194,3.179-6.491,6.14-9.869,8.873,3.88,1.502,7.783,2.717,11.676,3.631,3.279-3.249,6.451-6.721,9.494-10.406-3.737-.4-7.515-1.104-11.3-2.098Z"/><path class="af" d="m208.147,274.073c-3.377,2.733-6.835,5.236-10.347,7.501,3.921,2.021,7.895,3.756,11.888,5.194,3.469-2.79,6.855-5.815,10.134-9.064-3.892-.914-7.796-2.129-11.676-3.631Z"/><path class="af" d="m164.97,269.074c-3.387.72-6.744,1.181-10.04,1.372,3.259,4.159,6.691,8.061,10.266,11.694,3.489-.725,7.008-1.715,10.528-2.961-3.708-3.101-7.303-6.473-10.754-10.105Z"/><path class="af" d="m175.194,266.144c-3.42,1.229-6.837,2.21-10.224,2.93,3.451,3.632,7.046,7.004,10.754,10.105,3.52-1.245,7.042-2.746,10.537-4.491-3.783-2.578-7.482-5.43-11.067-8.544Z"/><path class="af" d="m195.517,255.861c-3.32,2.184-6.69,4.14-10.086,5.857,3.661,2.606,7.407,4.947,11.209,7.012,3.416-2.223,6.779-4.68,10.065-7.36-3.766-1.562-7.505-3.402-11.188-5.51Z"/><path class="af" d="m185.431,261.718c-3.396,1.717-6.817,3.196-10.237,4.426,3.585,3.114,7.283,5.966,11.067,8.544,3.495-1.745,6.964-3.735,10.38-5.958-3.802-2.065-7.548-4.406-11.209-7.012Z"/></g><path class="ax" d="m203.174,256.76c3.721-2.446,6.753-3.865,6.753-3.865-4.843-1.357-8.384.671-10.902,3.448,4.042-6.175,9.997-13.482,9.997-13.482-4.507,1.047-8.771,4.724-11.124,7.335.003-2.056-1.811-10.963-2.865-11.821-.946.975-1.708,10.033-1.465,12.074-2.641-2.318-7.305-5.472-11.904-5.986,0,0,6.768,6.562,11.503,12.223-2.825-2.464-6.579-4.065-11.23-2.152,0,0,3.177,1.055,7.158,3.05-2.038-.243-4.23.168-6.405,1.775,3.849.002,7.44.594,10.737,1.857.66.897,1.779,1.462,3.026,1.389s2.292-.765,2.843-1.733c3.127-1.639,6.624-2.647,10.447-3.098-2.348-1.341-4.573-1.494-6.569-1.015Z"/><path class="ar" d="m254.857,235.623c-3.597-5.969-9.405-8.833-14.27-8.547-.038.002-.077.009-.115.011-.038.002-.078,0-.116.002-4.864.285-10.299,3.808-13.174,10.155-5.461,12.057-1.527,33.594,15.799,32.667,17.316-1.103,18.708-22.952,11.876-34.289Z"/><g class="ac"><path class="af" d="m263.916,245.086c3.279-3.247,6.452-6.719,9.495-10.402,3.737.402,7.433.501,11.051.285-2.83,4.195-5.816,8.183-8.936,11.952-3.835-.303-7.717-.919-11.609-1.834Z"/><path class="af" d="m253.781,254.146c3.469-2.789,6.855-5.812,10.135-9.06,3.892.916,7.774,1.531,11.609,1.834-3.12,3.769-6.373,7.319-9.737,10.639-3.999-.832-8.013-1.974-12.006-3.414Z"/><path class="af" d="m232.188,267.974c3.694-1.806,7.358-3.869,10.966-6.177,4.039,1.973,8.13,3.651,12.237,5.022-3.559,2.849-7.204,5.457-10.908,7.814-4.158-1.92-8.268-4.144-12.295-6.659Z"/><path class="af" d="m243.153,261.797c3.608-2.308,7.159-4.862,10.628-7.651,3.994,1.439,8.008,2.581,12.006,3.414-3.364,3.32-6.838,6.41-10.397,9.259-4.107-1.371-8.198-3.05-12.237-5.022Z"/><path class="af" d="m240.764,236.12c3.416-2.223,6.779-4.68,10.065-7.36,3.766,1.562,7.557,2.845,11.342,3.837-3.194,3.18-6.491,6.143-9.868,8.877-3.88-1.501-7.737-3.29-11.539-5.355Z"/><path class="af" d="m230.384,242.078c3.495-1.745,6.964-3.735,10.38-5.958,3.802,2.065,7.659,3.854,11.539,5.355-3.377,2.734-6.835,5.239-10.346,7.505-3.921-2.019-7.789-4.324-11.572-6.902Z"/><path class="af" d="m209.319,249.53c3.489-.725,7.008-1.715,10.528-2.96,3.708,3.101,7.531,5.931,11.436,8.478-3.594,1.776-7.217,3.301-10.838,4.565-3.833-3.085-7.551-6.449-11.126-10.083Z"/><path class="af" d="m219.847,246.569c3.52-1.245,7.042-2.746,10.537-4.491,3.783,2.578,7.651,4.883,11.572,6.902-3.512,2.266-7.079,4.292-10.673,6.067-3.906-2.547-7.728-5.377-11.436-8.478Z"/><path class="af" d="m231.251,255.026c-3.594,1.774-7.216,3.298-10.838,4.56,3.832,3.086,7.778,5.892,11.805,8.407,3.694-1.807,7.358-3.871,10.966-6.181-4.04-1.971-8.028-4.237-11.934-6.786Z"/><path class="af" d="m241.923,248.963c-3.512,2.264-7.078,4.289-10.673,6.063,3.905,2.549,7.894,4.815,11.934,6.786,3.608-2.31,7.159-4.865,10.628-7.655-3.994-1.438-7.968-3.173-11.889-5.194Z"/><path class="af" d="m262.139,232.59c-3.194,3.179-6.491,6.14-9.869,8.873,3.88,1.502,7.783,2.717,11.675,3.631,3.279-3.249,6.451-6.721,9.494-10.406-3.737-.4-7.515-1.104-11.3-2.098Z"/><path class="af" d="m252.27,241.463c-3.377,2.733-6.835,5.236-10.347,7.501,3.921,2.021,7.895,3.756,11.889,5.194,3.469-2.79,6.855-5.815,10.134-9.064-3.892-.914-7.796-2.128-11.675-3.631Z"/><path class="af" d="m209.093,236.464c-3.387.72-6.744,1.181-10.04,1.372,3.259,4.159,6.691,8.061,10.266,11.694,3.489-.725,7.008-1.715,10.528-2.96-3.708-3.101-7.303-6.473-10.754-10.105Z"/><path class="af" d="m219.318,233.534c-3.419,1.229-6.837,2.21-10.224,2.93,3.451,3.632,7.046,7.004,10.754,10.105,3.52-1.245,7.042-2.746,10.537-4.491-3.783-2.578-7.482-5.43-11.067-8.544Z"/><path class="af" d="m239.641,223.251c-3.32,2.184-6.69,4.14-10.086,5.857,3.661,2.606,7.407,4.947,11.209,7.012,3.416-2.223,6.779-4.68,10.065-7.36-3.766-1.562-7.505-3.402-11.188-5.51Z"/><path class="af" d="m229.555,229.108c-3.396,1.717-6.817,3.196-10.237,4.426,3.585,3.114,7.283,5.966,11.067,8.544,3.495-1.745,6.964-3.735,10.38-5.958-3.802-2.065-7.548-4.406-11.209-7.012Z"/></g><path class="ax" d="m247.298,224.15c3.721-2.446,6.753-3.865,6.753-3.865-4.843-1.357-8.384.671-10.902,3.448,4.042-6.175,9.997-13.482,9.997-13.482-4.507,1.047-8.771,4.724-11.124,7.335.003-2.056-1.811-10.963-2.865-11.821-.946.975-1.708,10.033-1.465,12.074-2.641-2.318-7.305-5.472-11.904-5.986,0,0,6.768,6.562,11.503,12.223-2.825-2.464-6.579-4.065-11.23-2.152,0,0,3.177,1.055,7.158,3.05-2.038-.243-4.23.168-6.405,1.775,3.849.002,7.44.594,10.737,1.857.66.897,1.779,1.462,3.026,1.389s2.292-.765,2.843-1.733c3.127-1.639,6.624-2.647,10.447-3.098-2.348-1.341-4.573-1.494-6.569-1.015Z"/><path class="ar" d="m215.177,354.086c-3.597-5.969-9.405-8.833-14.27-8.547-.038.002-.077.009-.115.011-.038.002-.078,0-.116.002-4.864.285-10.299,3.808-13.174,10.155-5.461,12.057-1.527,33.594,15.799,32.667,17.316-1.103,18.708-22.952,11.876-34.289Z"/><path class="ax" d="m207.619,342.613c3.721-2.446,6.753-3.865,6.753-3.865-4.843-1.357-8.384.671-10.902,3.448,4.042-6.175,9.997-13.482,9.997-13.482-4.507,1.047-8.771,4.724-11.124,7.335.003-2.056-1.811-10.963-2.865-11.821-.946.975-1.708,10.033-1.465,12.074-2.641-2.318-7.305-5.472-11.904-5.986,0,0,6.768,6.562,11.503,12.223-2.825-2.464-6.579-4.065-11.23-2.152,0,0,3.177,1.055,7.158,3.05-2.038-.243-4.23.168-6.405,1.775,3.849.002,7.44.594,10.737,1.857.66.897,1.779,1.462,3.026,1.389s2.292-.765,2.843-1.733c3.127-1.639,6.624-2.647,10.447-3.098-2.348-1.341-4.573-1.494-6.569-1.015Z"/><g class="s"><path class="af" d="m223.237,363.55c3.279-3.247,6.452-6.719,9.495-10.402,3.737.402,7.433.501,11.051.285-2.83,4.195-5.816,8.183-8.936,11.952-3.835-.303-7.717-.919-11.609-1.834Z"/><path class="af" d="m213.102,372.609c3.469-2.789,6.855-5.812,10.135-9.06,3.892.916,7.774,1.531,11.609,1.834-3.12,3.769-6.373,7.319-9.737,10.639-3.999-.832-8.013-1.974-12.006-3.414Z"/><path class="af" d="m191.508,386.437c3.694-1.806,7.358-3.869,10.966-6.177,4.039,1.973,8.13,3.651,12.237,5.022-3.559,2.849-7.204,5.457-10.908,7.814-4.158-1.92-8.268-4.144-12.295-6.659Z"/><path class="af" d="m202.474,380.26c3.608-2.308,7.159-4.862,10.628-7.651,3.994,1.439,8.008,2.581,12.006,3.414-3.364,3.32-6.838,6.41-10.397,9.259-4.107-1.371-8.198-3.05-12.237-5.022Z"/><path class="af" d="m200.084,354.583c3.416-2.223,6.779-4.68,10.065-7.36,3.766,1.562,7.557,2.845,11.342,3.837-3.193,3.18-6.491,6.143-9.868,8.877-3.88-1.501-7.737-3.29-11.539-5.355Z"/><path class="af" d="m189.705,360.541c3.495-1.745,6.964-3.735,10.38-5.958,3.802,2.065,7.659,3.854,11.539,5.355-3.377,2.734-6.835,5.239-10.346,7.505-3.921-2.019-7.789-4.324-11.572-6.902Z"/><path class="af" d="m168.639,367.993c3.489-.725,7.008-1.715,10.528-2.961,3.708,3.101,7.531,5.931,11.436,8.478-3.594,1.776-7.217,3.301-10.838,4.565-3.833-3.085-7.551-6.449-11.126-10.083Z"/><path class="af" d="m179.168,365.032c3.52-1.245,7.042-2.746,10.537-4.491,3.783,2.578,7.651,4.883,11.572,6.902-3.512,2.266-7.078,4.292-10.673,6.067-3.906-2.547-7.728-5.377-11.436-8.478Z"/><path class="af" d="m190.571,373.489c-3.594,1.774-7.216,3.298-10.838,4.56,3.832,3.086,7.778,5.892,11.806,8.407,3.694-1.808,7.358-3.871,10.966-6.181-4.04-1.971-8.028-4.237-11.934-6.786Z"/><path class="af" d="m201.244,367.426c-3.512,2.264-7.078,4.289-10.673,6.063,3.905,2.549,7.894,4.815,11.934,6.786,3.608-2.31,7.159-4.865,10.628-7.655-3.994-1.438-7.968-3.173-11.889-5.194Z"/><path class="af" d="m221.46,351.053c-3.194,3.179-6.491,6.14-9.869,8.873,3.88,1.502,7.783,2.717,11.676,3.631,3.279-3.249,6.451-6.721,9.494-10.406-3.737-.4-7.515-1.104-11.3-2.098Z"/><path class="af" d="m211.591,359.926c-3.377,2.733-6.835,5.237-10.347,7.501,3.921,2.021,7.895,3.756,11.889,5.194,3.469-2.79,6.855-5.815,10.134-9.064-3.892-.914-7.796-2.129-11.676-3.631Z"/><path class="af" d="m168.414,354.927c-3.387.72-6.744,1.181-10.04,1.372,3.259,4.159,6.691,8.061,10.266,11.694,3.489-.725,7.008-1.715,10.528-2.961-3.708-3.101-7.303-6.473-10.754-10.105Z"/><path class="af" d="m178.638,351.997c-3.42,1.229-6.837,2.21-10.224,2.93,3.451,3.632,7.046,7.004,10.754,10.105,3.52-1.245,7.042-2.746,10.537-4.491-3.783-2.578-7.482-5.43-11.067-8.544Z"/><path class="af" d="m198.961,341.714c-3.32,2.184-6.69,4.14-10.086,5.857,3.661,2.606,7.407,4.947,11.209,7.012,3.416-2.223,6.779-4.68,10.065-7.36-3.766-1.562-7.505-3.402-11.188-5.51Z"/><path class="af" d="m188.875,347.571c-3.396,1.717-6.817,3.196-10.237,4.426,3.585,3.114,7.283,5.966,11.067,8.544,3.495-1.745,6.964-3.735,10.38-5.958-3.802-2.065-7.548-4.406-11.209-7.012Z"/></g><path class="ar" d="m259.301,311.476c-3.597-5.969-9.405-8.833-14.27-8.547-.038.002-.077.009-.115.011-.038.002-.078,0-.116.002-4.864.285-10.299,3.808-13.174,10.155-5.461,12.057-1.527,33.594,15.799,32.667,17.316-1.103,18.708-22.952,11.876-34.289Z"/><g class="ab"><path class="af" d="m267.36,320.939c3.28-3.247,6.452-6.719,9.495-10.402,3.737.402,7.433.501,11.051.285-2.83,4.195-5.816,8.183-8.936,11.952-3.835-.303-7.717-.919-11.609-1.834Z"/><path class="af" d="m257.226,329.999c3.469-2.789,6.855-5.812,10.135-9.06,3.892.916,7.774,1.531,11.609,1.834-3.12,3.769-6.373,7.319-9.737,10.639-3.999-.832-8.013-1.974-12.006-3.414Z"/><path class="af" d="m235.632,343.826c3.694-1.806,7.358-3.869,10.966-6.177,4.039,1.973,8.13,3.651,12.237,5.022-3.559,2.849-7.204,5.457-10.908,7.814-4.158-1.92-8.268-4.144-12.295-6.659Z"/><path class="af" d="m246.598,337.65c3.608-2.308,7.159-4.862,10.628-7.651,3.994,1.439,8.008,2.581,12.006,3.414-3.364,3.32-6.838,6.41-10.397,9.259-4.107-1.371-8.198-3.05-12.237-5.022Z"/><path class="af" d="m244.208,311.973c3.416-2.223,6.779-4.68,10.065-7.36,3.766,1.562,7.557,2.845,11.342,3.837-3.193,3.18-6.491,6.143-9.868,8.877-3.88-1.501-7.737-3.29-11.539-5.355Z"/><path class="af" d="m233.828,317.931c3.495-1.745,6.964-3.735,10.38-5.958,3.802,2.065,7.659,3.854,11.539,5.355-3.377,2.734-6.835,5.239-10.346,7.505-3.921-2.019-7.789-4.324-11.572-6.902Z"/><path class="af" d="m212.763,325.382c3.489-.725,7.008-1.715,10.528-2.96,3.708,3.101,7.531,5.931,11.436,8.478-3.594,1.776-7.217,3.301-10.838,4.565-3.833-3.085-7.551-6.449-11.126-10.083Z"/><path class="af" d="m223.291,322.422c3.52-1.245,7.042-2.746,10.537-4.491,3.783,2.578,7.651,4.883,11.572,6.902-3.512,2.266-7.078,4.292-10.673,6.067-3.906-2.547-7.728-5.377-11.436-8.478Z"/><path class="af" d="m234.695,330.879c-3.594,1.774-7.216,3.298-10.838,4.56,3.832,3.086,7.778,5.892,11.805,8.407,3.694-1.807,7.358-3.871,10.966-6.181-4.04-1.971-8.028-4.237-11.934-6.786Z"/><path class="af" d="m245.368,324.816c-3.512,2.264-7.079,4.289-10.673,6.063,3.905,2.549,7.894,4.815,11.934,6.786,3.608-2.31,7.159-4.865,10.628-7.655-3.994-1.438-7.968-3.173-11.889-5.194Z"/><path class="af" d="m265.583,308.442c-3.194,3.179-6.491,6.14-9.869,8.873,3.88,1.502,7.783,2.717,11.676,3.631,3.279-3.249,6.451-6.721,9.493-10.406-3.737-.4-7.515-1.104-11.3-2.098Z"/><path class="af" d="m255.715,317.315c-3.377,2.733-6.835,5.237-10.347,7.501,3.921,2.021,7.895,3.756,11.889,5.194,3.469-2.79,6.855-5.815,10.134-9.064-3.892-.914-7.796-2.128-11.676-3.631Z"/><path class="af" d="m212.537,312.317c-3.387.72-6.744,1.181-10.04,1.372,3.259,4.159,6.691,8.061,10.266,11.694,3.489-.725,7.008-1.715,10.528-2.96-3.708-3.101-7.303-6.473-10.754-10.105Z"/><path class="af" d="m222.762,309.387c-3.419,1.23-6.837,2.21-10.224,2.93,3.451,3.632,7.046,7.004,10.754,10.105,3.52-1.245,7.042-2.746,10.537-4.491-3.783-2.578-7.482-5.43-11.067-8.544Z"/><path class="af" d="m243.085,299.104c-3.32,2.184-6.69,4.14-10.086,5.857,3.661,2.606,7.407,4.947,11.209,7.012,3.416-2.223,6.779-4.68,10.065-7.36-3.766-1.562-7.505-3.402-11.188-5.51Z"/><path class="af" d="m232.999,304.961c-3.396,1.717-6.817,3.196-10.237,4.426,3.585,3.114,7.283,5.966,11.067,8.544,3.495-1.745,6.964-3.735,10.38-5.958-3.802-2.065-7.548-4.406-11.209-7.012Z"/></g><path class="ax" d="m251.742,300.002c3.721-2.446,6.753-3.865,6.753-3.865-4.843-1.357-8.384.671-10.902,3.448,4.042-6.175,9.997-13.482,9.997-13.482-4.507,1.047-8.771,4.724-11.124,7.335.003-2.056-1.811-10.963-2.865-11.821-.946.975-1.708,10.033-1.465,12.074-2.641-2.318-7.305-5.472-11.904-5.986,0,0,6.768,6.562,11.503,12.223-2.825-2.464-6.579-4.065-11.23-2.152,0,0,3.177,1.055,7.158,3.05-2.038-.243-4.23.168-6.405,1.775,3.849.002,7.44.594,10.737,1.857.66.897,1.779,1.462,3.026,1.389s2.292-.765,2.843-1.733c3.127-1.639,6.624-2.647,10.447-3.098-2.348-1.341-4.573-1.494-6.569-1.015Z"/><path class="ar" d="m250.412,159.77c-3.597-5.969-9.405-8.833-14.27-8.547-.038.002-.077.009-.115.011-.038.002-.078,0-.116.002-4.864.285-10.299,3.808-13.174,10.155-5.461,12.057-1.527,33.594,15.799,32.667,17.316-1.103,18.708-22.952,11.876-34.289Z"/><path class="ax" d="m242.854,148.297c3.721-2.446,6.753-3.865,6.753-3.865-4.843-1.357-8.384.671-10.902,3.448,4.042-6.175,9.997-13.482,9.997-13.482-4.507,1.047-8.771,4.724-11.124,7.335.003-2.056-1.811-10.963-2.865-11.821-.946.975-1.708,10.033-1.465,12.074-2.641-2.318-7.305-5.472-11.904-5.986,0,0,6.768,6.562,11.503,12.223-2.825-2.464-6.579-4.065-11.23-2.152,0,0,3.177,1.055,7.158,3.05-2.038-.243-4.23.168-6.405,1.775,3.849.002,7.44.594,10.737,1.857.66.897,1.779,1.462,3.026,1.389s2.292-.765,2.843-1.733c3.127-1.639,6.624-2.647,10.447-3.098-2.348-1.341-4.573-1.494-6.569-1.015Z"/><g class="ag"><path class="af" d="m258.472,169.234c3.279-3.247,6.452-6.718,9.495-10.402,3.737.402,7.433.501,11.051.285-2.83,4.195-5.816,8.183-8.936,11.951-3.835-.303-7.717-.919-11.609-1.834Z"/><path class="af" d="m248.337,178.293c3.469-2.789,6.855-5.812,10.135-9.06,3.892.916,7.774,1.531,11.609,1.834-3.12,3.769-6.373,7.319-9.737,10.639-3.999-.832-8.013-1.974-12.006-3.414Z"/><path class="af" d="m226.743,192.121c3.694-1.806,7.358-3.869,10.966-6.177,4.039,1.973,8.13,3.651,12.237,5.022-3.559,2.849-7.204,5.457-10.908,7.814-4.158-1.92-8.268-4.144-12.295-6.66Z"/><path class="af" d="m237.709,185.944c3.608-2.308,7.159-4.862,10.628-7.651,3.994,1.439,8.008,2.581,12.006,3.414-3.364,3.32-6.838,6.41-10.397,9.259-4.107-1.371-8.198-3.05-12.237-5.022Z"/><path class="af" d="m235.32,160.268c3.416-2.223,6.779-4.68,10.065-7.36,3.766,1.562,7.557,2.845,11.342,3.837-3.193,3.18-6.491,6.143-9.868,8.877-3.88-1.501-7.737-3.29-11.539-5.355Z"/><path class="af" d="m224.94,166.225c3.495-1.745,6.964-3.735,10.38-5.958,3.802,2.065,7.659,3.854,11.539,5.355-3.377,2.734-6.835,5.239-10.346,7.505-3.921-2.019-7.789-4.324-11.572-6.902Z"/><path class="af" d="m203.875,173.677c3.489-.725,7.008-1.715,10.528-2.96,3.708,3.101,7.531,5.931,11.436,8.478-3.594,1.776-7.217,3.301-10.838,4.565-3.833-3.085-7.551-6.449-11.126-10.083Z"/><path class="af" d="m214.403,170.716c3.52-1.245,7.042-2.746,10.537-4.491,3.783,2.578,7.651,4.883,11.572,6.902-3.512,2.266-7.079,4.292-10.673,6.067-3.906-2.547-7.728-5.377-11.436-8.478Z"/><path class="af" d="m225.806,179.173c-3.594,1.774-7.216,3.298-10.838,4.56,3.832,3.086,7.778,5.892,11.806,8.407,3.694-1.807,7.358-3.871,10.966-6.181-4.04-1.971-8.028-4.237-11.934-6.786Z"/><path class="af" d="m236.479,173.11c-3.512,2.264-7.079,4.289-10.673,6.063,3.905,2.549,7.894,4.815,11.934,6.786,3.608-2.31,7.159-4.865,10.628-7.655-3.994-1.438-7.968-3.173-11.888-5.194Z"/><path class="af" d="m256.695,156.737c-3.194,3.179-6.491,6.14-9.869,8.873,3.88,1.502,7.783,2.717,11.676,3.631,3.279-3.249,6.451-6.721,9.494-10.406-3.737-.4-7.515-1.104-11.3-2.098Z"/><path class="af" d="m246.826,165.61c-3.377,2.733-6.835,5.236-10.347,7.501,3.921,2.021,7.895,3.756,11.888,5.194,3.469-2.79,6.855-5.815,10.134-9.064-3.892-.914-7.796-2.128-11.676-3.631Z"/><path class="af" d="m203.649,160.611c-3.387.72-6.744,1.181-10.04,1.372,3.259,4.159,6.691,8.061,10.266,11.694,3.489-.725,7.008-1.715,10.528-2.96-3.708-3.101-7.303-6.473-10.754-10.105Z"/><path class="af" d="m213.873,157.681c-3.42,1.23-6.837,2.21-10.224,2.93,3.451,3.632,7.046,7.004,10.754,10.105,3.52-1.245,7.042-2.746,10.537-4.491-3.783-2.578-7.482-5.43-11.067-8.544Z"/><path class="af" d="m234.197,147.398c-3.32,2.184-6.69,4.14-10.086,5.857,3.661,2.606,7.407,4.947,11.209,7.012,3.416-2.223,6.779-4.68,10.065-7.36-3.766-1.562-7.505-3.402-11.188-5.51Z"/><path class="af" d="m224.11,153.255c-3.396,1.717-6.817,3.196-10.237,4.426,3.585,3.114,7.283,5.966,11.067,8.544,3.495-1.745,6.964-3.735,10.38-5.958-3.802-2.065-7.548-4.406-11.209-7.012Z"/></g><path class="ar" d="m133.874,268.233c3.597-5.969,9.405-8.833,14.27-8.547.038.002.077.009.115.011.038.002.078,0,.116.002,4.864.285,10.299,3.808,13.174,10.155,5.461,12.057,1.527,33.594-15.799,32.667-17.316-1.103-18.708-22.952-11.876-34.289Z"/><g class="ae"><path class="af" d="m124.869,277.785c-3.3-3.212-6.499-6.639-9.576-10.269-3.735.399-7.425.484-11.031.245,2.871,4.141,5.887,8.083,9.031,11.815,3.82-.279,7.691-.88,11.577-1.791Z"/><path class="af" d="m135.052,286.769c-3.482-2.773-6.883-5.772-10.183-8.984-3.885.911-7.757,1.512-11.577,1.791,3.144,3.732,6.414,7.255,9.792,10.558,3.982-.806,7.984-1.931,11.968-3.365Z"/><path class="af" d="m156.715,300.629c-3.708-1.832-7.383-3.911-11.002-6.224-4.03,1.964-8.109,3.624-12.201,4.966,3.568,2.852,7.22,5.474,10.933,7.855,4.147-1.889,8.249-4.091,12.27-6.597Z"/><path class="af" d="m145.714,294.405c-3.619-2.314-7.18-4.863-10.662-7.636-3.984,1.433-7.986,2.559-11.968,3.365,3.377,3.303,6.861,6.385,10.429,9.238,4.092-1.343,8.172-3.002,12.201-4.966Z"/><path class="af" d="m147.981,268.72c-3.426-2.192-6.802-4.606-10.106-7.234-3.763,1.601-7.556,2.913-11.342,3.923,3.221,3.127,6.538,6.047,9.932,8.747,3.875-1.517,7.725-3.333,11.516-5.436Z"/><path class="af" d="m158.385,274.614c-3.502-1.734-6.978-3.703-10.404-5.894-3.791,2.103-7.642,3.919-11.516,5.436,3.393,2.7,6.863,5.182,10.385,7.435,3.911-2.034,7.768-4.363,11.535-6.976Z"/><path class="af" d="m179.518,282.125c-3.508-.755-7.04-1.765-10.571-3.021-3.689,3.133-7.498,5.986-11.393,8.545,3.606,1.783,7.241,3.326,10.88,4.618,3.823-3.095,7.528-6.48,11.084-10.143Z"/><path class="af" d="m168.947,279.105c-3.531-1.256-7.06-2.756-10.562-4.49-3.767,2.613-7.624,4.943-11.535,6.976,3.523,2.253,7.099,4.276,10.704,6.059,3.895-2.559,7.704-5.412,11.393-8.545Z"/><path class="af" d="m157.587,287.628c3.605,1.782,7.24,3.323,10.879,4.614-3.822,3.096-7.761,5.902-11.781,8.406-3.708-1.834-7.384-3.913-11.002-6.228,4.03-1.963,8.01-4.231,11.904-6.792Z"/><path class="af" d="m146.882,281.574c3.523,2.251,7.099,4.273,10.704,6.055-3.894,2.561-7.874,4.829-11.904,6.792-3.618-2.315-7.18-4.865-10.661-7.64,3.984-1.432,7.95-3.171,11.861-5.206Z"/><path class="af" d="m126.564,265.4c3.221,3.126,6.539,6.044,9.933,8.743-3.874,1.519-7.773,2.739-11.658,3.649-3.3-3.214-6.498-6.641-9.575-10.273,3.735-.397,7.514-1.107,11.3-2.119Z"/><path class="af" d="m136.497,274.143c3.394,2.699,6.863,5.179,10.386,7.431-3.911,2.035-7.877,3.775-11.861,5.206-3.481-2.775-6.883-5.774-10.183-8.988,3.885-.91,7.783-2.13,11.658-3.649Z"/><path class="af" d="m179.625,268.875c3.395.734,6.764,1.217,10.08,1.44-3.224,4.206-6.63,8.147-10.186,11.81-3.508-.755-7.04-1.765-10.571-3.021,3.689-3.133,7.259-6.547,10.677-10.229Z"/><path class="af" d="m169.386,265.936c3.422,1.222,6.843,2.206,10.238,2.939-3.418,3.682-6.988,7.096-10.677,10.229-3.531-1.256-7.06-2.756-10.562-4.49,3.767-2.613,7.445-5.51,11.001-8.678Z"/><path class="af" d="m149.042,255.826c3.328,2.134,6.703,4.05,10.101,5.739-3.639,2.663-7.371,5.053-11.163,7.155-3.426-2.192-6.802-4.606-10.106-7.234,3.763-1.601,7.497-3.492,11.168-5.66Z"/><path class="af" d="m159.144,261.565c3.398,1.689,6.821,3.149,10.243,4.372-3.556,3.168-7.234,6.065-11.001,8.678-3.502-1.734-6.978-3.703-10.404-5.894,3.791-2.103,7.523-4.492,11.163-7.155Z"/></g><path class="ax" d="m141.433,256.76c-3.721-2.446-6.753-3.865-6.753-3.865,4.843-1.357,8.384.671,10.902,3.448-4.042-6.175-9.997-13.482-9.997-13.482,4.507,1.047,8.771,4.724,11.124,7.335-.003-2.056,1.811-10.963,2.865-11.821.946.975,1.708,10.033,1.465,12.074,2.641-2.318,7.305-5.472,11.904-5.986,0,0-6.768,6.562-11.503,12.223,2.825-2.464,6.579-4.065,11.23-2.152,0,0-3.177,1.055-7.158,3.05,2.038-.243,4.23.168,6.405,1.775-3.849.002-7.44.594-10.737,1.857-.66.897-1.779,1.462-3.026,1.389s-2.292-.765-2.843-1.733c-3.127-1.639-6.624-2.647-10.447-3.098,2.348-1.341,4.573-1.494,6.569-1.015Z"/><path class="ar" d="m89.75,238.623c3.597-5.969,9.405-8.833,14.27-8.547.038.002.077.009.115.011.038.002.078,0,.116.002,4.864.285,10.299,3.808,13.174,10.155,5.461,12.057,1.527,33.594-15.799,32.667-17.316-1.103-18.708-22.952-11.876-34.289Z"/><g class="v"><path class="af" d="m80.745,248.175c-3.3-3.212-6.499-6.639-9.576-10.269-3.735.399-7.425.484-11.031.245,2.871,4.141,5.887,8.083,9.031,11.815,3.82-.279,7.691-.88,11.577-1.791Z"/><path class="af" d="m90.928,257.159c-3.482-2.774-6.883-5.772-10.183-8.984-3.885.911-7.757,1.512-11.577,1.791,3.144,3.732,6.414,7.255,9.791,10.558,3.982-.806,7.984-1.931,11.968-3.365Z"/><path class="af" d="m112.592,271.019c-3.708-1.832-7.383-3.911-11.002-6.224-4.03,1.964-8.109,3.624-12.201,4.966,3.568,2.852,7.22,5.474,10.933,7.855,4.147-1.889,8.249-4.091,12.27-6.597Z"/><path class="af" d="m101.59,264.795c-3.619-2.314-7.18-4.863-10.662-7.636-3.984,1.433-7.986,2.559-11.968,3.365,3.377,3.303,6.861,6.385,10.429,9.238,4.092-1.342,8.172-3.002,12.201-4.966Z"/><path class="af" d="m103.857,239.109c-3.426-2.192-6.802-4.606-10.106-7.234-3.763,1.601-7.556,2.913-11.342,3.923,3.221,3.127,6.538,6.047,9.932,8.747,3.875-1.517,7.725-3.333,11.516-5.436Z"/><path class="af" d="m114.262,245.004c-3.502-1.734-6.978-3.703-10.404-5.894-3.791,2.103-7.642,3.919-11.516,5.436,3.393,2.7,6.863,5.182,10.385,7.435,3.911-2.034,7.768-4.363,11.535-6.976Z"/><path class="af" d="m135.395,252.515c-3.508-.755-7.04-1.765-10.571-3.021-3.689,3.133-7.498,5.986-11.393,8.545,3.606,1.783,7.241,3.326,10.88,4.618,3.823-3.095,7.528-6.48,11.084-10.143Z"/><path class="af" d="m124.824,249.494c-3.531-1.256-7.06-2.756-10.562-4.49-3.767,2.613-7.624,4.943-11.535,6.976,3.523,2.253,7.099,4.276,10.704,6.059,3.895-2.559,7.704-5.412,11.393-8.545Z"/><path class="af" d="m113.463,258.018c3.605,1.782,7.24,3.323,10.879,4.614-3.822,3.096-7.761,5.902-11.781,8.406-3.708-1.834-7.384-3.913-11.002-6.228,4.03-1.963,8.01-4.231,11.904-6.792Z"/><path class="af" d="m102.759,251.963c3.523,2.251,7.099,4.273,10.704,6.055-3.894,2.561-7.874,4.829-11.904,6.792-3.618-2.315-7.18-4.865-10.661-7.64,3.984-1.432,7.95-3.171,11.861-5.206Z"/><path class="af" d="m82.441,235.79c3.221,3.126,6.539,6.044,9.933,8.743-3.874,1.519-7.773,2.739-11.658,3.649-3.3-3.214-6.498-6.641-9.575-10.273,3.735-.397,7.514-1.107,11.3-2.119Z"/><path class="af" d="m92.373,244.533c3.394,2.699,6.863,5.179,10.386,7.431-3.911,2.035-7.877,3.775-11.861,5.206-3.481-2.775-6.883-5.774-10.183-8.988,3.885-.91,7.783-2.13,11.658-3.649Z"/><path class="af" d="m135.501,239.265c3.395.734,6.764,1.217,10.08,1.44-3.224,4.206-6.63,8.147-10.186,11.81-3.508-.755-7.04-1.765-10.571-3.021,3.689-3.133,7.259-6.547,10.677-10.229Z"/><path class="af" d="m125.263,236.326c3.422,1.222,6.843,2.205,10.238,2.939-3.418,3.682-6.988,7.096-10.677,10.229-3.531-1.256-7.06-2.756-10.562-4.49,3.767-2.613,7.445-5.51,11.001-8.678Z"/><path class="af" d="m104.918,226.216c3.328,2.134,6.703,4.05,10.101,5.739-3.639,2.663-7.371,5.053-11.163,7.155-3.426-2.192-6.802-4.606-10.106-7.234,3.763-1.601,7.497-3.492,11.168-5.66Z"/><path class="af" d="m115.02,231.954c3.398,1.689,6.821,3.149,10.243,4.372-3.556,3.168-7.234,6.065-11.001,8.678-3.502-1.734-6.978-3.703-10.404-5.894,3.791-2.103,7.523-4.492,11.163-7.155Z"/></g><path class="ax" d="m97.309,227.15c-3.721-2.446-6.753-3.865-6.753-3.865,4.843-1.357,8.384.671,10.902,3.448-4.042-6.175-9.997-13.482-9.997-13.482,4.507,1.047,8.771,4.724,11.124,7.335-.003-2.056,1.811-10.963,2.865-11.821.946.975,1.708,10.033,1.465,12.074,2.641-2.318,7.305-5.472,11.904-5.986,0,0-6.768,6.562-11.503,12.223,2.825-2.464,6.579-4.065,11.23-2.152,0,0-3.177,1.055-7.158,3.05,2.038-.243,4.23.168,6.405,1.775-3.849.002-7.44.594-10.737,1.857-.66.897-1.779,1.462-3.026,1.389s-2.292-.765-2.843-1.733c-3.127-1.639-6.624-2.647-10.447-3.098,2.348-1.341,4.573-1.494,6.569-1.015Z"/><path class="ar" d="m129.43,354.086c3.597-5.969,9.405-8.833,14.27-8.547.038.002.077.009.115.011.038.002.078,0,.116.002,4.864.285,10.299,3.808,13.174,10.155,5.461,12.057,1.527,33.594-15.799,32.667-17.316-1.103-18.708-22.952-11.876-34.289Z"/><path class="ax" d="m136.988,342.613c-3.721-2.446-6.753-3.865-6.753-3.865,4.843-1.357,8.384.671,10.902,3.448-4.042-6.175-9.997-13.482-9.997-13.482,4.507,1.047,8.771,4.724,11.124,7.335-.003-2.056,1.811-10.963,2.865-11.821.946.975,1.708,10.033,1.465,12.074,2.641-2.318,7.305-5.472,11.904-5.986,0,0-6.768,6.562-11.503,12.223,2.825-2.464,6.579-4.065,11.23-2.152,0,0-3.177,1.055-7.158,3.05,2.038-.243,4.23.168,6.405,1.775-3.849.002-7.44.594-10.737,1.857-.66.897-1.779,1.462-3.026,1.389s-2.292-.765-2.843-1.733c-3.127-1.639-6.624-2.647-10.447-3.098,2.348-1.341,4.573-1.494,6.569-1.015Z"/><g class="p"><path class="af" d="m121.425,363.638c-3.3-3.212-6.499-6.639-9.576-10.269-3.735.399-7.425.484-11.031.244,2.871,4.141,5.887,8.083,9.031,11.815,3.82-.279,7.691-.88,11.577-1.791Z"/><path class="af" d="m131.608,372.622c-3.482-2.774-6.883-5.772-10.183-8.984-3.885.911-7.757,1.512-11.577,1.791,3.144,3.732,6.414,7.255,9.792,10.558,3.982-.806,7.984-1.931,11.968-3.365Z"/><path class="af" d="m153.271,386.482c-3.708-1.832-7.383-3.911-11.002-6.224-4.03,1.964-8.109,3.624-12.201,4.966,3.568,2.852,7.22,5.474,10.933,7.854,4.147-1.889,8.249-4.091,12.27-6.597Z"/><path class="af" d="m142.269,380.258c-3.619-2.314-7.18-4.863-10.662-7.636-3.984,1.433-7.986,2.559-11.968,3.365,3.377,3.303,6.861,6.385,10.429,9.238,4.092-1.343,8.172-3.002,12.201-4.966Z"/><path class="af" d="m144.537,354.573c-3.426-2.192-6.802-4.606-10.106-7.234-3.763,1.601-7.556,2.913-11.342,3.923,3.221,3.127,6.538,6.047,9.932,8.747,3.875-1.517,7.725-3.333,11.516-5.436Z"/><path class="af" d="m154.941,360.467c-3.502-1.734-6.978-3.703-10.404-5.894-3.791,2.103-7.642,3.919-11.516,5.436,3.393,2.701,6.863,5.182,10.385,7.435,3.911-2.034,7.768-4.363,11.535-6.976Z"/><path class="af" d="m176.074,367.978c-3.508-.755-7.04-1.765-10.571-3.021-3.689,3.133-7.498,5.986-11.393,8.545,3.606,1.783,7.241,3.326,10.88,4.618,3.823-3.095,7.528-6.48,11.084-10.143Z"/><path class="af" d="m165.503,364.957c-3.531-1.256-7.06-2.756-10.562-4.49-3.767,2.613-7.624,4.943-11.535,6.976,3.523,2.253,7.099,4.276,10.704,6.059,3.895-2.559,7.704-5.412,11.393-8.545Z"/><path class="af" d="m154.143,373.481c3.605,1.782,7.24,3.323,10.879,4.614-3.822,3.096-7.761,5.902-11.781,8.406-3.708-1.834-7.384-3.913-11.002-6.228,4.03-1.963,8.01-4.231,11.904-6.792Z"/><path class="af" d="m143.438,367.426c3.523,2.251,7.099,4.273,10.704,6.055-3.894,2.561-7.874,4.829-11.904,6.792-3.618-2.315-7.18-4.865-10.661-7.64,3.984-1.432,7.95-3.171,11.861-5.206Z"/><path class="af" d="m123.12,351.253c3.221,3.126,6.539,6.044,9.933,8.743-3.874,1.519-7.773,2.739-11.658,3.649-3.3-3.214-6.498-6.641-9.575-10.273,3.735-.397,7.514-1.107,11.3-2.119Z"/><path class="af" d="m133.053,359.996c3.394,2.699,6.863,5.179,10.386,7.431-3.911,2.035-7.877,3.775-11.861,5.206-3.481-2.775-6.883-5.774-10.183-8.988,3.885-.91,7.783-2.13,11.658-3.649Z"/><path class="af" d="m176.18,354.728c3.395.734,6.764,1.217,10.08,1.44-3.224,4.206-6.63,8.147-10.186,11.81-3.508-.755-7.04-1.765-10.571-3.021,3.689-3.133,7.259-6.547,10.677-10.229Z"/><path class="af" d="m165.942,351.789c3.422,1.222,6.843,2.205,10.238,2.939-3.418,3.682-6.988,7.096-10.677,10.229-3.531-1.256-7.06-2.756-10.562-4.49,3.767-2.613,7.445-5.51,11.001-8.678Z"/><path class="af" d="m145.598,341.679c3.328,2.134,6.703,4.05,10.101,5.739-3.639,2.663-7.371,5.053-11.163,7.155-3.426-2.192-6.802-4.606-10.106-7.234,3.763-1.601,7.497-3.492,11.168-5.66Z"/><path class="af" d="m155.699,347.417c3.398,1.689,6.821,3.149,10.243,4.371-3.556,3.168-7.234,6.065-11.001,8.678-3.502-1.734-6.978-3.703-10.404-5.894,3.791-2.103,7.523-4.492,11.163-7.155Z"/></g><path class="ar" d="m85.306,311.476c3.597-5.969,9.405-8.833,14.27-8.547.038.002.077.009.115.011.038.002.078,0,.116.002,4.864.285,10.299,3.808,13.174,10.155,5.461,12.057,1.527,33.594-15.799,32.667-17.316-1.103-18.708-22.952-11.876-34.289Z"/><g class="aa"><path class="af" d="m77.301,321.027c-3.3-3.212-6.499-6.639-9.576-10.269-3.735.399-7.425.484-11.031.245,2.871,4.141,5.887,8.083,9.031,11.815,3.82-.279,7.691-.88,11.577-1.791Z"/><path class="af" d="m87.484,330.011c-3.482-2.774-6.883-5.772-10.183-8.984-3.885.911-7.757,1.512-11.577,1.791,3.144,3.732,6.414,7.255,9.792,10.558,3.982-.806,7.984-1.931,11.968-3.365Z"/><path class="af" d="m109.148,343.872c-3.708-1.832-7.383-3.911-11.002-6.224-4.03,1.964-8.109,3.624-12.201,4.966,3.568,2.852,7.22,5.474,10.933,7.855,4.147-1.889,8.249-4.091,12.27-6.597Z"/><path class="af" d="m98.146,337.647c-3.619-2.314-7.18-4.863-10.662-7.636-3.984,1.433-7.986,2.559-11.968,3.365,3.377,3.303,6.861,6.385,10.429,9.238,4.092-1.342,8.172-3.002,12.201-4.966Z"/><path class="af" d="m100.413,311.962c-3.426-2.192-6.802-4.606-10.106-7.234-3.763,1.601-7.556,2.913-11.342,3.923,3.221,3.127,6.538,6.047,9.932,8.747,3.875-1.517,7.725-3.333,11.516-5.436Z"/><path class="af" d="m110.817,317.857c-3.502-1.734-6.978-3.703-10.404-5.894-3.791,2.103-7.642,3.919-11.516,5.436,3.393,2.7,6.863,5.182,10.385,7.435,3.911-2.034,7.768-4.363,11.535-6.976Z"/><path class="af" d="m131.951,325.368c-3.508-.755-7.04-1.765-10.571-3.021-3.689,3.133-7.498,5.986-11.393,8.545,3.606,1.783,7.241,3.326,10.88,4.618,3.823-3.095,7.528-6.48,11.084-10.143Z"/><path class="af" d="m121.379,322.347c-3.531-1.256-7.06-2.756-10.562-4.49-3.767,2.613-7.624,4.943-11.535,6.976,3.523,2.253,7.099,4.276,10.704,6.059,3.895-2.559,7.704-5.412,11.393-8.545Z"/><path class="af" d="m110.019,330.871c3.605,1.782,7.24,3.323,10.879,4.614-3.822,3.096-7.761,5.902-11.781,8.406-3.708-1.834-7.384-3.913-11.002-6.228,4.03-1.963,8.01-4.231,11.904-6.792Z"/><path class="af" d="m99.315,324.816c3.523,2.251,7.099,4.273,10.704,6.055-3.894,2.561-7.874,4.829-11.904,6.792-3.618-2.315-7.18-4.865-10.661-7.64,3.984-1.432,7.95-3.171,11.861-5.206Z"/><path class="af" d="m78.996,308.643c3.221,3.126,6.539,6.044,9.933,8.743-3.874,1.519-7.773,2.739-11.658,3.649-3.3-3.214-6.498-6.641-9.575-10.273,3.735-.397,7.514-1.107,11.3-2.119Z"/><path class="af" d="m88.929,317.385c3.394,2.699,6.863,5.179,10.386,7.431-3.911,2.035-7.877,3.775-11.861,5.206-3.481-2.775-6.883-5.774-10.183-8.988,3.885-.91,7.783-2.13,11.658-3.649Z"/><path class="af" d="m132.057,312.118c3.395.734,6.764,1.217,10.08,1.44-3.224,4.206-6.63,8.147-10.186,11.81-3.508-.755-7.04-1.765-10.571-3.021,3.689-3.133,7.259-6.547,10.677-10.229Z"/><path class="af" d="m121.818,309.179c3.422,1.222,6.843,2.205,10.238,2.939-3.418,3.682-6.988,7.096-10.677,10.229-3.531-1.256-7.06-2.756-10.562-4.49,3.767-2.613,7.445-5.51,11.001-8.678Z"/><path class="af" d="m101.474,299.068c3.328,2.134,6.703,4.05,10.101,5.739-3.639,2.663-7.371,5.053-11.163,7.155-3.426-2.192-6.802-4.606-10.106-7.234,3.763-1.601,7.497-3.492,11.168-5.66Z"/><path class="af" d="m111.576,304.807c3.398,1.689,6.821,3.149,10.243,4.372-3.556,3.168-7.234,6.065-11.001,8.678-3.502-1.734-6.978-3.703-10.404-5.894,3.791-2.103,7.523-4.492,11.163-7.155Z"/></g><path class="ax" d="m92.865,300.002c-3.721-2.446-6.753-3.865-6.753-3.865,4.843-1.357,8.384.671,10.902,3.448-4.042-6.175-9.997-13.482-9.997-13.482,4.507,1.047,8.771,4.724,11.124,7.335-.003-2.056,1.811-10.963,2.865-11.821.946.975,1.708,10.033,1.465,12.074,2.641-2.318,7.305-5.472,11.904-5.986,0,0-6.768,6.562-11.503,12.223,2.825-2.464,6.579-4.065,11.23-2.152,0,0-3.177,1.055-7.158,3.05,2.038-.243,4.23.168,6.405,1.775-3.849.002-7.44.594-10.737,1.857-.66.897-1.779,1.462-3.026,1.389s-2.292-.765-2.843-1.733c-3.127-1.639-6.624-2.647-10.447-3.098,2.348-1.341,4.573-1.494,6.569-1.015Z"/><path class="ar" d="m94.195,159.77c3.597-5.969,9.405-8.833,14.27-8.547.038.002.077.009.115.011.038.002.078,0,.116.002,4.864.285,10.299,3.808,13.174,10.155,5.461,12.057,1.527,33.594-15.799,32.667-17.316-1.103-18.708-22.952-11.876-34.289Z"/><path class="ax" d="m101.753,148.297c-3.721-2.446-6.753-3.865-6.753-3.865,4.843-1.357,8.384.671,10.902,3.448-4.042-6.175-9.997-13.482-9.997-13.482,4.507,1.047,8.771,4.724,11.124,7.335-.003-2.056,1.811-10.963,2.865-11.821.946.975,1.708,10.033,1.465,12.074,2.641-2.318,7.305-5.472,11.904-5.986,0,0-6.768,6.562-11.503,12.223,2.825-2.464,6.579-4.065,11.23-2.152,0,0-3.177,1.055-7.158,3.05,2.038-.243,4.23.168,6.405,1.775-3.849.002-7.44.594-10.737,1.857-.66.897-1.779,1.462-3.026,1.389s-2.292-.765-2.843-1.733c-3.127-1.639-6.624-2.647-10.447-3.098,2.348-1.341,4.573-1.494,6.569-1.015Z"/><g class="r"><path class="af" d="m86.189,169.322c-3.3-3.212-6.499-6.639-9.576-10.269-3.735.399-7.425.484-11.031.245,2.871,4.141,5.887,8.083,9.031,11.815,3.82-.279,7.691-.88,11.577-1.791Z"/><path class="af" d="m96.373,178.306c-3.482-2.774-6.883-5.772-10.183-8.984-3.885.911-7.757,1.512-11.577,1.791,3.144,3.732,6.414,7.255,9.792,10.558,3.982-.806,7.984-1.931,11.968-3.365Z"/><path class="af" d="m118.036,192.166c-3.708-1.832-7.383-3.911-11.002-6.224-4.03,1.964-8.109,3.624-12.201,4.966,3.568,2.852,7.22,5.474,10.933,7.855,4.147-1.889,8.249-4.091,12.27-6.597Z"/><path class="af" d="m107.034,185.942c-3.619-2.314-7.18-4.863-10.662-7.636-3.984,1.433-7.986,2.559-11.968,3.365,3.377,3.303,6.861,6.385,10.429,9.238,4.092-1.342,8.172-3.002,12.201-4.966Z"/><path class="af" d="m109.302,160.257c-3.426-2.192-6.802-4.606-10.106-7.234-3.763,1.601-7.556,2.913-11.342,3.923,3.221,3.127,6.538,6.047,9.932,8.747,3.875-1.517,7.725-3.333,11.516-5.436Z"/><path class="af" d="m119.706,166.151c-3.502-1.734-6.978-3.703-10.404-5.894-3.791,2.103-7.642,3.919-11.516,5.436,3.393,2.7,6.863,5.182,10.385,7.435,3.911-2.034,7.768-4.363,11.535-6.976Z"/><path class="af" d="m140.839,173.662c-3.508-.755-7.04-1.765-10.571-3.021-3.689,3.133-7.498,5.986-11.393,8.545,3.606,1.783,7.241,3.326,10.88,4.618,3.823-3.095,7.528-6.48,11.084-10.143Z"/><path class="af" d="m130.268,170.642c-3.531-1.256-7.06-2.756-10.562-4.49-3.767,2.613-7.624,4.943-11.535,6.976,3.523,2.253,7.099,4.276,10.704,6.059,3.895-2.559,7.704-5.412,11.393-8.545Z"/><path class="af" d="m118.907,179.165c3.605,1.782,7.24,3.323,10.879,4.614-3.822,3.096-7.761,5.902-11.781,8.406-3.708-1.834-7.383-3.913-11.002-6.228,4.03-1.963,8.01-4.231,11.904-6.792Z"/><path class="af" d="m108.203,173.11c3.523,2.251,7.099,4.273,10.704,6.055-3.894,2.561-7.874,4.829-11.904,6.792-3.618-2.315-7.18-4.865-10.661-7.64,3.984-1.432,7.95-3.171,11.861-5.206Z"/><path class="af" d="m87.885,156.937c3.221,3.126,6.539,6.044,9.933,8.743-3.874,1.519-7.773,2.739-11.658,3.649-3.3-3.214-6.498-6.641-9.575-10.273,3.735-.397,7.514-1.107,11.3-2.119Z"/><path class="af" d="m97.817,165.68c3.394,2.699,6.863,5.179,10.386,7.431-3.911,2.035-7.877,3.775-11.861,5.206-3.481-2.775-6.883-5.774-10.183-8.988,3.885-.91,7.783-2.13,11.658-3.649Z"/><path class="af" d="m140.945,160.412c3.395.734,6.764,1.217,10.08,1.44-3.224,4.206-6.63,8.147-10.186,11.81-3.508-.755-7.04-1.765-10.571-3.021,3.689-3.133,7.259-6.547,10.677-10.229Z"/><path class="af" d="m130.707,157.473c3.422,1.222,6.843,2.205,10.238,2.939-3.418,3.682-6.988,7.096-10.677,10.229-3.531-1.256-7.06-2.756-10.562-4.49,3.767-2.613,7.445-5.51,11.001-8.678Z"/><path class="af" d="m110.363,147.363c3.328,2.134,6.703,4.05,10.101,5.739-3.639,2.663-7.371,5.053-11.163,7.155-3.426-2.192-6.802-4.606-10.106-7.234,3.763-1.601,7.497-3.492,11.168-5.66Z"/><path class="af" d="m120.464,153.102c3.398,1.689,6.821,3.149,10.243,4.372-3.556,3.168-7.234,6.065-11.001,8.678-3.502-1.734-6.978-3.703-10.404-5.894,3.791-2.103,7.523-4.492,11.163-7.155Z"/></g></g><path class="ai" d="m218.143,175.611c3.257,2.494,5.019,6.486,6.018,10.465,2.004,7.983,1.427,16.448-.526,24.445s-5.24,15.598-8.669,23.08c-3.06-.495-5.864-2.031-8.482-3.691-1.838-1.165-3.5-2.585-5.297-3.811-5.311-3.626-13.802-8.491-20.228-8.238-3.255-3.975-.247-7.116,2.638-11.367s7.18-7.312,10.69-11.063c3.622-3.87,6.392-8.459,9.875-12.455,3.483-3.996,7.871-13.124,13.981-7.365Z"/><path class="ai" d="m127.713,175.611c-3.257,2.494-5.019,6.486-6.018,10.465-2.004,7.983-1.427,16.448.526,24.445,1.953,7.996,5.24,15.598,8.669,23.08,3.06-.495,5.864-2.031,8.482-3.691,1.838-1.165,3.5-2.585,5.297-3.811,5.311-3.626,13.802-8.491,20.228-8.238,3.255-3.975.247-7.116-2.638-11.367s-7.18-7.312-10.69-11.063c-3.622-3.87-6.392-8.459-9.875-12.455-3.483-3.996-7.871-13.124-13.981-7.365Z"/><path class="ai" d="m242.797,194.984c6.763,22.513,13.816,47.468,20.371,71.246,6.96-1.406,21.995-.776,24.65-7.362,4.883-12.109,2.137-16.807-1.037-22.544-.949-1.716-2.056-3.345-3.333-4.833-11.956-13.929-25.38-26.268-40.651-36.507Z"/><path class="ai" d="m98.041,194.984c-6.763,22.513-16.333,55.217-22.889,78.995-6.96-1.406-10.578-.135-14.889-5.778-2.34-3.063-6.09-13.77-6.889-19.333-.902-6.284,1.939-15.06,6.141-19.819,11.417-12.932,24.153-24.429,38.526-34.065Z"/><path class="ap" d="m235.939,91.003c2.444-5.407-1.333-9.407-3.838-9.861,3.468-5.497-2.875-19.546-8.431-21.484,1.817-6.067,1.3-12.478-.593-17.434,2.536-3.516.815-12.406-2.407-14.628,2.778-3.222,2.757-11.893-.333-15.556,1.645-4.782-5.147-13.56-9.583-11.813-4.681,1.051-7.705,32.285-7.705,32.285-3.064-3.319-8.857-3.52-10.567-.884-5.481-10.231-16.416-5.626-16.562-5.915-2.45-4.863-10.518-3.823-12.506.467-5.4-2.362-12.363,1.341-12.067,6.526-5.567-2.303-10.251.177-12.726,3.503-.753-12.021-5.118-28.553-7.284-32.391-4.111-6.778-7.333-3.333-9.426,2.946-1.442,3.703-1.684,8.021.481,11.353-4.388,2.257-4.611,13.189-1.268,16.305-6.064,8.315-2.422,24.865-1.348,25.236-8.772,5.827-9.35,16.378-9.35,21.484-3.076-.488-9.001,7.741-6.016,14.507-9.482,8.253-6.21,28.256,2.477,31.93-6.661,9.869-3.698,24.387,8.728,27.814-1.275,9.003,6.806,14.957,14.867,14.114-.151,1.039.004,2.12.44,3.074-9.524,9.616-1.023,18.352,4.114,19.046.074.168.153.322.238.46-3.003,5.71,1.201,12.628,7.471,12.915,2.338,9.162,10.997,7.269,13.587,7.253.175.117.353.234.525.351.084-.023.164-.057.246-.087,6.491,9.548,27.95,10.523,32.538-1.729.032-.055.269.019.301-.036,8.583,5.441,20.71-1.917,16.146-12.591-.003-.037,0-.075-.002-.112.012-.006.025-.011.037-.017,10.43-1.975,10.311-11.952,8.326-15.033,9.65-8.386,4.227-16.775,4.167-16.868.046-.011.088-.028.136-.036,13.919-2.795,15.253-14.43,12.322-20.145,11.162-3.248,10.643-18.137,6.227-23.063,3.837-4.587,6.114-10.455,6.378-16.43.263-5.974-4.406-14.052-7.739-15.459Z"/><path class="az" d="m214.7,95.826c-7.338-21.007-16.777-22.393-43.777-22.393-23.19,1.285-36.439,1.386-43.777,22.393-5.073,15.418-.701,35.28,10.042,48.805,7.777,9.633,20.608,18.328,33.275,18.7.153.004.307-.001.46,0,.153-.001.308.005.46,0,12.667-.372,25.498-9.068,33.275-18.7,10.743-13.525,15.115-33.388,10.042-48.805Z"/><path class="as" d="m196.132,114.489l-.024-.194c-1.462-12.821-13.321-20.376-25.186-20.126-11.865-.25-23.724,7.306-25.186,20.126l-.024.194c-.898,6.492-.445,12.931,3.568,18.033.34,9.153,10.596,16.484,20.758,16.484.294,0,.589-.008.883-.02.294.012.589.02.883.02,10.162,0,20.418-7.331,20.758-16.484,4.013-5.102,4.467-11.541,3.568-18.033Z"/><path class="an" d="m204.492,493.325c.256,2.153,1.495,4.169,3.3,5.37.259.172.539.332.848.364.286.03.573-.053.839-.164.864-.363,1.587-1.052,1.99-1.898.326-.684.443-1.447.553-2.197.268-1.827.496-3.786-.325-5.44-2.763-5.562-7.697-.174-7.204,3.965Z"/><path class="an" d="m213.929,492.919c.936,2.169,3.088,3.763,5.435,4.028.251.028.516.041.747-.061.192-.085.342-.24.475-.402,1.395-1.697,1.223-4.17.744-6.314-.373-1.67-.969-3.428-2.355-4.431-4.413-3.193-6.312,4.247-5.046,7.18Z"/><path class="an" d="m138.866,495.45c-.256,2.153-1.495,4.169-3.3,5.37-.259.172-.539.332-.848.364-.286.03-.573-.053-.839-.164-.864-.363-1.587-1.052-1.99-1.898-.326-.684-.443-1.447-.553-2.197-.268-1.827-.496-3.786.325-5.44,2.763-5.562,7.697-.174,7.204,3.965Z"/><path class="an" d="m128.207,494.919c-.936,2.169-3.088,3.763-5.435,4.028-.251.028-.516.041-.747-.061-.192-.085-.342-.24-.475-.402-1.395-1.697-1.223-4.17-.744-6.314.373-1.67.969-3.428,2.355-4.431,4.413-3.193,6.312,4.247,5.046,7.18Z"/><path class="aj" d="m218.571,166.218c-1.775.076-2.705-.557-2.705-.557-.134,3.281-6.792,8.996-12.202,6.096-2.126,6.248-15.552,9.463-20.757,1.444-4.647,12.147-21.994,11.65-27.092,0-6.301,7.971-21.437,4.902-22.723-5.963-.835,1.573-1.168,1.693-2.61,2.269-.151,1.039.004,2.119.44,3.074-9.807,9.902-.542,18.961,4.522,19.175-3.44,5.783.836,13.04,7.259,13.333,2.741,10.741,14.175,6.287,14.327,7.476,6.488,9.635,28.191,10.598,32.642-1.864,8.862,5.478,21.158-1.762,16.415-12.539,10.512-1.938,10.31-11.985,8.32-15.074,9.704-8.433,4.164-16.872,4.164-16.872Z"/><path class="aj" d="m123.478,106.284c4.916-.09,5.707-17.324,3.384-19.797,4.378.751,7.267-1.151,8.607-3.525,3.156.669,10.076-3.612,10.455-6.868,6.316,11.311,21.982,6.978,23.982-.362,3,9.062,18.889,10.229,22.908-1.691,1.05,6.919,11.648,10.864,19.181,8.229-2.846,5.579.134,11.468,3.313,13.241-.959.868-1.134,7.612,1.832,10.772,7.977.757,15.341-14.824,7.506-20.753,5.872-6.015,2.65-15.737-1.906-18.459-2,2.722-6.889,3.722-8.222-1.833-3.46,5.787-19.877,6.07-21.905.872-3.761,8.239-19.093,9.326-23.317,2.462-4.845,7.691-19,5.463-23.13-2.462-4.528,4.563-16.512,4.746-20.044-1.093.635-.617-1.378,5.61-5.382,2.054-5.176,2.862-4.526,12.389-2.748,14.611-7.667,7.222-5.652,24.175,5.486,24.601Z"/><path class="aj" d="m213.275,48.75c1.965-.246,3.125-2.353,3.536-4.29,1.307-6.172-1.684-12.436-1.693-18.745-.005-3.419.292-7.841-.663-11.191-1.229-4.309-1.92,1.209-2.42,2.89-2.027,6.817-3.298,13.862-3.788,20.957-.181,2.621-.227,5.382.975,7.717.789,1.531,2.344,2.875,4.054,2.661Z"/><path class="aj" d="m127.941,48.75c-1.965-.246-3.374-5.801-3.651-7.762-.833-5.889,1.579-8.941,1.589-15.25.005-3.419-.072-7.864.883-11.214,1.229-4.309,1.92,1.209,2.42,2.89,2.027,6.817,3.393,11.174,3.882,18.269.181,2.621-.264,7.316-1.466,9.651-.789,1.531-1.948,3.629-3.658,3.415Z"/><path class="aq" d="m171.202,128.496l-5.92,3.067c2.017,2.594,3.902,2.822,5.92,2.822s3.902-.227,5.92-2.822l-5.92-3.067Z"/><path class="q" d="m171.202,123.496v5.778c-2.162.098-6.806,3.333-9.806,3.333s-4.905-2.861-4.889-5.444"/><path class="q" d="m171.202,123.496v5.778c2.162.098,6.806,3.333,9.806,3.333s4.905-2.861,4.889-5.444"/><path class="aw" d="m171.202,99.941c-6.25,0-9.223,9.518-10.076,16.547l10.076,7.008,10.076-7.008c-.854-7.029-3.826-16.547-10.076-16.547Z"/><path class="an" d="m180.334,114.96c-.828-.292-1.688.262-2.439.717-2.108,1.277-4.271,2.378-6.693,2.399-2.422-.02-4.585-1.122-6.693-2.399-.751-.455-1.611-1.009-2.439-.717-1.022.36-1.202,1.852-.6,2.753.601.902,4.105,4.458,4.955,5.131,2.296,1.816,7.26,1.816,9.556,0,.85-.672,4.354-4.229,4.955-5.131s.422-2.393-.6-2.753Z"/><path class="ay" d="m129.54,81.384c-4.147-6.26-3.633-15.682,2.34-20.67,1.236-1.032-.541-2.793-1.768-1.768-6.783,5.665-7.446,16.58-2.731,23.7.884,1.335,3.051.085,2.159-1.262h0Z"/><path class="ay" d="m145.621,65.643c-1.074,1.565-1.722,3.343-1.867,5.237-.133,1.726.213,3.478.749,5.112.21.641.864,1.058,1.538.873.628-.173,1.084-.893.873-1.538-.475-1.451-.761-2.781-.67-4.296.086-1.433.679-2.877,1.536-4.127.382-.557.104-1.387-.448-1.71-.619-.362-1.327-.11-1.71.448h0Z"/><path class="ay" d="m168.339,68.718c.178,2.086.356,4.173.534,6.259l.077.901c.055.65.535,1.282,1.25,1.25.63-.028,1.31-.552,1.25-1.25-.178-2.086-.356-4.173-.534-6.259l-.077-.901c-.055-.65-.535-1.282-1.25-1.25-.63.028-1.31.552-1.25,1.25h0Z"/><path class="ay" d="m190.732,63.349c.042.081.081.163.12.246.051.108.101.217.149.326.045.102.18.427.066.148.34.835.64,1.683.88,2.552.618,2.237.881,4.607.214,6.877-.455,1.547,1.957,2.207,2.411.665,1.151-3.916.162-8.502-1.682-12.074-.738-1.43-2.896-.167-2.159,1.262h0Z"/><path class="ay" d="m207.403,59.131c1.979,1.201,3.983,3.299,5.33,5.508,3.244,5.318,2.313,11.334-.667,16.56-.798,1.4,1.361,2.661,2.159,1.262,2.687-4.711,4.083-10.248,2.314-15.535-1.108-3.313-3.245-6.251-5.912-8.49-.621-.521-1.267-1.041-1.962-1.463-1.379-.837-2.637,1.324-1.262,2.159h0Z"/><path class="aj" d="m163.331,41.353c2.322-1.343,4.886-2.545,7.605-2.712s5.225.792,7.324,2.516c.526.432,1.252.505,1.768,0,.447-.437.52-1.34,0-1.768-2.528-2.075-5.523-3.395-8.842-3.261-3.262.131-6.328,1.453-9.117,3.066-1.392.805-.135,2.966,1.262,2.159h0Z"/><path class="aj" d="m189.811,44.635c2.027-.146,3.888-.089,5.768.578.562.199,1.325.588,1.957,1.059.103.077-.085-.074.079.065.077.065.153.13.228.197.149.134.294.274.432.419.139.146.272.298.401.454.08.096-.059-.086.066.085.073.1.143.201.212.303.378.558,1.1.805,1.71.448.554-.324.829-1.149.448-1.71-1.149-1.697-2.718-2.905-4.626-3.64-2.101-.809-4.452-.917-6.676-.757-.673.049-1.25.54-1.25,1.25,0,.639.573,1.299,1.25,1.25h0Z"/><path class="aj" d="m141.716,47.548c1.244-.897,2.637-1.628,4.035-2.25,2.549-1.133,5.51-1.893,8.296-1.349.662.129,1.349-.187,1.538-.873.169-.613-.207-1.408-.873-1.538-3.333-.651-6.673.089-9.753,1.398-1.564.665-3.122,1.456-4.504,2.453-.547.394-.812,1.088-.448,1.71.316.54,1.16.845,1.71.448h0Z"/><path class="ay" d="m213.275,48.897c1.965-.246,3.125-2.353,3.536-4.29.543-2.563.341-5.142-.078-7.733-.045-.209-.09-.415-.133-.599-.823-3.556-3.399-.222-4.033-3.778-.461-2.586-2.381-2.468-3.396-2.211-.424,2.73-.736,5.477-.926,8.233-.181,2.621-.227,5.382.975,7.717.789,1.531,2.344,2.875,4.054,2.661Z"/><path class="ay" d="m132.717,32.032c-.204-.249-.437-.42-.708-.473-2.264-.444-3.292,6.667-5.069,5.881-.98-.433-2.025.473-2.768,1.374-.096.942-.158,1.887-.103,2.831.084,1.438.436,2.859,1.032,4.17.573,1.259,1.567,2.996,2.947,3.082,1.442.09,2.611-1.619,3.312-2.882,2.196-3.955,1.993-8.77,1.453-13.261-.029-.241-.066-.481-.097-.721Z"/><path class="aj" d="m221.202,109.606c.14.282.276.566.397.856-.064-.153.088.227.113.294.063.167.124.336.182.505.262.77.463,1.56.601,2.361.313,1.815.215,3.764-.179,5.587-.142.659.197,1.352.873,1.538.624.171,1.394-.21,1.538-.873.847-3.922.423-7.932-1.367-11.53-.301-.604-1.156-.773-1.71-.448-.616.36-.75,1.104-.448,1.71h0Z"/><path class="aj" d="m218.749,139.93c1.689-.81,3.193-2.006,4.187-3.611,1.26-2.036,1.541-4.518,1.35-6.861-.055-.673-.535-1.25-1.25-1.25-.634,0-1.305.573-1.25,1.25.05.615.073,1.232.048,1.849-.025.61-.057.903-.159,1.404-.096.472-.239.923-.397,1.376-.119.341.105-.206-.046.115-.047.099-.092.199-.142.296-.096.19-.2.377-.313.558-.109.177-.228.346-.35.514.126-.174.008-.011-.056.066s-.131.153-.198.228c-.268.295-.562.558-.864.817-.199.17.175-.12-.057.045-.08.057-.158.115-.239.171-.148.102-.298.2-.451.294-.347.213-.707.403-1.074.579-.609.292-.769,1.162-.448,1.71.364.622,1.099.741,1.71.448h0Z"/><path class="aj" d="m117.939,114.164c-.917,3.106-1.416,6.571-.07,9.632,1.166,2.652,3.555,4.26,6.193,5.239l-.873-1.538c-.861,5.969-.243,12.695,5.991,15.412,1.46.636,2.735-1.517,1.262-2.159-2.149-.936-3.789-2.46-4.531-4.722-.826-2.517-.684-5.28-.311-7.866.103-.716-.171-1.277-.873-1.538-1.992-.74-3.853-1.998-4.672-4.038-.994-2.476-.432-5.296.295-7.758.456-1.546-1.956-2.207-2.411-.665h0Z"/><path class="ay" d="m132.375,169.813c.196.236-.079-.114-.069-.094l1.412-1.836h0c.184.107.368.214.552.321-.194-.19.237.335.007.008-.123-.175-.242-.352-.355-.533-.167-.27-.323-.546-.467-.829-.088-.173-.173-.349-.252-.526-.028-.063-.135-.336-.025-.054-.036-.093-.074-.185-.109-.278-.148-.396-.273-.801-.37-1.213-.03-.126-.056-.253-.08-.381-.007-.037-.063-.373-.042-.225.022.147-.021-.194-.025-.234-.012-.136-.021-.272-.027-.409-.037-.978.119-1.855.519-2.697.289-.609.169-1.349-.448-1.71-.544-.318-1.419-.164-1.71.448-1.076,2.266-1.098,4.796-.21,7.132.306.806.676,1.59,1.138,2.319.333.527.64,1.029,1.24,1.272.45.183,1.048-.092,1.314-.448.318-.425.323-.917.098-1.388-.071-.148-.213-.282-.322-.412-.432-.519-1.321-.447-1.768,0-.514.514-.433,1.247,0,1.768h0Z"/><path class="ay" d="m157.187,174.087c-.091-.157-.184-.314-.271-.474-.092-.17-.18-.342-.265-.516-.053-.11-.106-.22-.156-.331-.025-.054-.049-.109-.073-.163-.017-.039-.131-.288-.041-.091.088.191-.009-.024-.026-.067-.03-.075-.059-.15-.088-.226-.05-.131-.097-.262-.143-.394-.106-.308-.2-.62-.279-.935-.038-.149-.072-.299-.102-.449-.033-.161-.027-.404-.095-.553.057.123.024.19.005.005-.008-.078-.015-.157-.02-.236-.013-.189-.017-.379-.016-.568.004-.654-.578-1.28-1.25-1.25-.68.03-1.246.549-1.25,1.25-.012,2.209.816,4.373,1.911,6.261.328.566,1.144.813,1.71.448.571-.368.8-1.105.448-1.71h0Z"/><path class="ay" d="m182.529,170.293c.01.68-.003,1.362-.071,2.039-.007.07-.016.139-.023.209-.03.281.031-.197.01-.069-.018.112-.034.224-.054.336-.039.215-.086.428-.142.64-.169.636-.447,1.226-.682,1.838s.259,1.398.873,1.538c.715.163,1.286-.218,1.538-.873.241-.628.526-1.233.695-1.887.316-1.223.374-2.513.356-3.771-.009-.653-.568-1.281-1.25-1.25-.669.03-1.26.549-1.25,1.25h0Z"/><path class="ay" d="m201.673,167.429c.168.265.329.534.474.813.075.145.143.293.212.441.079.17-.063-.183-.006-.009.021.064.048.127.071.191.087.248.159.501.213.758.013.063.025.126.036.189.006.035.027.246.012.07-.014-.178,0,.037.003.071.007.079.012.159.015.238.011.259.004.518-.018.776-.008.1-.067.438-.015.168-.026.137-.046.275-.073.412-.131.65-.329,1.284-.547,1.909-.215.618.244,1.394.873,1.538.697.159,1.308-.211,1.538-.873.445-1.281.817-2.655.737-4.024-.084-1.423-.606-2.734-1.366-3.929-.351-.551-1.128-.824-1.71-.448-.552.356-.824,1.12-.448,1.71h0Z"/><path class="ay" d="m215.802,159.084c.04.082.175.407.079.16.054.141.109.282.157.425.091.274.165.555.22.839.018.093.057.452.035.184.013.16.031.319.038.48.015.315.009.632-.016.947-.006.075-.057.475-.022.251-.025.161-.053.321-.086.481-.074.361-.169.717-.281,1.067-.261.822-.565,1.474-.98,2.25-.318.595-.149,1.361.448,1.71.567.332,1.391.149,1.71-.448.887-1.658,1.561-3.424,1.711-5.311.118-1.492-.208-2.955-.854-4.295-.293-.608-1.161-.77-1.71-.448-.621.363-.743,1.1-.448,1.71h0Z"/><path class="ay" d="m191.259,210.66c-.391-2.519-.782-5.038-1.173-7.557l-.166-1.073c-.104-.668-.94-1.037-1.538-.873-.713.196-.977.868-.873,1.538.391,2.519.782,5.038,1.173,7.557l.166,1.073c.104.668.94,1.037,1.538.873.713-.196.977-.868.873-1.538h0Z"/><path class="ay" d="m158.284,211.718c.087-1.719.372-3.354.909-5.003.545-1.676,1.207-3.31,1.731-4.993.479-1.54-1.933-2.198-2.411-.665-.537,1.727-1.222,3.401-1.773,5.123-.575,1.797-.861,3.655-.956,5.538-.034.675.599,1.25,1.25,1.25.705,0,1.216-.573,1.25-1.25h0Z"/><path class="ay" d="m202.121,192.316c.269.128.531.269.783.43.057.037.343.286.39.27-.037.012-.232-.19-.037-.026.05.042.1.083.149.126.214.187.416.389.603.604.051.059.1.119.15.179.177.211-.163-.233-.005-.005.082.119.166.236.244.358.158.249.3.508.426.774.029.062.057.124.086.187.121.263-.1-.266.003.008.054.146.11.291.16.438.216.646.358,1.313.453,1.987.092.65.952,1.062,1.538.873.712-.23.972-.841.873-1.538-.201-1.418-.634-2.849-1.422-4.057-.774-1.187-1.847-2.154-3.129-2.764-.589-.28-1.377-.183-1.71.448-.294.557-.182,1.41.448,1.71h0Z"/><path class="ay" d="m136.943,192.236c.054-.173.116-.341.177-.512.079-.223-.069.145-.004.003.032-.07.062-.14.095-.209.146-.309.309-.609.488-.9.181-.295.379-.577.584-.856.167-.229-.129.156.036-.044.06-.073.118-.146.179-.218.11-.131.223-.259.338-.386.439-.482.914-.933,1.423-1.342.138-.111.084-.056-.025.016.067-.044.13-.098.194-.145.115-.084.232-.166.351-.244.227-.15.46-.29.702-.416.58-.304.802-1.161.448-1.71-.381-.591-1.09-.773-1.71-.448-1.213.635-2.303,1.577-3.213,2.591-1.085,1.209-1.989,2.595-2.472,4.156-.193.625.229,1.391.873,1.538.678.154,1.33-.204,1.538-.873h0Z"/><path class="z" d="m102.522,361.305c-1.493,3.11-.687,6.239.842,9.359"/><path class="t" d="m88.112,336.637c-2.765,2.455-4.609,4.894-5.857,8.452"/><path class="z" d="m130.839,368.344c-.017,2.626.417,5.254,1.277,7.735"/><path class="z" d="m157.918,386.336c-1.105-2.326-1.087-5.155.048-7.467"/><path class="z" d="m192.563,387.615c2.156-2.48,2.748-6.214,1.464-9.24"/><path class="z" d="m217.092,380.932c1.11-3.109,1.083-6.063-.379-8.715"/><path class="z" d="m240.209,360.043c2.722,2.118,3.618,6.26,2.016,9.314"/><path class="y" d="m255.423,339.121c3.242,1.387,6.338,4.258,6.265,9.146"/><path class="z" d="m141.23,405.695c2.7,3.974,6.08,7.385,10.211,9.812"/><path class="z" d="m141.23,405.695c2.7,3.974,6.08,7.385,10.211,9.812"/><path class="z" d="m199.083,406.39c-2.7,3.974-6.08,7.385-10.211,9.812"/><path class="ah" d="m218.304,87.51c-2.123-2.816-5.978-4.588-9.58-3.866-1.505.302-2.889,1.001-4.157,1.816-2.285,1.469-5.196,3.448-6.055,5.877-.859-2.429-3.77-4.408-6.055-5.877-1.269-.816-2.652-1.515-4.157-1.816-3.602-.722-7.457,1.05-9.58,3.866-1.172,1.555-1.851,3.371-2.146,5.257-1.107-.368-2.206-.638-3.2-.728-2.205-.201-2.656-.004-4.343,0-1.002.002-2.106.246-3.217.616-.305-1.846-.98-3.621-2.129-5.145-2.123-2.816-5.978-4.588-9.58-3.866-1.505.302-2.889,1.001-4.157,1.816-2.285,1.469-5.196,3.448-6.055,5.877-.859-2.429-3.77-4.408-6.055-5.877-1.269-.816-2.652-1.515-4.157-1.816-3.602-.722-7.457,1.05-9.58,3.866-2.123,2.816-2.676,6.48-2.135,9.888.541,3.408,2.087,6.607,3.863,9.626,3.915,6.657,9.648,12.854,17.412,15.086h1.304c7.765-2.232,13.497-8.429,17.412-15.086,1.14-1.938,2.181-3.952,2.927-6.047,2.361-.545,4.873-.884,5.868-1.012.146.002.311.003.511.005,1.696.013,4.017.291,6.205.843.749,2.153,1.812,4.222,2.982,6.211,3.915,6.657,9.648,12.854,17.412,15.086h1.304c7.765-2.232,13.497-8.429,17.412-15.086,1.776-3.019,3.322-6.218,3.863-9.626.541-3.408-.012-7.073-2.135-9.888Z"/><circle class="al" cx="209.137" cy="95.306" r="10.14"/><circle class="ak" cx="154.924" cy="95.306" r="10.14"/><path class="ba" d="m219.901,86.305c-2.72-3.607-7.372-5.468-11.57-4.623-1.551.311-3.136.996-4.846,2.095-1.737,1.117-3.581,2.378-4.973,3.895-1.392-1.517-3.236-2.778-4.973-3.896-1.709-1.099-3.294-1.784-4.846-2.095-4.208-.844-8.851,1.016-11.57,4.623-.795,1.055-1.411,2.239-1.862,3.528l-7.973-.041-.134.07c-.452-1.301-1.073-2.495-1.874-3.557-2.72-3.607-7.37-5.466-11.57-4.623-1.551.311-3.136.996-4.846,2.095-1.736,1.117-3.581,2.378-4.973,3.895-1.392-1.517-3.236-2.778-4.973-3.896-1.709-1.099-3.294-1.784-4.846-2.095-4.206-.844-8.851,1.016-11.57,4.623-2.304,3.055-3.197,7.105-2.514,11.406.642,4.045,2.536,7.644,4.114,10.327,3.44,5.848,9.456,13.37,18.584,15.994.18.051.366.078.553.078h1.304c.187,0,.373-.026.553-.078,9.128-2.625,15.144-10.146,18.583-15.994,1.156-1.966,2.025-3.689,2.688-5.336,1.335-.271,2.868-.522,4.503-.735l.376.003c1.38.011,3.113.216,4.721.55.672,1.706,1.563,3.487,2.757,5.518,3.44,5.848,9.456,13.37,18.584,15.994.18.051.366.078.553.078h1.304c.187,0,.373-.026.553-.078,9.128-2.625,15.145-10.146,18.584-15.995,1.578-2.684,3.472-6.283,4.114-10.326.683-4.301-.21-8.352-2.513-11.406Zm-75.646,33.805h-.727c-7.716-2.333-12.941-8.938-15.978-14.1-1.399-2.379-3.074-5.543-3.611-8.925-.503-3.172.137-6.223,1.757-8.371,1.785-2.368,4.905-3.647,7.59-3.109,2.587.518,5.444,2.51,7.248,4.383.996,1.034,1.632,3.349,3.357,3.349,1.467,0,2.189-2.054,3.065-3.018,1.195-1.316,2.592-2.225,4.072-3.176,1.299-.835,2.401-1.324,3.469-1.538,2.053-.411,4.068.219,5.738,1.424,1.469,1.06,3.298,2.698,3.605,4.563.029.176-.85,8.739-.85,8.739-.614,1.72-1.49,3.525-2.758,5.68-3.036,5.162-8.261,11.768-15.977,14.1Zm74.209-23.025c-.537,3.38-2.212,6.545-3.612,8.925-3.036,5.162-8.261,11.768-15.977,14.1h-.727c-7.716-2.333-12.941-8.938-15.977-14.1-1.264-2.15-2.138-3.961-2.753-5.688l-.522-8.732c.323-1.074.791-2.042,1.42-2.877,1.785-2.368,4.902-3.647,7.59-3.109,1.694.34,3.187,1.325,4.616,2.248,1.15.742,2.188,1.657,3.069,2.704.799.95,1.445,2.78,2.919,2.78,1.532,0,2.164-1.951,3.028-2.946,1.188-1.369,2.603-2.281,4.108-3.248,1.299-.835,2.401-1.324,3.469-1.538,2.681-.537,5.804.74,7.59,3.109,1.62,2.148,2.26,5.199,1.757,8.371Z"/><line class="u" x1="57.674" y1="136.049" x2="146.12" y2="335.343"/><path class="av" d="m79.42,197.097c4.051-.775,6.843-2.27,9.147-4.043l-25.237-57.087-9.147,4.043,25.237,57.087Z"/><circle class="au" cx="57.5" cy="137.648" r="57.5"/><path class="av" d="m132.067,291.499l4.909,11.105c-2.303,1.773-5.096,3.267-9.147,4.043l-7.393-16.722,11.63,1.574Z"/><path class="am" d="m61.65,132.927c.454-.558,1.037-1.003,1.715-1.301,1.123-.494,2.37-.522,3.513-.081l.959-2.466c4.892-.379,9.375-3.486,11.273-8.364,1.597-4.105.996-8.522-1.23-11.955-.245-.378-.681-.587-1.129-.541-.448.046-.834.338-.997.758l-1.424,3.661c-1.16,2.982-4.518,4.459-7.5,3.299-2.982-1.16-4.459-4.518-3.299-7.5l1.424-3.661c.163-.42.078-.897-.222-1.233-.3-.337-.762-.477-1.199-.364-3.961,1.026-7.389,3.876-8.986,7.98-1.926,4.951-.654,10.355,2.811,13.94l-2.081,5.348,6.37,2.478Z"/><path class="am" d="m57.841,142.635l-6.344-2.468-8.63,22.182c-1.122,2.884.306,6.132,3.191,7.254,2.884,1.122,6.132-.306,7.254-3.191l7.439-19.122c-1.932-.757-3.067-2.684-2.911-4.655Z"/><path class="am" d="m65.858,134.2c-.454-.176-.936-.152-1.349.029s-.757.521-.933.974l-.515,1.324-23.588-9.177.429-1.103c.391-1.004-.205-2.123-1.257-2.359l-8.849-1.983c-.85-.19-1.712.269-2.028,1.081l-1.59,4.086c-.316.812.009,1.733.764,2.167l7.862,4.519c.935.537,2.13.116,2.521-.889l.429-1.103,23.588,9.177-.551,1.417c-.353.907.096,1.929,1.004,2.282l21.761,8.466c2.884,1.122,6.132-.306,7.254-3.191,1.122-2.884-.306-6.132-3.191-7.254l-21.761-8.465Z"/><path class="ap" d="m239.013,314.6c-.116-2.231-.239-4.729.538-6.824,5.692-15.339,15.228-48.77,14.914-60.522.61-17.989,32.08-21.431,35.081,8.075.096.942,3.355,13.786,4.009,16.961.507,2.46-1.653,5.758-3.277,7.674-1.851,2.182-4.779,3.043-7.255,4.477.673,3.225-.146,6.489-1.947,9.247-1.801,2.758-4.726,4.759-7.949,5.439.706,1.824-.56,3.807-1.971,5.161-1.456,1.398-3.143,2.555-4.972,3.411-.142.066-.592-.006-.447.052.4.161-3.126,5.098-7.081,5.44.076,1.103-.917,1.962-1.859,2.541-2.312,1.421-4.922,2.355-7.61,2.723-3.038.416-5.972.859-8.58-.753-.358-.221-.707-.471-.964-.804-.494-.639-.587-1.492-.629-2.298Z"/><path class="an" d="m242.75,312.33c-.075.38-.544.973-.818,1.248-1.818,1.828-3.838,3.454-6.013,4.84-.432.275-1.02.535-1.416.21-.286-.234-.307-.656-.305-1.026.007-1.136.017-2.296.388-3.371.55-1.594,3.965-7.797,5.782-8.122,1.501,2.318,1.224,4.329,2.381,6.22Z"/><path class="an" d="m240.068,312.281c.62-.884,1.252-1.781,2.098-2.453s1.948-1.1,3.009-.897c1.154.221,2.084,1.18,2.457,2.294s.244,2.351-.162,3.453c-1.037,2.817-6.595,7.879-9.902,7.482-5.38-.646,1.31-8.183,2.501-9.879Z"/><path class="ay" d="m279.743,280.067c.143.133.281.272.41.418.067.076.129.155.194.232.088.104-.197-.272-.068-.086.023.033.047.065.07.098.229.327.409.676.578,1.037.064.137-.108-.267-.052-.124.019.05.04.099.059.149.039.102.076.204.112.307.07.204.132.411.189.62.129.474.229.954.317,1.437.117.645.935,1.068,1.538.873.692-.224.999-.847.873-1.538-.35-1.925-.985-3.822-2.452-5.191-.478-.446-1.3-.509-1.768,0-.445.485-.511,1.291,0,1.768h0Z"/><path class="ay" d="m269.814,298.489c.116.042.23.086.343.133l-.299-.126c.846.357,1.62.863,2.362,1.4.248.179.68.204.963.126.29-.08.604-.304.747-.574.153-.29.23-.642.126-.963l-.126-.299c-.111-.188-.261-.337-.448-.448-.935-.676-1.913-1.266-3.003-1.659-.291-.105-.704-.026-.963.126s-.507.449-.574.747c-.073.32-.057.679.126.963.184.286.427.459.747.574h0Z"/><path class="ap" d="m132.726,293.528c-.912-2.039-1.941-4.319-3.586-5.83-12.053-11.065-35.766-36.486-40.837-47.092-8.735-15.738-38.319-4.472-27.556,23.164.344.882,3.291,13.801,4.154,16.926.669,2.421,4.094,4.374,6.412,5.34,2.642,1.1,5.64.533,8.498.682.869,3.178,3.085,5.71,5.944,7.346,2.86,1.635,6.375,2.085,9.554,1.223.202,1.945,2.232,3.135,4.105,3.698,1.933.581,3.962.843,5.979.773.156-.005.525-.275.422-.157-.283.326,5.105,3.116,8.781,1.619.434,1.017,1.71,1.329,2.812,1.416,2.705.213,5.454-.145,8.015-1.042,2.894-1.013,5.708-1.954,7.296-4.578.218-.36.415-.741.492-1.154.149-.793-.157-1.596-.486-2.332Z"/><path class="an" d="m128.365,293.21c.24.304.928.619,1.296.739,2.451.799,4.99,1.327,7.557,1.571.51.048,1.152.012,1.356-.457.148-.339-.026-.724-.196-1.052-.523-1.009-1.061-2.037-1.88-2.824-1.215-1.169-7.081-5.136-8.846-4.598-.281,2.747.882,4.411.713,6.622Z"/><path class="an" d="m130.73,291.944c-.955-.505-1.926-1.015-2.985-1.229s-2.236-.092-3.087.572c-.926.722-1.318,2-1.143,3.161s.853,2.204,1.717,3c2.206,2.036,9.459,4.012,12.223,2.152,4.496-3.025-4.893-6.689-6.725-7.657Z"/><path class="ay" d="m78.139,280.072c-.681,1.89-.348,3.892.216,5.765.188.625.885,1.084,1.538.873.632-.204,1.075-.867.873-1.538-.137-.454-.263-.912-.362-1.376-.016-.075-.075-.657-.122-.675.025.196.03.225.013.088-.006-.054-.012-.107-.017-.161-.009-.092-.016-.185-.021-.277-.011-.193-.015-.387-.008-.58.003-.101.009-.202.017-.303.004-.042.037-.371.011-.133-.026.236.018-.088.026-.131.019-.099.041-.198.066-.296.05-.2.113-.396.183-.591.222-.616-.25-1.396-.873-1.538-.703-.16-1.3.213-1.538.873h0Z"/><path class="ay" d="m96.034,290.863c-.786.839-1.386,1.83-1.906,2.849-.153.299-.217.632-.126.963.08.29.304.604.574.747.29.153.642.23.963.126.3-.097.599-.285.747-.574.367-.72.767-1.427,1.261-2.068l-.195.253c.142-.183.291-.359.449-.528.224-.239.366-.553.366-.884,0-.307-.136-.673-.366-.884-.238-.219-.551-.381-.884-.366-.325.015-.655.122-.884.366h0Z"/></svg>